<svg width="131" height="125" viewBox="0 0 131 125" fill="none" xmlns="http://www.w3.org/2000/svg">
<path d="M97.779 124.934C96.1458 124.835 94.5208 124.67 92.9121 124.398C90.6338 124.011 88.4127 123.434 86.2732 122.544C83.5948 121.423 81.2757 119.791 79.2995 117.656C78.1563 116.42 77.2172 115.035 76.5476 113.469C76.0331 112.274 75.7147 111.03 75.5759 109.727C75.486 108.862 75.4779 108.005 75.535 107.139C75.6085 106.084 75.8208 105.062 76.2373 104.082C76.7109 102.944 77.4214 101.996 78.3849 101.23C78.8831 100.834 79.422 100.488 79.9936 100.2C80.1324 100.125 80.2794 100.092 80.4346 100.092C82.0106 100.092 83.5948 100.092 85.1708 100.092C85.2525 100.092 85.3423 100.109 85.4403 100.109C85.4485 100.216 85.4566 100.298 85.4648 100.381C85.5138 101.444 85.5465 102.507 85.6199 103.562C85.7914 105.936 86.1017 108.293 86.6652 110.609C87.0735 112.299 87.6124 113.947 88.3719 115.513C89.1721 117.162 90.2092 118.629 91.5402 119.89C93.1816 121.448 95.0924 122.503 97.2564 123.121C98.1791 123.385 99.1101 123.558 100.065 123.665C101.184 123.797 102.295 123.821 103.414 123.78C105.463 123.698 107.472 123.368 109.407 122.668C111.261 121.992 112.943 121.011 114.429 119.7C116.152 118.2 117.385 116.354 118.202 114.219C118.643 113.057 118.945 111.862 119.141 110.634C119.386 109.101 119.476 107.552 119.435 106.002C119.394 104.469 119.239 102.952 118.863 101.469C118.774 101.114 118.659 100.768 118.561 100.414C118.537 100.323 118.504 100.224 118.48 100.134C118.569 100.068 118.659 100.092 118.741 100.092C119.631 100.092 120.521 100.092 121.403 100.092C124.408 100.092 127.413 100.092 130.418 100.092C130.541 100.092 130.655 100.084 130.778 100.076V101.271C130.761 101.32 130.737 101.378 130.737 101.428C130.729 101.799 130.729 102.169 130.72 102.54C130.72 102.755 130.72 102.961 130.696 103.167C130.582 104.378 130.402 105.582 130.124 106.769C129.577 109.101 128.703 111.302 127.438 113.329C125.698 116.107 123.436 118.357 120.717 120.154C118.635 121.522 116.389 122.527 114.021 123.269C111.971 123.912 109.881 124.332 107.758 124.613C106.615 124.761 105.471 124.86 104.32 124.934C103.789 124.959 103.267 124.975 102.736 125H99.5102C99.3469 124.984 99.1917 124.967 99.0284 124.959C98.6201 124.942 98.2118 124.942 97.8035 124.934H97.779Z" fill="white"/>
<path d="M58.4028 0.065937C58.4028 0.065937 58.4028 0.0247264 58.4028 0C66.6586 0 74.9062 0 83.1619 0C83.1619 0.0247264 83.1619 0.0576948 83.1538 0.0824212C82.9986 0.0824212 82.8435 0.0741791 82.6965 0.0741791C74.7429 0.0741791 66.7892 0.0741791 58.8356 0.0741791C58.6968 0.0741791 58.5498 0.0741791 58.411 0.0741791L58.4028 0.065937Z" fill="white"/>
<path d="M0.000109291 1.25284C0.000109291 0.865462 0.000109291 0.46984 0.000109291 0.0742188C0.122598 0.0742188 0.245087 0.0742188 0.35941 0.0742188C12.2898 0.0742188 24.2203 0.0742188 36.1589 0.0742188C36.2977 0.0742188 36.4447 0.090703 36.5835 0.090703V1.19515C36.4937 1.29405 36.4038 1.26108 36.314 1.26108C35.4239 1.26108 34.5338 1.25284 33.6437 1.26108C32.476 1.28581 31.3246 1.42593 30.2059 1.78034C29.6669 1.94518 29.1606 2.16772 28.6625 2.43971C27.2988 3.18974 26.3761 4.31067 25.8698 5.78601C25.6166 6.53604 25.4697 7.30256 25.388 8.08556C25.3308 8.67075 25.3227 9.25594 25.3227 9.84113C25.3227 27.4051 25.3227 44.9691 25.3227 62.533C25.3227 63.349 25.3227 64.1732 25.3553 64.9892C25.3962 66.1183 25.4697 67.2475 25.6003 68.3684C25.8126 70.2888 26.1474 72.1763 26.7272 74.0225C26.8497 74.4264 26.9967 74.8138 27.1355 75.2176C27.16 75.2753 27.1763 75.3413 27.1845 75.3825C27.1437 75.4649 27.0783 75.4484 27.0293 75.4484C26.964 75.4484 26.8987 75.4484 26.8334 75.4484C22.8729 75.4484 18.9124 75.4484 14.9519 75.4484H14.609C14.5436 75.333 14.4783 75.2176 14.413 75.1022C13.6617 73.6681 13.0819 72.168 12.6328 70.6103C12.249 69.2586 11.9632 67.8821 11.7591 66.4892C11.5386 65.0056 11.4079 63.5221 11.3589 62.0302C11.3344 61.2637 11.3181 60.5055 11.3181 59.7389C11.3181 43.0157 11.3181 26.2924 11.3181 9.56914C11.3181 8.96747 11.3181 8.37403 11.2446 7.7806C11.1466 6.88221 10.9506 6.01679 10.5913 5.18433C10.1504 4.17879 9.47259 3.36282 8.56617 2.75291C7.70875 2.17596 6.7615 1.80506 5.75709 1.56604C4.80984 1.34351 3.85443 1.2446 2.88268 1.23636C2.04159 1.23636 1.19234 1.23636 0.351244 1.23636C0.228755 1.23636 0.106266 1.23636 -0.00805664 1.22812L0.000109291 1.25284Z" fill="white"/>
<path d="M109.113 75.4731C108.999 75.4731 108.909 75.4731 108.828 75.4731C100.457 75.4731 92.0792 75.4731 83.7091 75.4731C83.652 75.4731 83.603 75.4731 83.5458 75.4731C83.4478 75.4731 83.3743 75.4401 83.3172 75.366C83.2927 75.3412 83.2682 75.3165 83.2518 75.2918C81.9616 73.9153 80.8265 72.4318 79.8793 70.7998C78.9075 69.1349 78.2543 67.3464 77.8296 65.4672C77.5602 64.2968 77.3887 63.1182 77.2907 61.9313C77.1764 60.6126 77.1437 59.3021 77.1927 57.9833C77.2744 55.7827 77.5847 53.6232 78.2216 51.5133C79.1525 48.4472 80.7122 45.7685 82.9742 43.5102C84.6155 41.8782 86.4855 40.576 88.5352 39.5292C90.4623 38.5484 92.4875 37.8396 94.5861 37.3368C95.9417 37.0154 97.3136 36.7763 98.7018 36.6197C99.649 36.5126 100.604 36.4384 101.552 36.389C102.866 36.323 104.181 36.3148 105.504 36.356C106.631 36.389 107.758 36.4631 108.885 36.5785C110.11 36.7104 111.318 36.8835 112.527 37.1308C114.985 37.6335 117.361 38.4 119.59 39.5869C121.183 40.4358 122.652 41.4496 123.959 42.6942C124.727 43.4277 125.413 44.2355 125.976 45.1339C126.752 46.3702 127.234 47.7136 127.389 49.1643C127.503 50.2192 127.462 51.266 127.185 52.2963C126.793 53.7716 125.984 54.9667 124.833 55.931C123.796 56.7965 122.612 57.3899 121.33 57.7855C120.415 58.0657 119.476 58.2471 118.52 58.3295C117.998 58.3707 117.467 58.3954 116.944 58.4284C116.822 58.4284 116.708 58.4284 116.569 58.4284C116.561 58.3377 116.544 58.2636 116.544 58.1894C116.536 57.5877 116.544 56.9943 116.52 56.3926C116.479 55.1563 116.406 53.9117 116.267 52.6836C116.071 50.9033 115.777 49.1313 115.287 47.4004C114.862 45.8839 114.299 44.425 113.507 43.0568C112.584 41.4661 111.351 40.1886 109.758 39.2737C108.762 38.6968 107.692 38.3011 106.574 38.0456C104.981 37.6747 103.365 37.5841 101.731 37.6665C100.123 37.7489 98.5548 38.0291 97.0277 38.5731C95.3211 39.183 93.794 40.0897 92.4222 41.2848C91.083 42.4552 90.1112 43.8811 89.4171 45.513C88.9435 46.6257 88.6332 47.7878 88.4127 48.9747C88.1514 50.3923 88.0534 51.8265 88.0452 53.2688C88.0371 54.7854 88.1432 56.3019 88.4127 57.7938C88.8618 60.2169 89.7682 62.4341 91.3034 64.371C92.1527 65.4424 93.1163 66.3903 94.1697 67.2475C95.0271 67.9398 95.9335 68.5662 96.8726 69.1432C99.0856 70.5031 101.372 71.7147 103.699 72.8686C105.381 73.701 107.08 74.5005 108.803 75.2588C108.901 75.3 109.007 75.3165 109.105 75.4484L109.113 75.4731Z" fill="white"/>
<path d="M58.4029 0.065918C58.5417 0.065918 58.6887 0.065918 58.8275 0.065918C66.7812 0.065918 74.7348 0.065918 82.6884 0.065918C82.8435 0.065918 82.9987 0.065918 83.1457 0.0741601V1.19509C83.064 1.29399 82.9579 1.25278 82.8599 1.25278C81.929 1.25278 80.998 1.25278 80.059 1.25278C79.1607 1.25278 78.2625 1.3352 77.3805 1.51653C76.6129 1.66489 75.8698 1.90391 75.1676 2.25008C73.6814 2.97539 72.6606 4.12104 72.1217 5.69529C71.8685 6.42883 71.7134 7.18711 71.6317 7.96187C71.5501 8.68718 71.5419 9.42072 71.5419 10.1543C71.5419 26.9847 71.5419 43.8233 71.5419 60.6537C71.5419 61.5356 71.5419 62.4258 71.5011 63.3077C71.3704 66.3408 70.8641 69.308 69.7944 72.168C69.4106 73.1982 68.9615 74.1873 68.4307 75.1516C68.3735 75.2588 68.3082 75.3577 68.251 75.4566H66.724C66.7158 75.333 66.7893 75.2588 66.8465 75.1846C67.6304 73.9236 68.2674 72.5883 68.7736 71.1954C69.3044 69.7366 69.6801 68.2365 69.9332 66.7035C70.2353 64.8737 70.3415 63.0357 70.3415 61.1812C70.3415 48.645 70.3415 36.1087 70.3415 23.5724C70.3415 18.8744 70.3415 14.1847 70.3415 9.48666C70.3415 8.88499 70.3333 8.29155 70.2598 7.69812C70.1374 6.73379 69.9087 5.80243 69.4677 4.93701C69.0676 4.15401 68.5205 3.50288 67.8182 2.98363C66.9445 2.34074 65.9727 1.9204 64.9357 1.65665C63.9394 1.40114 62.9268 1.28575 61.9061 1.26927C60.8527 1.25278 59.7993 1.26927 58.7459 1.26927C58.6397 1.26927 58.5254 1.26927 58.4274 1.26927C58.3703 1.022 58.3621 0.395603 58.4111 0.065918H58.4029Z" fill="white"/>
<path d="M106.794 91.166C106.892 91.0836 106.998 90.9929 107.113 90.9022C107.635 90.4819 108.223 90.1934 108.868 90.0203C109.007 89.9791 109.13 89.9956 109.236 90.0945C109.424 90.2676 109.391 90.5231 109.17 90.6467C109.089 90.6962 108.991 90.7209 108.893 90.7456C108.223 90.9435 107.652 91.2979 107.17 91.8006C106.819 92.1633 106.565 92.5919 106.369 93.0452C106.223 93.3666 106.231 93.7128 106.296 94.059C106.304 94.1167 106.329 94.1661 106.353 94.2156C106.418 94.3639 106.541 94.3969 106.672 94.3062C106.753 94.2485 106.827 94.1826 106.892 94.1084C107.031 93.9353 107.17 93.7705 107.3 93.5892C107.758 92.9381 108.133 92.2375 108.476 91.5204C108.517 91.438 108.55 91.3556 108.591 91.2814C108.664 91.1578 108.778 91.0918 108.925 91.1165C109.064 91.1413 109.17 91.2154 109.219 91.3556C109.252 91.4462 109.268 91.5451 109.285 91.644C109.375 92.0974 109.538 92.5095 109.767 92.9133C110.175 93.6469 110.812 94.026 111.628 94.1084C112.175 94.1661 112.723 94.0919 113.253 93.9271C114.233 93.6139 115.132 93.1194 115.964 92.5259C116.389 92.221 116.806 91.8913 117.214 91.5287C117.181 91.4627 117.149 91.405 117.116 91.3556C116.61 90.5149 116.879 89.5588 117.508 89.0148C117.655 88.8912 117.826 88.8252 118.006 88.7675C118.292 88.6769 118.627 88.9241 118.667 89.2126C118.692 89.4187 118.684 89.633 118.635 89.839C118.553 90.1852 118.431 90.5149 118.292 90.8446C118.267 90.9022 118.235 90.9682 118.218 91.0259C118.186 91.1495 118.292 91.3144 118.414 91.3144C118.578 91.3144 118.741 91.3144 118.904 91.2896C119.223 91.2402 119.517 91.133 119.802 90.9847C119.966 90.9022 120.137 90.8198 120.309 90.7539C120.578 90.655 120.831 90.7292 121.019 90.9517C121.125 91.0753 121.174 91.2155 121.109 91.3803C121.036 91.5781 120.962 91.7759 120.889 91.9655C120.807 92.1715 120.717 92.3693 120.635 92.5754C120.611 92.6249 120.603 92.6825 120.586 92.732C120.48 93.1853 120.635 93.5068 121.06 93.6963C121.24 93.7787 121.436 93.8117 121.632 93.8282C122.35 93.8859 123.053 93.8282 123.755 93.6716C124.735 93.4655 125.682 93.1523 126.572 92.6908C127.209 92.3611 127.797 91.9572 128.32 91.4627C128.401 91.3885 128.475 91.3061 128.589 91.2896C128.728 91.2731 128.85 91.3061 128.932 91.4297C129.014 91.5451 129.014 91.7182 128.932 91.8336C128.883 91.8913 128.826 91.949 128.777 91.9985C128.344 92.4106 127.87 92.765 127.356 93.0617C126.172 93.7375 124.906 94.1909 123.567 94.4216C123.004 94.5205 122.432 94.5535 121.86 94.5535C121.468 94.5535 121.101 94.4628 120.742 94.3145C120.48 94.2073 120.268 94.0425 120.088 93.82C119.819 93.4738 119.778 93.0699 119.86 92.6578C119.909 92.3941 120.007 92.1468 120.129 91.9078C120.17 91.8336 120.194 91.7512 120.235 91.644C120.162 91.6358 120.113 91.6111 120.072 91.6276C119.998 91.644 119.933 91.6852 119.86 91.7182C119.166 92.0479 118.455 92.1221 117.696 91.8995C117.598 92.1303 117.385 92.2787 117.198 92.4435C116.365 93.1359 115.466 93.7293 114.486 94.1909C113.89 94.4711 113.262 94.6936 112.608 94.7843C111.653 94.9244 110.746 94.7843 109.946 94.1909C109.685 94.0013 109.464 93.7787 109.277 93.5068C109.228 93.4326 109.179 93.3584 109.13 93.2842C109.015 93.1029 108.672 93.0782 108.533 93.2842C108.395 93.4985 108.239 93.6963 108.084 93.8941C107.831 94.2156 107.554 94.5123 107.211 94.7431C107.08 94.8255 106.949 94.9079 106.81 94.9656C106.312 95.1552 105.863 94.9491 105.667 94.4464C105.504 94.0095 105.463 93.5645 105.577 93.1111C105.594 93.0617 105.602 93.004 105.61 92.9463C105.61 92.938 105.61 92.9298 105.586 92.8968C105.52 92.9298 105.455 92.9628 105.398 93.004C104.949 93.3584 104.475 93.6798 103.985 93.9766C103.552 94.2403 103.095 94.4628 102.63 94.6442C102.082 94.8585 101.519 94.9739 100.931 94.9656C99.9266 94.9409 99.1345 94.5205 98.571 93.6798C98.2117 93.1523 97.9994 92.5589 97.8606 91.9408C97.7381 91.4215 97.6728 90.9022 97.6401 90.3665C97.6156 89.8555 97.5993 89.3527 97.6401 88.8417C97.6728 88.4461 97.5666 88.3719 97.191 88.4049C96.8644 88.4379 96.5377 88.4626 96.2111 88.4873C95.762 88.5203 95.3128 88.545 94.8637 88.578C94.7412 88.578 94.6187 88.578 94.5126 88.6439C94.5126 88.7593 94.5942 88.8252 94.6514 88.9077C94.9209 89.2703 95.1822 89.6412 95.3863 90.0451C95.6231 90.5066 95.8109 90.9929 95.8926 91.5122C95.9906 92.0974 95.9171 92.6578 95.713 93.21C95.4761 93.82 95.0189 94.2156 94.4636 94.5205C93.9328 94.809 93.3612 94.9656 92.7814 95.0645C92.2751 95.1552 91.7606 95.1964 91.238 95.1881C90.1438 95.1717 89.0741 94.9903 88.0696 94.5453C87.6858 94.3722 87.3347 94.1496 87.0407 93.8447C86.5753 93.3502 86.4446 92.6578 86.7223 92.0314C86.9346 91.5534 87.2612 91.1742 87.6532 90.8363C88.0533 90.4901 88.4861 90.1852 88.9434 89.9132C89.4987 89.5753 90.0703 89.2703 90.6664 89.0066C90.7154 88.9818 90.7644 88.9571 90.8134 88.9406C90.9767 88.8829 91.1482 88.9489 91.2299 89.1055C91.3034 89.2373 91.2707 89.4187 91.14 89.5258C91.0747 89.5753 90.9931 89.6165 90.9114 89.6494C90.2989 89.9462 89.6865 90.2511 89.1149 90.622C88.6658 90.9105 88.2411 91.2154 87.8737 91.6028C87.7103 91.7677 87.5634 91.949 87.4572 92.155C87.4245 92.2127 87.4 92.2704 87.3755 92.3364C87.2122 92.7815 87.3102 93.1606 87.6695 93.4738C87.939 93.7046 88.2493 93.8694 88.5759 94.0013C89.1965 94.2486 89.8335 94.3804 90.4949 94.4299C90.6827 94.4464 90.8624 94.4711 91.0502 94.4793C91.9566 94.4958 92.8467 94.4134 93.7041 94.092C93.9246 94.0095 94.1451 93.8941 94.3492 93.7705C94.9045 93.4408 95.1577 92.9216 95.2148 92.2869C95.272 91.6853 95.1087 91.1248 94.8637 90.589C94.6514 90.1357 94.3737 89.7236 94.0798 89.328C93.9736 89.1879 93.8593 89.056 93.7531 88.9077C93.6633 88.7923 93.5735 88.6934 93.4265 88.6439C93.3122 88.6109 93.2468 88.5203 93.2224 88.4049C93.1979 88.2648 93.1162 88.1659 93.0182 88.0752C92.6916 87.7373 92.3568 87.3993 92.0301 87.0532C91.4013 86.3856 90.7726 85.7262 90.1601 85.0421C89.711 84.5476 89.3272 84.0118 89.0006 83.4349C88.7474 82.9898 88.5759 82.52 88.4698 82.009C88.2738 81.0612 88.7311 79.6518 89.8825 79.0748C90.3398 78.844 90.8297 78.7204 91.336 78.6792C92.3078 78.5885 93.2632 78.7369 94.2023 78.9841C95.6395 79.3715 96.995 79.9567 98.2526 80.7809C98.8732 81.1848 99.453 81.6299 99.9511 82.1903C100 82.248 100.065 82.3057 100.131 82.3222C100.498 82.4211 100.637 82.7178 100.751 83.0393C100.776 83.1217 100.792 83.2123 100.792 83.303C100.776 83.6574 100.792 84.0118 100.702 84.358C100.515 85.0668 100.31 85.7674 100.114 86.468C100.057 86.6823 99.9756 86.8883 99.9102 87.0944C99.8857 87.1603 99.8613 87.218 99.8531 87.284C99.8123 87.4323 99.8776 87.5147 100.041 87.5147C100.163 87.5147 100.286 87.5065 100.4 87.4983C100.564 87.49 100.727 87.4735 100.89 87.4653C101.65 87.4241 102.401 87.3829 103.16 87.3499C103.552 87.3334 103.952 87.3334 104.344 87.3252C104.41 87.3252 104.475 87.3252 104.54 87.3417C104.695 87.3829 104.81 87.5395 104.818 87.6796C104.818 87.8362 104.687 88.001 104.524 88.034C104.451 88.0505 104.369 88.0422 104.295 88.0505C103.389 88.0752 102.474 88.0917 101.568 88.1329C100.955 88.1576 100.343 88.2153 99.7306 88.2565C99.5754 88.2648 99.4938 88.3389 99.4448 88.4873C99.3876 88.6769 99.3223 88.8664 99.2488 89.0478C99.0202 89.6577 98.7915 90.2676 98.5465 90.8775C98.4649 91.0836 98.4567 91.2731 98.4975 91.4874C98.6037 92.0561 98.7589 92.6084 99.0447 93.1111C99.208 93.3914 99.3958 93.6469 99.6571 93.8447C99.9674 94.0755 100.31 94.2073 100.686 94.2485C101.298 94.3227 101.886 94.1991 102.458 93.9848C102.972 93.787 103.454 93.5232 103.92 93.2348C104.597 92.8062 105.226 92.3034 105.831 91.7677C105.986 91.6276 106.149 91.4957 106.296 91.3391C106.418 91.2072 106.557 91.1495 106.737 91.1825C106.753 91.1825 106.778 91.1825 106.819 91.166H106.794ZM99.3305 82.6024C99.2651 82.5283 99.2243 82.4788 99.1835 82.4293C98.8813 82.1161 98.5465 81.8524 98.1954 81.6051C96.3744 80.3606 94.3982 79.5364 92.1853 79.3633C91.6463 79.3221 91.1074 79.3715 90.5929 79.5364C90.2908 79.6353 89.9968 79.7671 89.7682 79.9979C89.221 80.5501 89.0496 81.226 89.1884 81.9843C89.3027 82.5942 89.6048 83.1217 89.9478 83.6245C90.3071 84.1519 90.7236 84.6382 91.1645 85.108C91.924 85.9075 92.6834 86.707 93.4428 87.5065C93.5816 87.6466 93.7205 87.7867 93.8593 87.9268C94.0634 87.9268 94.2758 87.9186 94.4799 87.9104C94.5126 87.9104 94.5452 87.9104 94.5779 87.9021C95.0515 87.8609 95.517 87.8197 95.9906 87.7867C96.4152 87.7538 96.848 87.729 97.2727 87.7043C97.3298 87.7043 97.3788 87.6878 97.436 87.6796C97.5993 87.6713 97.6891 87.5642 97.7463 87.4241C97.7708 87.3581 97.7789 87.2922 97.7953 87.2345C97.8524 86.9378 97.9014 86.6493 97.9504 86.3526C97.9586 86.3031 97.9913 86.2454 97.9259 86.1878C97.8606 86.1878 97.7871 86.1878 97.7136 86.1878C97.3625 86.2125 97.0113 86.2454 96.6684 86.2702C96.0886 86.3031 95.5088 86.2702 94.929 86.1795C94.8474 86.1713 94.7575 86.1301 94.6922 86.0806C94.5044 85.9323 94.5126 85.6932 94.7004 85.5449C94.8065 85.4624 94.9209 85.4707 95.0434 85.4789C95.4761 85.5201 95.9171 85.5696 96.3499 85.5696C96.7255 85.5696 97.093 85.5449 97.4686 85.5037C97.7054 85.4707 97.9504 85.4789 98.1546 85.3635C98.2934 84.9267 98.424 84.4981 98.5629 84.086C98.7017 83.6739 98.8732 83.2865 99.1181 82.9239C99.1835 82.825 99.257 82.7261 99.3468 82.6107L99.3305 82.6024ZM99.5673 85.6932C99.2815 85.8004 99.0528 85.8828 98.816 85.9652C98.7833 85.9735 98.7589 85.9982 98.7344 86.0064C98.6119 86.4103 98.4894 87.0944 98.4894 87.3664C98.4894 87.4323 98.5057 87.49 98.522 87.5724C98.6282 87.5724 98.7262 87.5724 98.8242 87.5724C98.9303 87.5724 99.0038 87.5065 99.0447 87.3993C99.061 87.3581 99.0773 87.3169 99.0937 87.2757C99.2406 86.8142 99.3876 86.3526 99.5346 85.891C99.5509 85.8416 99.5509 85.7839 99.5754 85.6767L99.5673 85.6932ZM99.7796 83.1959C99.6081 83.3525 99.5509 83.4349 99.3876 83.8388C99.11 84.4981 98.9875 84.8937 99.0038 85.1328C99.061 85.1163 99.11 85.108 99.159 85.0833C99.3223 84.9844 99.4775 84.8937 99.6326 84.7866C99.7796 84.6877 99.9102 84.5558 99.9511 84.3745C100.016 84.1107 100.098 83.8387 99.9919 83.5585C99.9429 83.4266 99.9021 83.2865 99.7878 83.1959H99.7796ZM98.2281 88.9818C98.2444 89.1137 98.2526 89.2291 98.2689 89.3362C98.2771 89.3939 98.3587 89.4104 98.3995 89.3692C98.4159 89.3527 98.4322 89.3445 98.4485 89.3198C98.62 89.056 98.7099 88.7593 98.7589 88.4543C98.7752 88.3389 98.7017 88.2648 98.5874 88.2565C98.4485 88.2565 98.3424 88.3142 98.3097 88.4461C98.2689 88.6274 98.2444 88.817 98.2199 88.9818H98.2281ZM117.949 89.5753C117.687 89.7484 117.606 89.9626 117.549 90.1852C117.516 90.3253 117.532 90.416 117.606 90.5643C117.769 90.2676 117.867 89.9626 117.941 89.5753H117.949Z" fill="#DCBC95"/>
<path d="M70.3741 91.0508C70.7253 90.7788 71.0274 90.5398 71.3459 90.3172C71.6562 90.1029 71.9991 89.9463 72.3748 89.8886C72.5218 89.8639 72.6769 89.8474 72.8321 89.8557C73.4853 89.8886 73.7956 90.5562 73.6977 90.9931C73.616 91.3392 73.4527 91.603 73.175 91.809C72.7177 92.1387 72.2115 92.3778 71.6562 92.5014C71.305 92.5756 70.9457 92.6168 70.5783 92.6085C70.5374 92.6085 70.4884 92.6085 70.4476 92.6085C70.3333 92.6168 70.2761 92.691 70.2843 92.8146C70.3006 93.0618 70.3741 93.3009 70.5701 93.4657C70.6844 93.5646 70.8151 93.6635 70.9457 93.7295C71.6725 94.0839 72.4483 94.2817 73.2567 94.3064C74.6776 94.3559 76.0168 94.0179 77.3233 93.474C78.4666 92.9959 79.5363 92.3942 80.5325 91.6607C80.655 91.57 80.7775 91.4711 80.9082 91.3969C81.0633 91.298 81.2348 91.3392 81.3491 91.4876C81.4635 91.636 81.4553 91.8008 81.3246 91.9409C81.2838 91.9821 81.243 92.0151 81.2021 92.0481C79.8384 93.0783 78.3686 93.9025 76.7599 94.463C76.1393 94.6773 75.5023 94.8421 74.849 94.9328C73.5017 95.1224 72.1788 95.0317 70.9049 94.496C70.7008 94.4136 70.5129 94.2982 70.3251 94.191C70.0801 94.0427 69.9087 93.8366 69.778 93.5811C69.6718 93.375 69.5984 93.1525 69.6065 92.9135C69.6065 92.7981 69.6065 92.6745 69.6065 92.5343C69.4922 92.5591 69.4269 92.625 69.3615 92.6745C68.8063 93.1278 68.2183 93.5316 67.5977 93.8943C66.7484 94.3971 65.8665 94.8009 64.8948 94.9905C64.3803 95.0894 63.8495 95.1389 63.3269 95.0317C62.7798 94.9246 62.3307 94.6443 61.955 94.2322C61.7672 94.0262 61.6447 93.7789 61.5876 93.4987C61.5794 93.441 61.5712 93.3915 61.5549 93.3338C61.4814 93.1113 61.2364 93.0289 61.0568 93.1772C60.9833 93.2432 60.918 93.3174 60.8445 93.3833C60.5587 93.6553 60.2647 93.919 59.9299 94.1333C59.7094 94.2734 59.4644 94.3888 59.2113 94.4465C58.607 94.5866 58.1089 94.1993 58.1007 93.5729C58.1007 93.3256 58.1416 93.0866 58.2069 92.8558C58.2232 92.7981 58.2314 92.7322 58.2477 92.6333C58.166 92.6497 58.1171 92.658 58.0762 92.6827C57.9537 92.7322 57.8312 92.7816 57.7088 92.8311C56.737 93.1855 55.7898 93.136 54.8752 92.6415C54.8098 92.6085 54.7364 92.5673 54.671 92.5343C54.4261 92.386 54.0259 92.4025 53.7973 92.6662C53.5196 92.9794 53.2502 93.3009 52.9725 93.6141C52.9399 93.647 52.9235 93.6882 52.8909 93.7212C52.6295 94.0262 52.4662 94.3806 52.3682 94.7762C52.1478 95.7158 51.813 96.6142 51.4537 97.5126C50.98 98.6912 50.4982 99.8698 50.0164 101.04C49.9838 101.114 49.9593 101.189 49.9185 101.246C49.8368 101.378 49.6816 101.436 49.5428 101.395C49.3877 101.345 49.2652 101.172 49.2815 101.015C49.2815 100.974 49.2978 100.933 49.3142 100.884C49.6571 99.4742 50.0246 98.0731 50.5146 96.7131C50.8412 95.8147 51.225 94.9493 51.7313 94.1416C51.8293 93.985 51.8864 93.8284 51.9109 93.647C51.9436 93.3833 51.9844 93.1195 52.0171 92.8558C52.0171 92.8146 52.0089 92.7734 51.9926 92.7074C51.9354 92.7322 51.8864 92.7404 51.8701 92.7734C51.7885 92.897 51.7231 93.0206 51.6496 93.1443C51.4292 93.5152 51.1923 93.8778 50.882 94.1745C50.7432 94.3064 50.5962 94.4136 50.4247 94.4877C49.8368 94.7432 49.2897 94.463 49.0692 93.9355C49.0039 93.7789 49.0039 93.6141 49.0365 93.4492C49.0529 93.375 49.061 93.3009 49.0855 93.1855C48.963 93.2679 48.8651 93.3256 48.7834 93.3915C48.3016 93.7377 47.8035 94.0591 47.2645 94.3229C46.7174 94.5949 46.1621 94.8174 45.566 94.9411C44.8229 95.0894 44.088 95.1059 43.3612 94.8586C42.9856 94.7268 42.6426 94.5372 42.3241 94.2982C41.924 94.0015 41.728 93.6058 41.6545 93.1195C41.6464 93.0454 41.6382 92.9712 41.63 92.8723C41.483 92.9382 41.3932 93.0289 41.2871 93.1113C40.6256 93.6306 39.9234 94.0756 39.1394 94.3888C38.6168 94.6031 38.0697 94.735 37.5144 94.768C36.657 94.8092 35.8894 94.5619 35.2361 93.9932C34.934 93.7295 34.6645 93.441 34.4603 93.0948C34.3542 92.9217 34.2399 92.7651 34.1337 92.592C33.9867 92.3695 33.7989 92.3036 33.5376 92.3613C33.2436 92.4272 32.9823 92.5591 32.7292 92.7157C32.3209 92.9629 31.9697 93.2761 31.6349 93.6141C31.341 93.9108 31.0633 94.224 30.7775 94.5372C30.7122 94.6114 30.6469 94.6855 30.5734 94.7515C30.4672 94.8504 30.3447 94.8669 30.2059 94.8009C30.0589 94.7268 29.9854 94.6114 30.0018 94.4548C30.0181 94.3476 30.0426 94.2405 30.0671 94.1333C30.2631 93.2679 30.459 92.4107 30.655 91.5453C30.6714 91.4711 30.6877 91.3969 30.7204 91.3228C30.7938 91.1662 30.9408 91.1002 31.1042 91.1332C31.2593 91.1662 31.3736 91.298 31.3736 91.4629C31.3736 91.5371 31.3573 91.6195 31.341 91.6937C31.2593 92.0646 31.1776 92.4272 31.096 92.7899C31.0878 92.8311 31.0797 92.8723 31.0797 92.9217C31.0797 92.9712 31.1531 93.0206 31.2021 93.0041C31.2675 92.9712 31.3328 92.9217 31.39 92.8805C31.5859 92.7157 31.7738 92.5426 31.9697 92.386C32.3045 92.114 32.672 91.8832 33.0803 91.7431C33.2518 91.6854 33.4396 91.636 33.6274 91.6195C34.0031 91.5865 34.3215 91.7184 34.5665 92.0151C34.738 92.2294 34.8931 92.4602 35.0483 92.691C35.2769 93.0454 35.5546 93.3586 35.8976 93.6058C36.4447 94.0014 37.0571 94.1086 37.7104 94.0344C38.5107 93.9438 39.2374 93.647 39.9152 93.2267C40.5521 92.8311 41.1482 92.3778 41.679 91.842C41.8097 91.7101 41.8995 91.5783 41.9648 91.4052C42.0138 91.2733 42.0628 91.1332 42.1363 91.0096C42.2833 90.7788 42.61 90.8035 42.7324 91.0343C42.7814 91.1167 42.7896 91.1991 42.7569 91.2898C42.7243 91.3722 42.6834 91.4546 42.6508 91.5371C42.5038 91.9079 42.3731 92.2871 42.365 92.691C42.365 92.8146 42.365 92.9382 42.3731 93.0536C42.3976 93.3338 42.5201 93.5646 42.7406 93.7295C43.1734 94.0591 43.647 94.2652 44.186 94.3146C44.6433 94.3559 45.1006 94.3229 45.5579 94.2075C46.3581 94.0015 47.0849 93.6553 47.779 93.2184C48.5874 92.7074 49.3468 92.1222 50.0246 91.4382C50.0818 91.3805 50.1308 91.3063 50.1961 91.2815C50.4247 91.1991 50.5554 91.0013 50.7269 90.853C50.9637 90.6552 51.2005 90.4573 51.4455 90.2678C51.5761 90.1689 51.7313 90.0947 51.8783 90.0287C52.0253 89.9628 52.1968 90.0287 52.2784 90.1524C52.3601 90.276 52.3437 90.4738 52.2294 90.581C52.1641 90.6387 52.0906 90.6881 52.0171 90.7376C51.764 90.9271 51.5026 91.1167 51.2577 91.3228C50.6126 91.875 50.1471 92.5673 49.8123 93.3503C49.7796 93.4163 49.7551 93.4987 49.747 93.5729C49.7306 93.7295 49.845 93.8613 50.0001 93.8531C50.0818 93.8531 50.1798 93.8284 50.2451 93.7789C50.3676 93.6882 50.4901 93.5893 50.5881 93.474C50.7432 93.2761 50.8902 93.0701 51.0209 92.8476C51.3148 92.3283 51.5925 91.8008 51.7966 91.2321C51.813 91.1826 51.8375 91.1249 51.8538 91.0755C51.9109 90.9519 52.0089 90.8859 52.1396 90.8777C52.2784 90.8694 52.4009 90.9271 52.4662 91.059C52.5397 91.2156 52.5887 91.3887 52.6459 91.5535C52.6785 91.6442 52.6867 91.7514 52.7112 91.842C52.7929 92.1222 53.095 92.2459 53.34 92.0975C53.4053 92.0563 53.4543 91.9986 53.5196 91.9492C53.6095 91.8667 53.6993 91.7843 53.7973 91.7101C54.0749 91.5123 54.3689 91.5041 54.6629 91.6689C54.7527 91.7184 54.8262 91.7843 54.9078 91.8338C55.9939 92.5591 57.5699 92.4931 58.6152 91.4958C58.7622 91.3475 58.9091 91.2074 59.0153 91.0178C59.1133 90.8447 59.2848 90.8035 59.4399 90.8859C59.5951 90.9683 59.6686 91.1249 59.6277 91.3063C59.6196 91.3557 59.5869 91.4134 59.5624 91.4629C59.5298 91.5288 59.4889 91.5948 59.4481 91.6689C59.2031 92.1387 58.9826 92.625 58.8683 93.1443C58.8357 93.2926 58.8275 93.4492 58.8275 93.6058C58.8275 93.7047 58.901 93.7624 58.999 93.7707C59.1623 93.7789 59.3093 93.7212 59.4318 93.6306C59.6686 93.4657 59.9054 93.3009 60.1177 93.1113C60.7465 92.5426 61.2854 91.8832 61.7754 91.1826C61.8244 91.1085 61.8734 91.0343 61.9305 90.9684C62.0367 90.8447 62.2082 90.8118 62.347 90.8777C62.4777 90.9436 62.5512 91.0673 62.5348 91.2321C62.5348 91.3063 62.5022 91.3805 62.4777 91.4546C62.3388 91.9574 62.2327 92.4684 62.2572 92.9959C62.2653 93.1525 62.2898 93.3009 62.3307 93.4492C62.3715 93.6141 62.4613 93.7542 62.5838 93.8696C62.9268 94.1663 63.3187 94.3476 63.776 94.3723C64.4375 94.4053 65.0663 94.2734 65.6787 94.0427C66.8628 93.5976 67.9243 92.93 68.9124 92.147C69.2554 91.875 69.582 91.57 69.9005 91.2733C70.0638 91.1167 70.219 91.0013 70.4231 91.059L70.3741 91.0508ZM70.7008 91.9574C70.9212 91.9986 71.0927 91.9739 71.2642 91.9244C71.6398 91.8173 72.0073 91.6689 72.3584 91.4876C72.5136 91.4052 72.6606 91.3063 72.7912 91.1991C72.8729 91.1332 72.9382 91.0343 72.979 90.9354C73.0607 90.7541 72.9464 90.5727 72.7422 90.5645C72.6034 90.5645 72.4564 90.5645 72.3176 90.6057C71.6725 90.8117 71.1499 91.1991 70.7579 91.7513C70.7253 91.8008 70.7171 91.8667 70.6926 91.9574H70.7008Z" fill="#DCBC95"/>
<path d="M27.2089 91.71C27.2089 91.537 27.2089 91.3556 27.2089 91.1825C27.2089 91.1166 27.2089 91.0507 27.2089 90.9847C27.2089 90.9106 27.1681 90.8611 27.0946 90.8446C27.0293 90.8281 26.9558 90.8364 26.915 90.8941C26.8578 90.96 26.817 91.0424 26.768 91.1166C26.425 91.71 26.033 92.2705 25.5839 92.7898C24.7102 93.8118 23.6649 94.5701 22.3584 94.9245C21.7378 95.0893 21.109 95.1635 20.472 95.1552C20.1536 95.1552 19.8433 95.0976 19.533 94.9986C18.6592 94.7267 18.1692 94.1167 17.9733 93.2348C17.8753 92.7733 17.8834 92.3117 17.9406 91.8502C18.0386 90.9683 18.2591 90.1111 18.5285 89.2704C18.9368 88.0176 19.3696 86.7812 19.7943 85.5284C20.0066 84.8938 20.2271 84.2509 20.374 83.5915C20.4475 83.2536 20.4965 82.9157 20.4884 82.5695C20.4884 82.4953 20.4884 82.4129 20.472 82.3387C20.423 82.0008 20.2761 81.8689 19.9413 81.803C19.2798 81.6794 18.6265 81.77 17.9896 81.9678C16.683 82.3635 15.5806 83.0805 14.7069 84.1438C14.2496 84.696 13.9148 85.3142 13.7923 86.0312C13.678 86.6823 13.727 87.3087 14.021 87.9104C14.2823 88.4462 14.6742 88.8748 15.1234 89.2621C15.205 89.3363 15.2948 89.394 15.3765 89.4764C15.4908 89.5918 15.499 89.7814 15.4173 89.905C15.3193 90.0451 15.1315 90.1028 14.9764 90.0286C14.9355 90.0122 14.9029 89.9874 14.8702 89.9545C14.2823 89.4929 13.776 88.9654 13.4412 88.2896C12.9512 87.3087 12.9022 86.3032 13.2779 85.2647C13.5882 84.424 14.0781 83.7152 14.7151 83.1053C15.5725 82.2893 16.5606 81.6876 17.6875 81.325C18.1692 81.1684 18.6674 81.0777 19.1737 81.053C19.5493 81.0282 19.9168 81.0777 20.2842 81.1684C20.668 81.259 20.913 81.5145 21.06 81.8689C21.1498 82.075 21.1906 82.2893 21.1988 82.5118C21.2151 82.9734 21.1253 83.4185 21.0273 83.8553C20.864 84.5888 20.6027 85.2977 20.3659 86.0065C19.9821 87.1604 19.582 88.306 19.1982 89.4599C18.994 90.0781 18.8389 90.7127 18.7164 91.3556C18.6265 91.8254 18.5939 92.3035 18.6265 92.7733C18.6347 92.9464 18.6755 93.1277 18.7245 93.2925C18.9042 93.9272 19.3615 94.2486 19.9821 94.364C20.7007 94.4959 21.403 94.4217 22.0971 94.2486C23.2485 93.9519 24.1875 93.309 24.9715 92.4189C25.8207 91.4545 26.425 90.3418 26.9231 89.1632C27.4376 87.9351 27.8295 86.6741 28.1643 85.3883C28.4093 84.4487 28.6461 83.5009 28.8993 82.5613C28.9728 82.2728 29.0708 81.9926 29.1688 81.7123C29.2259 81.5475 29.3076 81.3827 29.3974 81.2343C29.4872 81.0859 29.6016 81.0612 29.7649 81.1272C29.9364 81.1931 30.0098 81.3002 29.9853 81.4486C29.969 81.5722 29.9364 81.6876 29.9037 81.803C29.6914 82.5613 29.4791 83.3113 29.2667 84.0696C28.8584 85.5284 28.5155 87.0038 28.246 88.4956C28.1072 89.2539 28.001 90.0204 27.9439 90.7952C27.9112 91.2402 27.8867 91.6771 27.903 92.1221C27.9194 92.493 27.9684 92.8722 28.0337 93.2431C28.099 93.6305 28.2705 93.9766 28.5563 94.2569C28.6135 94.3063 28.6625 94.3722 28.687 94.4464C28.7278 94.5783 28.6951 94.7102 28.5808 94.8091C28.4583 94.908 28.3195 94.9245 28.1807 94.842C27.9765 94.7184 27.8214 94.5453 27.6989 94.3475C27.5437 94.1003 27.4376 93.8365 27.3641 93.5563C27.2089 92.9546 27.1599 92.3364 27.1844 91.71H27.2089Z" fill="#DCBC95"/>
<path d="M20.7742 106.191C21.2152 106.191 21.6317 106.191 22.0481 106.191C22.1788 106.191 22.3094 106.224 22.4319 106.266C23.0607 106.48 23.2893 107.255 22.8729 107.782C22.8157 107.856 22.7422 107.93 22.6769 108.005C22.7422 108.038 22.7912 108.062 22.832 108.095C23.273 108.359 23.4772 108.895 23.3302 109.389C23.2403 109.694 23.0607 109.917 22.783 110.065C22.6197 110.156 22.4401 110.205 22.2523 110.23C22.0644 110.255 21.0029 110.247 20.7742 110.222C20.7742 110.214 20.7579 110.205 20.7497 110.197C20.7497 110.189 20.7334 110.181 20.7334 110.172C20.7334 108.887 20.7334 107.601 20.7334 106.323C20.7334 106.29 20.7497 106.257 20.7661 106.2L20.7742 106.191ZM21.1907 109.851C21.4602 109.851 21.7133 109.851 21.9583 109.851C22.0481 109.851 22.1298 109.851 22.2196 109.851C22.2441 109.851 22.2604 109.851 22.2849 109.851C22.6769 109.785 22.9545 109.472 22.9627 109.076C22.9709 108.697 22.7177 108.384 22.3258 108.301C22.2523 108.285 22.1706 108.277 22.0971 108.277C21.844 108.277 21.5908 108.277 21.3377 108.277C21.2887 108.277 21.2315 108.285 21.1907 108.293C21.1417 108.557 21.1335 109.513 21.1907 109.859V109.851ZM21.158 107.856C21.2887 107.856 21.3703 107.856 21.4602 107.856C21.6561 107.856 21.8521 107.856 22.0481 107.856C22.1543 107.856 22.2604 107.815 22.3584 107.774C22.5054 107.708 22.5952 107.584 22.6361 107.428C22.7422 107.007 22.5544 106.711 22.1379 106.62C22.0563 106.604 21.9665 106.604 21.8766 106.595C21.7051 106.595 21.5255 106.595 21.354 106.595C21.2968 106.595 21.2315 106.612 21.158 106.62C21.1417 107.032 21.1417 107.428 21.158 107.865V107.856Z" fill="white"/>
<path d="M34.8278 107.345C34.7707 108.318 34.7707 109.266 34.7625 110.23C34.6727 110.23 34.6074 110.247 34.5502 110.247C34.5012 110.247 34.444 110.247 34.3787 110.23C34.3787 110.164 34.3624 110.115 34.3624 110.057C34.3379 108.986 34.3542 106.381 34.3869 106.076C34.4767 106.051 34.493 106.126 34.5257 106.175C34.8442 106.628 35.1626 107.082 35.4729 107.527C35.7669 107.939 36.0527 108.359 36.3467 108.78C36.412 108.87 36.4774 108.961 36.5345 109.043C36.6407 109.019 36.6162 108.936 36.6162 108.879C36.6162 108.104 36.6162 107.329 36.6162 106.554C36.6162 106.447 36.6162 106.332 36.6162 106.225C36.7468 106.142 36.8693 106.192 37 106.175C37.0081 106.266 37.0326 106.34 37.0326 106.406C37.0326 107.692 37.0326 108.977 37.0326 110.263C37.0326 110.296 37.0245 110.321 37.0163 110.354C36.9183 110.387 36.902 110.296 36.8693 110.255C36.2487 109.373 35.6281 108.483 35.0075 107.593C34.9422 107.502 34.8768 107.42 34.8197 107.329L34.8278 107.345Z" fill="white"/>
<path d="M60.0686 110.222C59.9951 110.238 59.9706 110.247 59.9379 110.255C59.8155 110.255 59.7011 110.255 59.5623 110.255C59.1704 109.727 58.7784 109.192 58.3864 108.664H57.9128C57.8638 108.936 57.8965 109.2 57.8883 109.464C57.8883 109.719 57.8883 109.966 57.8883 110.238C57.7576 110.271 57.6433 110.263 57.5372 110.255C57.5208 110.238 57.5127 110.23 57.5045 110.214C57.5045 110.205 57.4963 110.197 57.4963 110.181C57.4963 108.895 57.4963 107.617 57.4963 106.332C57.4963 106.299 57.5045 106.266 57.5208 106.216C57.578 106.216 57.6433 106.2 57.7086 106.2C58.0598 106.2 58.4109 106.2 58.7621 106.2C58.9009 106.2 59.0479 106.216 59.1867 106.257C59.7175 106.406 60.0604 106.859 60.0768 107.403C60.0849 107.939 59.7501 108.417 59.2357 108.59C59.1867 108.606 59.1295 108.615 59.0724 108.631C59.0315 108.639 58.9989 108.664 58.9417 108.689C59.1214 108.969 59.3255 109.208 59.5215 109.464C59.7093 109.719 59.9134 109.958 60.1013 110.238L60.0686 110.222ZM57.8801 108.219C57.9536 108.236 57.9863 108.244 58.019 108.244C58.2884 108.244 58.5661 108.244 58.8356 108.244C59.1949 108.244 59.6195 107.972 59.6276 107.403C59.6276 106.834 59.2193 106.562 58.8437 106.579C58.5906 106.579 58.3374 106.579 58.0924 106.579C58.0271 106.579 57.97 106.587 57.8883 106.595C57.8801 107.139 57.8883 107.667 57.8883 108.211L57.8801 108.219Z" fill="white"/>
<path d="M7.31667 107.395C7.19418 107.444 7.06353 107.42 6.92471 107.411C6.86754 107.337 6.81038 107.255 6.75322 107.172C6.32043 106.637 5.75698 106.455 5.1037 106.604C4.49943 106.744 4.01764 107.321 3.93598 107.947C3.86248 108.442 3.96864 108.895 4.28711 109.282C4.95672 110.09 6.12445 110.074 6.76139 109.241C6.81855 109.175 6.85938 109.101 6.92471 109.019H7.333C7.31667 109.076 7.31667 109.134 7.29217 109.175C6.91654 109.95 6.05095 110.412 5.22619 110.288C4.39327 110.164 3.691 109.488 3.53585 108.648C3.38886 107.84 3.60934 107.156 4.22178 106.612C5.25886 105.689 6.79405 106.142 7.30851 107.312C7.30851 107.329 7.30851 107.354 7.30851 107.395H7.31667Z" fill="white"/>
<path d="M42.4956 106.2H44.8228C44.8718 106.373 44.8718 106.373 44.8228 106.571C44.1941 106.579 43.5653 106.571 42.9202 106.579C42.8712 106.744 42.8957 106.9 42.8957 107.049C42.8957 107.205 42.8957 107.362 42.8957 107.51C42.8957 107.667 42.8957 107.815 42.8957 107.988C42.9855 108.005 43.059 108.021 43.1325 108.021C43.5816 108.021 44.0308 108.021 44.4799 108.021C44.5779 108.021 44.6759 108.021 44.7739 108.03C44.8392 108.145 44.8228 108.252 44.7902 108.376C44.733 108.384 44.6677 108.4 44.6024 108.4C44.1532 108.4 43.7041 108.4 43.255 108.4C43.1488 108.4 43.0427 108.409 42.9365 108.417C42.8712 108.656 42.863 109.422 42.912 109.826C43.1162 109.884 43.3203 109.843 43.5245 109.851C43.7449 109.851 43.9654 109.851 44.1859 109.851H44.8065C44.8882 109.975 44.8555 110.09 44.8473 110.189C44.8228 110.214 44.8147 110.222 44.8065 110.222C44.7983 110.222 44.782 110.222 44.7739 110.222C44.0634 110.222 43.3448 110.222 42.6344 110.222C42.5935 110.222 42.5527 110.214 42.4874 110.205C42.4792 110.148 42.4629 110.098 42.4629 110.049C42.4629 108.813 42.4629 107.568 42.4629 106.332C42.4629 106.29 42.4711 106.249 42.4792 106.175L42.4956 106.2Z" fill="white"/>
<path d="M15.6787 110.214C15.5317 110.28 15.401 110.23 15.2622 110.263C15.1152 109.884 14.9682 109.53 14.8376 109.183C14.5844 109.134 13.482 109.126 13.0656 109.167C12.8777 109.497 12.7879 109.876 12.6164 110.23C12.5511 110.23 12.4776 110.247 12.4041 110.247C12.3388 110.247 12.2816 110.238 12.2163 110.23C12.3143 109.892 13.8087 106.224 13.9475 105.994C13.972 106.035 14.0046 106.068 14.021 106.101C14.5763 107.469 15.1397 108.837 15.6868 110.214H15.6787ZM13.9312 106.892C13.6862 107.527 13.4657 108.087 13.2452 108.656C13.237 108.681 13.2452 108.722 13.2452 108.747C13.6372 108.788 14.3803 108.779 14.6253 108.722C14.6171 108.672 14.6089 108.615 14.5844 108.573C14.3639 108.038 14.1761 107.485 13.9148 106.892H13.9312Z" fill="white"/>
<path d="M65.3848 106.183C65.589 106.48 65.7931 106.769 65.9891 107.057C66.1851 107.337 66.3648 107.626 66.5934 107.914C67.0099 107.337 67.3855 106.769 67.7775 106.216C67.9244 106.167 68.0796 106.2 68.2674 106.192C68.2184 106.282 68.1939 106.356 68.1531 106.414C67.7693 106.966 67.3855 107.519 66.9854 108.054C66.8384 108.252 66.7812 108.45 66.7894 108.697C66.8057 109.109 66.7894 109.513 66.7894 109.925C66.7894 110.024 66.7894 110.123 66.7812 110.222C66.6506 110.271 66.5362 110.255 66.4056 110.238C66.3974 110.164 66.3811 110.09 66.3811 110.016C66.3811 109.538 66.3811 109.068 66.3811 108.59C66.3811 108.417 66.3403 108.277 66.2341 108.128C65.834 107.576 65.442 107.016 65.0419 106.464C64.9929 106.398 64.952 106.323 64.8867 106.225C65.0664 106.175 65.2134 106.208 65.3685 106.192L65.3848 106.183Z" fill="white"/>
<path d="M50.9473 106.579C50.6288 106.546 50.3267 106.579 50.0245 106.554C49.9592 106.439 49.9755 106.332 50 106.208C50.2613 106.158 50.5226 106.191 50.7758 106.183C51.0289 106.183 51.2821 106.183 51.5352 106.183C51.7965 106.183 52.0578 106.183 52.3273 106.183C52.36 106.307 52.3681 106.414 52.3191 106.529C52.0252 106.612 51.7149 106.529 51.3882 106.587C51.3882 106.702 51.3719 106.801 51.3719 106.908C51.3719 107.889 51.3719 108.878 51.3719 109.859C51.3719 109.966 51.3719 110.082 51.3719 110.197C51.2412 110.255 51.1269 110.23 51.0126 110.222C50.9309 110.131 50.9636 110.024 50.9636 109.933C50.9636 108.928 50.9636 107.922 50.9636 106.917C50.9636 106.81 50.9636 106.702 50.9473 106.571V106.579Z" fill="white"/>
<path d="M28.8831 110.238H28.5238C28.5156 110.181 28.4993 110.131 28.4993 110.082C28.4993 108.845 28.4993 107.601 28.4993 106.364C28.4993 106.323 28.4993 106.282 28.5156 106.224C28.6299 106.167 28.7442 106.191 28.8749 106.2C28.8831 106.249 28.9076 106.29 28.9076 106.323C28.9076 107.584 28.9076 108.845 28.9076 110.106C28.9076 110.139 28.8994 110.172 28.8831 110.238Z" fill="white"/>
<path d="M41.9157 90.1853C41.6381 90.1853 41.4829 89.9051 41.5972 89.6826C41.6217 89.6331 41.6544 89.5837 41.7034 89.5589C41.9974 89.4023 42.2424 89.1798 42.4955 88.9738C42.667 88.8336 42.8875 88.9078 42.9936 89.0974C43.0671 89.2293 43.0589 89.3529 42.961 89.4683C42.7078 89.7568 42.3975 89.9793 42.0464 90.1524C41.9974 90.1771 41.9402 90.1771 41.9157 90.1853Z" fill="#DCBC95"/>
</svg>
