<svg width="68" height="65" viewBox="0 0 68 65" fill="none" xmlns="http://www.w3.org/2000/svg">
<path d="M50.845 64.9656C49.9957 64.9142 49.1507 64.8284 48.3142 64.687C47.1295 64.4856 45.9745 64.1856 44.862 63.7227C43.4692 63.1398 42.2633 62.2912 41.2357 61.1811C40.6412 60.5383 40.1529 59.8182 39.8047 59.0039C39.5371 58.3824 39.3715 57.7353 39.2994 57.0581C39.2526 56.6081 39.2484 56.1623 39.2781 55.7123C39.3163 55.1637 39.4267 54.6323 39.6433 54.1223C39.8896 53.5308 40.259 53.0379 40.7601 52.6393C41.0191 52.4336 41.2994 52.2536 41.5966 52.1036C41.6688 52.065 41.7452 52.0479 41.8259 52.0479C42.6454 52.0479 43.4692 52.0479 44.2887 52.0479C44.3312 52.0479 44.3779 52.0565 44.4289 52.0565C44.4331 52.1122 44.4374 52.155 44.4416 52.1979C44.4671 52.7508 44.4841 53.3036 44.5223 53.8522C44.6115 55.0866 44.7728 56.3124 45.0658 57.5167C45.2781 58.3953 45.5584 59.2525 45.9533 60.0668C46.3694 60.924 46.9087 61.6869 47.6008 62.3426C48.4543 63.1527 49.448 63.7013 50.5732 64.0227C51.0531 64.1598 51.5371 64.2498 52.034 64.3056C52.6157 64.3741 53.1932 64.387 53.7749 64.3656C54.8408 64.3227 55.8853 64.1513 56.8917 63.787C57.8556 63.4355 58.7304 62.9255 59.5032 62.244C60.3991 61.464 61.0403 60.504 61.465 59.3939C61.6943 58.7896 61.8514 58.1681 61.9533 57.5295C62.0807 56.7324 62.1274 55.9266 62.1061 55.1209C62.0849 54.3237 62.0042 53.5351 61.8089 52.7636C61.7622 52.5793 61.7028 52.3993 61.6518 52.215C61.6391 52.1679 61.6221 52.1165 61.6093 52.0693C61.656 52.035 61.7028 52.0479 61.7452 52.0479C62.2081 52.0479 62.6709 52.0479 63.1295 52.0479C64.6921 52.0479 66.2548 52.0479 67.8174 52.0479C67.8811 52.0479 67.9405 52.0436 68.0042 52.0393V52.6608C67.9957 52.6865 67.983 52.7165 67.983 52.7422C67.9788 52.9351 67.9788 53.1279 67.9745 53.3208C67.9745 53.4322 67.9745 53.5394 67.9618 53.6465C67.9023 54.2765 67.8089 54.9023 67.6645 55.5195C67.38 56.7324 66.9257 57.8767 66.2675 58.931C65.363 60.3754 64.1868 61.5454 62.7728 62.4798C61.69 63.1912 60.5223 63.7141 59.2909 64.0998C58.225 64.4341 57.138 64.6527 56.034 64.7984C55.4395 64.8756 54.845 64.927 54.2463 64.9656C53.9703 64.9784 53.6985 64.987 53.4225 64.9999H51.7452C51.6603 64.9913 51.5796 64.9827 51.4947 64.9784C51.2824 64.9699 51.0701 64.9699 50.8577 64.9656H50.845Z" fill="black"/>
<path d="M30.3691 0.0342872C30.3691 0.0342872 30.3691 0.0128577 30.3691 0C34.6621 0 38.9509 0 43.2439 0C43.2439 0.0128577 43.2439 0.0300013 43.2396 0.042859C43.159 0.042859 43.0783 0.0385731 43.0018 0.0385731C38.866 0.0385731 34.7301 0.0385731 30.5942 0.0385731C30.522 0.0385731 30.4456 0.0385731 30.3734 0.0385731L30.3691 0.0342872Z" fill="black"/>
<path d="M-0.000148247 0.651458C-0.000148247 0.450021 -0.000148247 0.244298 -0.000148247 0.0385742C0.063546 0.0385742 0.12724 0.0385742 0.186688 0.0385742C6.39051 0.0385742 12.5943 0.0385742 18.8024 0.0385742C18.8746 0.0385742 18.951 0.047146 19.0232 0.047146V0.621457C18.9765 0.672888 18.9298 0.655744 18.8831 0.655744C18.4202 0.655744 17.9574 0.651458 17.4945 0.655744C16.8873 0.668602 16.2886 0.741462 15.7069 0.925756C15.4266 1.01147 15.1633 1.12719 14.9043 1.26863C14.1952 1.65865 13.7154 2.24153 13.4521 3.0087C13.3204 3.39872 13.244 3.79731 13.2016 4.20447C13.1718 4.50877 13.1676 4.81307 13.1676 5.11737C13.1676 14.2506 13.1676 23.3839 13.1676 32.5171C13.1676 32.9415 13.1676 33.37 13.1846 33.7943C13.2058 34.3815 13.244 34.9687 13.312 35.5516C13.4224 36.5502 13.5965 37.5317 13.8979 38.4917C13.9616 38.7017 14.0381 38.9031 14.1103 39.1132C14.123 39.1432 14.1315 39.1774 14.1357 39.1989C14.1145 39.2417 14.0805 39.2332 14.0551 39.2332C14.0211 39.2332 13.9871 39.2332 13.9531 39.2332C11.8937 39.2332 9.83425 39.2332 7.7748 39.2332H7.59645C7.56248 39.1732 7.52851 39.1132 7.49454 39.0532C7.10389 38.3074 6.8024 37.5274 6.56885 36.7173C6.36928 36.0144 6.22066 35.2987 6.1145 34.5744C5.99985 33.8029 5.93191 33.0315 5.90643 32.2557C5.89369 31.8571 5.8852 31.4628 5.8852 31.0642C5.8852 22.3681 5.8852 13.672 5.8852 4.97593C5.8852 4.66306 5.8852 4.35448 5.84699 4.04589C5.79603 3.57873 5.69412 3.12871 5.50728 2.69583C5.27798 2.17295 4.92554 1.74865 4.4542 1.43149C4.00834 1.13148 3.51578 0.938614 2.99348 0.814323C2.50091 0.698603 2.0041 0.647172 1.49879 0.642886C1.06142 0.642886 0.619809 0.642886 0.182442 0.642886C0.118748 0.642886 0.0550535 0.642886 -0.00439453 0.638601L-0.000148247 0.651458Z" fill="black"/>
<path d="M56.7386 39.2461C56.6792 39.2461 56.6325 39.2461 56.59 39.2461C52.2375 39.2461 47.8809 39.2461 43.5284 39.2461C43.4987 39.2461 43.4732 39.2461 43.4435 39.2461C43.3925 39.2461 43.3543 39.2289 43.3246 39.1904C43.3119 39.1775 43.2991 39.1646 43.2906 39.1518C42.6197 38.436 42.0295 37.6646 41.5369 36.816C41.0316 35.9502 40.6919 35.0202 40.4711 34.043C40.331 33.4344 40.2418 32.8215 40.1908 32.2043C40.1314 31.5186 40.1144 30.8371 40.1399 30.1514C40.1823 29.0071 40.3437 27.8842 40.6749 26.787C41.159 25.1926 41.97 23.7997 43.1463 22.6254C43.9998 21.7767 44.9722 21.0996 46.038 20.5553C47.0401 20.0452 48.0932 19.6767 49.1845 19.4152C49.8894 19.2481 50.6027 19.1238 51.3246 19.0423C51.8172 18.9866 52.314 18.948 52.8065 18.9223C53.4902 18.888 54.1739 18.8838 54.8618 18.9052C55.4477 18.9223 56.0337 18.9609 56.6197 19.0209C57.2567 19.0895 57.8851 19.1795 58.5136 19.3081C59.7917 19.5695 61.0274 19.9681 62.1866 20.5853C63.0146 21.0267 63.7789 21.5539 64.4584 22.201C64.8575 22.5825 65.2142 23.0025 65.5072 23.4697C65.9106 24.1126 66.1611 24.8112 66.2418 25.5655C66.3012 26.1141 66.28 26.6584 66.1356 27.1941C65.9318 27.9613 65.5114 28.5828 64.9127 29.0842C64.3734 29.5342 63.7577 29.8428 63.0911 30.0485C62.6155 30.1943 62.1271 30.2885 61.6303 30.3314C61.3586 30.3528 61.0826 30.3657 60.8108 30.3828C60.7471 30.3828 60.6877 30.3828 60.6155 30.3828C60.6112 30.3357 60.6027 30.2971 60.6027 30.2585C60.5985 29.9457 60.6027 29.6371 60.59 29.3242C60.5688 28.6813 60.5305 28.0342 60.4584 27.3956C60.3564 26.4698 60.2036 25.5483 59.9488 24.6483C59.728 23.8597 59.435 23.1011 59.0231 22.3896C58.5433 21.5624 57.9021 20.8981 57.0741 20.4224C56.556 20.1224 55.9998 19.9167 55.418 19.7838C54.59 19.5909 53.7492 19.5438 52.9 19.5866C52.0634 19.6295 51.2482 19.7752 50.4541 20.0581C49.5666 20.3753 48.7726 20.8467 48.0592 21.4682C47.3628 22.0768 46.8575 22.8182 46.4966 23.6668C46.2503 24.2454 46.0889 24.8497 45.9743 25.4669C45.8384 26.2041 45.7874 26.9498 45.7832 27.6999C45.7789 28.4885 45.8341 29.2771 45.9743 30.0528C46.2078 31.3129 46.6792 32.4658 47.4775 33.473C47.9191 34.0301 48.4201 34.523 48.9679 34.9688C49.4138 35.3288 49.8851 35.6545 50.3734 35.9545C51.5242 36.6617 52.7131 37.2917 53.9233 37.8917C54.7981 38.3246 55.6813 38.7403 56.5773 39.1346C56.6282 39.1561 56.6834 39.1647 56.7344 39.2332L56.7386 39.2461Z" fill="black"/>
<path d="M30.3694 0.0341797C30.4416 0.0341797 30.518 0.0341797 30.5902 0.0341797C34.7261 0.0341797 38.862 0.0341797 42.9979 0.0341797C43.0785 0.0341797 43.1592 0.0341797 43.2357 0.0384656V0.621348C43.1932 0.672779 43.138 0.65135 43.087 0.65135C42.603 0.65135 42.1189 0.65135 41.6306 0.65135C41.1635 0.65135 40.6964 0.694209 40.2378 0.788499C39.8386 0.865645 39.4522 0.989936 39.087 1.16994C38.3142 1.5471 37.7834 2.14284 37.5032 2.96145C37.3715 3.3429 37.2909 3.7372 37.2484 4.14007C37.2059 4.51723 37.2017 4.89868 37.2017 5.28012C37.2017 14.0319 37.2017 22.788 37.2017 31.5398C37.2017 31.9984 37.2017 32.4613 37.1805 32.9199C37.1125 34.4971 36.8492 36.04 36.293 37.5273C36.0934 38.063 35.8599 38.5773 35.5839 39.0788C35.5541 39.1345 35.5202 39.1859 35.4904 39.2373H34.6964C34.6921 39.173 34.7304 39.1345 34.7601 39.0959C35.1677 38.4402 35.4989 37.7458 35.7622 37.0215C36.0382 36.2629 36.2335 35.4829 36.3652 34.6857C36.5223 33.7342 36.5775 32.7785 36.5775 31.8141C36.5775 25.2953 36.5775 18.7764 36.5775 12.2576C36.5775 9.81461 36.5775 7.37593 36.5775 4.93297C36.5775 4.6201 36.5732 4.31151 36.535 4.00293C36.4713 3.50148 36.3524 3.01717 36.1231 2.56715C35.9151 2.15999 35.6306 1.8214 35.2654 1.55139C34.811 1.21709 34.3057 0.998508 33.7664 0.861359C33.2484 0.728496 32.7219 0.668493 32.1911 0.659921C31.6433 0.65135 31.0955 0.659921 30.5478 0.659921C30.4926 0.659921 30.4331 0.659921 30.3822 0.659921C30.3524 0.531344 30.3482 0.205616 30.3737 0.0341797H30.3694Z" fill="black"/>
<path d="M55.5326 47.4063C55.5836 47.3634 55.6388 47.3163 55.6982 47.2691C55.97 47.0505 56.2757 46.9005 56.6112 46.8105C56.6833 46.7891 56.747 46.7977 56.8022 46.8491C56.8999 46.9391 56.8829 47.072 56.7683 47.1363C56.7258 47.162 56.6748 47.1748 56.6239 47.1877C56.2757 47.2905 55.9785 47.4748 55.7279 47.7363C55.5453 47.9249 55.4137 48.1477 55.3118 48.3835C55.2354 48.5506 55.2396 48.7306 55.2736 48.9106C55.2778 48.9406 55.2906 48.9663 55.3033 48.9921C55.3373 49.0692 55.401 49.0863 55.4689 49.0392C55.5114 49.0092 55.5496 48.9749 55.5835 48.9363C55.6557 48.8463 55.7279 48.7606 55.7959 48.6663C56.0337 48.3277 56.229 47.9634 56.4073 47.5906C56.4286 47.5477 56.4455 47.5048 56.4668 47.4663C56.505 47.402 56.5644 47.3677 56.6409 47.3806C56.7131 47.3934 56.7683 47.432 56.7937 47.5048C56.8107 47.552 56.8192 47.6034 56.8277 47.6549C56.8744 47.8906 56.9593 48.1049 57.0782 48.3149C57.2906 48.6963 57.6218 48.8935 58.0464 48.9363C58.3309 48.9663 58.6154 48.9278 58.8914 48.842C59.401 48.6792 59.868 48.422 60.3012 48.1134C60.522 47.9549 60.7385 47.7834 60.9509 47.5948C60.9339 47.5606 60.9169 47.5306 60.8999 47.5048C60.6366 47.0677 60.7768 46.5705 61.1037 46.2876C61.1802 46.2234 61.2693 46.1891 61.3627 46.1591C61.5114 46.1119 61.6855 46.2405 61.7067 46.3905C61.7194 46.4977 61.7152 46.6091 61.6897 46.7162C61.6472 46.8962 61.5836 47.0677 61.5114 47.2391C61.4986 47.2691 61.4816 47.3034 61.4731 47.3334C61.4562 47.3977 61.5114 47.4834 61.5751 47.4834C61.66 47.4834 61.7449 47.4834 61.8298 47.4706C61.9954 47.4448 62.1483 47.3891 62.2969 47.312C62.3819 47.2691 62.471 47.2263 62.5602 47.192C62.7003 47.1405 62.832 47.1791 62.9296 47.2948C62.9848 47.3591 63.0103 47.432 62.9763 47.5177C62.9381 47.6206 62.8999 47.7234 62.8617 47.822C62.8192 47.9292 62.7725 48.032 62.73 48.1392C62.7173 48.1649 62.7131 48.1949 62.7046 48.2206C62.6494 48.4563 62.73 48.6235 62.9509 48.722C63.0443 48.7649 63.1462 48.782 63.2481 48.7906C63.6218 48.8206 63.9869 48.7906 64.3521 48.7092C64.8617 48.602 65.3543 48.4392 65.8171 48.1992C66.1483 48.0277 66.454 47.8177 66.7258 47.5606C66.7683 47.522 66.8065 47.4791 66.8659 47.4706C66.9381 47.462 67.0018 47.4791 67.0443 47.5434C67.0867 47.6034 67.0867 47.6934 67.0443 47.7534C67.0188 47.7834 66.9891 47.8134 66.9636 47.8391C66.7385 48.0534 66.4923 48.2377 66.2247 48.392C65.609 48.7435 64.9509 48.9792 64.2545 49.0992C63.9615 49.1506 63.6642 49.1678 63.367 49.1678C63.1632 49.1678 62.9721 49.1206 62.7852 49.0435C62.6494 48.9878 62.539 48.9021 62.4455 48.7863C62.3054 48.6063 62.2842 48.3963 62.3267 48.182C62.3521 48.0449 62.4031 47.9163 62.4668 47.792C62.488 47.7534 62.5008 47.7106 62.522 47.6549C62.4838 47.6506 62.4583 47.6377 62.4371 47.6463C62.3988 47.6549 62.3649 47.6763 62.3267 47.6934C61.9657 47.8649 61.5963 47.9034 61.2014 47.7877C61.1504 47.9077 61.04 47.9849 60.9424 48.0706C60.5092 48.4306 60.0421 48.7392 59.5326 48.9792C59.2226 49.1249 58.8957 49.2406 58.5559 49.2878C58.0591 49.3606 57.5878 49.2878 57.1717 48.9792C57.0358 48.8806 56.9211 48.7649 56.8235 48.6235C56.798 48.5849 56.7725 48.5463 56.747 48.5077C56.6876 48.4135 56.5092 48.4006 56.4371 48.5077C56.3649 48.6192 56.2842 48.722 56.2035 48.8249C56.0719 48.9921 55.9275 49.1463 55.7492 49.2663C55.6812 49.3092 55.6133 49.3521 55.5411 49.3821C55.2821 49.4806 55.0485 49.3735 54.9466 49.1121C54.8617 48.8849 54.8404 48.6535 54.8999 48.4177C54.9084 48.392 54.9126 48.362 54.9169 48.332C54.9169 48.3277 54.9169 48.3235 54.9041 48.3063C54.8702 48.3235 54.8362 48.3406 54.8065 48.362C54.5729 48.5463 54.3266 48.7135 54.0719 48.8678C53.8468 49.0049 53.609 49.1206 53.367 49.2149C53.0825 49.3264 52.7895 49.3864 52.4838 49.3821C51.9615 49.3692 51.5496 49.1506 51.2566 48.7135C51.0697 48.4392 50.9593 48.1306 50.8872 47.8091C50.8235 47.5391 50.7895 47.2691 50.7725 46.9905C50.7598 46.7248 50.7513 46.4634 50.7725 46.1976C50.7895 45.9919 50.7343 45.9533 50.539 45.9705C50.3691 45.9876 50.1993 46.0005 50.0294 46.0134C49.7959 46.0305 49.5623 46.0434 49.3288 46.0605C49.2651 46.0605 49.2014 46.0605 49.1462 46.0948C49.1462 46.1548 49.1886 46.1891 49.2184 46.2319C49.3585 46.4205 49.4944 46.6134 49.6005 46.8234C49.7237 47.0634 49.8213 47.3163 49.8638 47.5863C49.9148 47.8906 49.8765 48.182 49.7704 48.4692C49.6472 48.7863 49.4095 48.9921 49.1207 49.1506C48.8447 49.3006 48.5475 49.3821 48.246 49.4335C47.9827 49.4806 47.7152 49.5021 47.4434 49.4978C46.8744 49.4892 46.3182 49.3949 45.7959 49.1635C45.5963 49.0735 45.4137 48.9578 45.2608 48.7992C45.0188 48.542 44.9509 48.182 45.0952 47.8563C45.2056 47.6077 45.3755 47.4106 45.5793 47.2348C45.7874 47.0548 46.0124 46.8962 46.2502 46.7548C46.539 46.5791 46.8362 46.4205 47.1462 46.2834C47.1717 46.2705 47.1971 46.2576 47.2226 46.2491C47.3075 46.2191 47.3967 46.2534 47.4392 46.3348C47.4774 46.4034 47.4604 46.4977 47.3925 46.5534C47.3585 46.5791 47.316 46.6005 47.2736 46.6177C46.9551 46.772 46.6366 46.9305 46.3394 47.1234C46.1058 47.2734 45.885 47.432 45.694 47.6334C45.609 47.7191 45.5326 47.8134 45.4774 47.9206C45.4604 47.9506 45.4477 47.9806 45.4349 48.0149C45.35 48.2463 45.401 48.4435 45.5878 48.6063C45.7279 48.7263 45.8893 48.812 46.0591 48.8806C46.3819 49.0092 46.7131 49.0778 47.057 49.1035C47.1547 49.1121 47.2481 49.1249 47.3458 49.1292C47.8171 49.1378 48.2799 49.0949 48.7258 48.9278C48.8405 48.8849 48.9551 48.8249 49.0613 48.7606C49.35 48.5892 49.4816 48.3192 49.5114 47.9892C49.5411 47.6763 49.4562 47.3848 49.3288 47.1063C49.2184 46.8705 49.074 46.6562 48.9211 46.4505C48.8659 46.3777 48.8065 46.3091 48.7513 46.2319C48.7046 46.1719 48.6579 46.1205 48.5814 46.0948C48.522 46.0776 48.488 46.0305 48.4753 45.9705C48.4625 45.8976 48.4201 45.8462 48.3691 45.7991C48.1993 45.6233 48.0252 45.4476 47.8553 45.2676C47.5283 44.9204 47.2014 44.5776 46.8829 44.2218C46.6494 43.9647 46.4498 43.6861 46.2799 43.3861C46.1483 43.1547 46.0591 42.9104 46.0039 42.6446C45.902 42.1518 46.1398 41.4189 46.7385 41.1189C46.9763 40.9988 47.2311 40.9346 47.4944 40.9131C47.9997 40.866 48.4965 40.9431 48.9848 41.0717C49.7322 41.2731 50.4371 41.5774 51.091 42.006C51.4137 42.216 51.7152 42.4475 51.9742 42.7389C51.9997 42.7689 52.0337 42.7989 52.0676 42.8075C52.2587 42.8589 52.3309 43.0132 52.3903 43.1804C52.4031 43.2232 52.4116 43.2704 52.4116 43.3175C52.4031 43.5018 52.4116 43.6861 52.3649 43.8661C52.2672 44.2347 52.161 44.599 52.0591 44.9633C52.0294 45.0747 51.9869 45.1819 51.953 45.289C51.9402 45.3233 51.9275 45.3533 51.9233 45.3876C51.902 45.4648 51.936 45.5076 52.0209 45.5076C52.0846 45.5076 52.1483 45.5033 52.2078 45.499C52.2927 45.4948 52.3776 45.4862 52.4625 45.4819C52.8574 45.4605 53.2481 45.439 53.643 45.4219C53.8468 45.4133 54.0549 45.4133 54.2587 45.409C54.2927 45.409 54.3267 45.409 54.3606 45.4176C54.4413 45.439 54.5007 45.5205 54.505 45.5933C54.505 45.6748 54.4371 45.7605 54.3521 45.7776C54.3139 45.7862 54.2714 45.7819 54.2332 45.7862C53.7619 45.7991 53.2863 45.8076 52.815 45.8291C52.4965 45.8419 52.178 45.8719 51.8596 45.8933C51.7789 45.8976 51.7364 45.9362 51.7109 46.0134C51.6812 46.1119 51.6472 46.2105 51.609 46.3048C51.4901 46.6219 51.3712 46.9391 51.2438 47.2563C51.2014 47.3634 51.1971 47.462 51.2184 47.5734C51.2736 47.8691 51.3543 48.1563 51.5029 48.4177C51.5878 48.5635 51.6855 48.6963 51.8213 48.7992C51.9827 48.9192 52.161 48.9878 52.3564 49.0092C52.6748 49.0478 52.9806 48.9835 53.2778 48.872C53.5453 48.7692 53.7959 48.632 54.0379 48.482C54.3903 48.2592 54.7173 47.9977 55.0315 47.7191C55.1122 47.6463 55.1971 47.5777 55.2736 47.4963C55.3373 47.4277 55.4095 47.3977 55.5029 47.4148C55.5114 47.4148 55.5241 47.4148 55.5453 47.4063H55.5326ZM51.6515 42.9532C51.6175 42.9146 51.5963 42.8889 51.5751 42.8632C51.4179 42.7003 51.2438 42.5632 51.0613 42.4346C50.1143 41.7875 49.0867 41.3589 47.936 41.2689C47.6557 41.2474 47.3755 41.2731 47.108 41.3589C46.9509 41.4103 46.798 41.4789 46.6791 41.5989C46.3946 41.886 46.3054 42.2375 46.3776 42.6318C46.4371 42.9489 46.5942 43.2232 46.7725 43.4847C46.9593 43.759 47.1759 44.0118 47.4052 44.2561C47.8001 44.6719 48.195 45.0876 48.5899 45.5033C48.6621 45.5762 48.7343 45.649 48.8065 45.7219C48.9126 45.7219 49.023 45.7176 49.1292 45.7133C49.1462 45.7133 49.1632 45.7133 49.1802 45.7091C49.4264 45.6876 49.6685 45.6662 49.9148 45.649C50.1356 45.6319 50.3606 45.619 50.5814 45.6062C50.6112 45.6062 50.6366 45.5976 50.6664 45.5933C50.7513 45.589 50.798 45.5333 50.8277 45.4605C50.8404 45.4262 50.8447 45.3919 50.8532 45.3619C50.8829 45.2076 50.9084 45.0576 50.9339 44.9033C50.9381 44.8776 50.9551 44.8476 50.9211 44.8176C50.8872 44.8176 50.8489 44.8176 50.8107 44.8176C50.6281 44.8304 50.4455 44.8476 50.2672 44.8604C49.9657 44.8776 49.6642 44.8604 49.3627 44.8133C49.3203 44.809 49.2736 44.7876 49.2396 44.7619C49.1419 44.6847 49.1462 44.5604 49.2438 44.4833C49.299 44.4404 49.3585 44.4447 49.4222 44.449C49.6472 44.4704 49.8765 44.4961 50.1016 44.4961C50.2969 44.4961 50.488 44.4833 50.6833 44.4619C50.8065 44.4447 50.9339 44.449 51.04 44.389C51.1122 44.1618 51.1802 43.939 51.2523 43.7247C51.3245 43.5104 51.4137 43.3089 51.5411 43.1204C51.5751 43.0689 51.6133 43.0175 51.66 42.9575L51.6515 42.9532ZM51.7746 44.5604C51.626 44.6161 51.5071 44.659 51.384 44.7019C51.367 44.7062 51.3543 44.719 51.3415 44.7233C51.2778 44.9333 51.2141 45.289 51.2141 45.4305C51.2141 45.4648 51.2226 45.4948 51.2311 45.5376C51.2863 45.5376 51.3373 45.5376 51.3882 45.5376C51.4434 45.5376 51.4816 45.5033 51.5029 45.4476C51.5114 45.4262 51.5199 45.4048 51.5283 45.3833C51.6048 45.1433 51.6812 44.9033 51.7576 44.6633C51.7661 44.6376 51.7661 44.6076 51.7789 44.5519L51.7746 44.5604ZM51.885 43.2618C51.7959 43.3432 51.7661 43.3861 51.6812 43.5961C51.5368 43.939 51.4731 44.1447 51.4816 44.269C51.5114 44.2604 51.5368 44.2561 51.5623 44.2433C51.6472 44.1918 51.7279 44.1447 51.8086 44.089C51.885 44.0376 51.953 43.969 51.9742 43.8747C52.0082 43.7375 52.0506 43.5961 51.9954 43.4504C51.97 43.3818 51.9487 43.3089 51.8893 43.2618H51.885ZM51.0782 46.2705C51.0867 46.3391 51.091 46.3991 51.0995 46.4548C51.1037 46.4848 51.1462 46.4934 51.1674 46.4719C51.1759 46.4634 51.1844 46.4591 51.1929 46.4462C51.2821 46.3091 51.3288 46.1548 51.3543 45.9962C51.3627 45.9362 51.3245 45.8976 51.2651 45.8933C51.1929 45.8933 51.1377 45.9233 51.1207 45.9919C51.0995 46.0862 51.0867 46.1848 51.074 46.2705H51.0782ZM61.333 46.5791C61.1971 46.6691 61.1547 46.7805 61.125 46.8962C61.108 46.9691 61.1165 47.0163 61.1547 47.0934C61.2396 46.9391 61.2906 46.7805 61.3288 46.5791H61.333Z" fill="#DCBC95"/>
<path d="M36.5944 47.3464C36.777 47.205 36.9341 47.0807 37.0997 46.965C37.2611 46.8536 37.4394 46.7721 37.6347 46.7421C37.7112 46.7293 37.7919 46.7207 37.8725 46.725C38.2122 46.7421 38.3736 47.0893 38.3226 47.3164C38.2802 47.4965 38.1953 47.6336 38.0509 47.7408C37.8131 47.9122 37.5498 48.0365 37.2611 48.1008C37.0785 48.1393 36.8916 48.1608 36.7006 48.1565C36.6793 48.1565 36.6539 48.1565 36.6326 48.1565C36.5732 48.1608 36.5434 48.1993 36.5477 48.2636C36.5562 48.3922 36.5944 48.5165 36.6963 48.6022C36.7558 48.6536 36.8237 48.7051 36.8916 48.7394C37.2696 48.9237 37.673 49.0265 38.0933 49.0394C38.8322 49.0651 39.5286 48.8894 40.208 48.6065C40.8025 48.3579 41.3587 48.0451 41.8768 47.6636C41.9405 47.6165 42.0042 47.565 42.0721 47.5265C42.1528 47.475 42.242 47.4965 42.3014 47.5736C42.3609 47.6507 42.3566 47.7365 42.2887 47.8093C42.2674 47.8308 42.2462 47.8479 42.225 47.865C41.5158 48.4008 40.7515 48.8294 39.915 49.1208C39.5923 49.2322 39.2611 49.318 38.9214 49.3651C38.2207 49.4637 37.5328 49.4165 36.8704 49.138C36.7643 49.0951 36.6666 49.0351 36.5689 48.9794C36.4415 48.9022 36.3524 48.7951 36.2844 48.6622C36.2292 48.5551 36.191 48.4394 36.1953 48.3151C36.1953 48.2551 36.1953 48.1908 36.1953 48.1179C36.1358 48.1308 36.1018 48.1651 36.0679 48.1908C35.7791 48.4265 35.4734 48.6365 35.1507 48.8251C34.7091 49.0865 34.2505 49.2965 33.7451 49.3951C33.4776 49.4465 33.2016 49.4723 32.9299 49.4165C32.6454 49.3608 32.4118 49.2151 32.2165 49.0008C32.1188 48.8937 32.0551 48.7651 32.0254 48.6194C32.0212 48.5894 32.0169 48.5636 32.0084 48.5336C31.9702 48.4179 31.8428 48.3751 31.7494 48.4522C31.7112 48.4865 31.6772 48.5251 31.639 48.5594C31.4904 48.7008 31.3375 48.8379 31.1634 48.9494C31.0488 49.0222 30.9214 49.0822 30.7897 49.1122C30.4755 49.1851 30.2165 48.9837 30.2122 48.6579C30.2122 48.5294 30.2335 48.4051 30.2674 48.2851C30.2759 48.2551 30.2802 48.2208 30.2887 48.1693C30.2462 48.1779 30.2207 48.1822 30.1995 48.1951C30.1358 48.2208 30.0721 48.2465 30.0084 48.2722C29.5031 48.4565 29.0105 48.4308 28.535 48.1736C28.501 48.1565 28.4628 48.1351 28.4288 48.1179C28.3014 48.0408 28.0933 48.0493 27.9744 48.1865C27.8301 48.3494 27.6899 48.5165 27.5456 48.6794C27.5286 48.6965 27.5201 48.7179 27.5031 48.7351C27.3672 48.8937 27.2823 49.078 27.2313 49.2837C27.1167 49.7723 26.9426 50.2394 26.7558 50.7066C26.5095 51.3195 26.2589 51.9324 26.0084 52.541C25.9914 52.5795 25.9787 52.6181 25.9575 52.6481C25.915 52.7167 25.8343 52.7467 25.7621 52.7253C25.6815 52.6995 25.6178 52.6095 25.6263 52.5281C25.6263 52.5067 25.6347 52.4852 25.6432 52.4595C25.8216 51.7266 26.0127 50.998 26.2674 50.2909C26.4373 49.8237 26.6369 49.3737 26.9001 48.9537C26.9511 48.8722 26.9808 48.7908 26.9936 48.6965C27.0105 48.5594 27.0318 48.4222 27.0488 48.2851C27.0488 48.2636 27.0445 48.2422 27.036 48.2079C27.0063 48.2208 26.9808 48.2251 26.9723 48.2422C26.9299 48.3065 26.8959 48.3708 26.8577 48.4351C26.743 48.6279 26.6199 48.8165 26.4585 48.9708C26.3863 49.0394 26.3099 49.0951 26.2207 49.1337C25.915 49.2665 25.6305 49.1208 25.5158 48.8465C25.4819 48.7651 25.4819 48.6794 25.4989 48.5936C25.5074 48.5551 25.5116 48.5165 25.5243 48.4565C25.4606 48.4994 25.4097 48.5294 25.3672 48.5636C25.1167 48.7437 24.8577 48.9108 24.5774 49.048C24.2929 49.1894 24.0042 49.3051 23.6942 49.3694C23.3078 49.4465 22.9256 49.4551 22.5477 49.3265C22.3524 49.258 22.174 49.1594 22.0084 49.0351C21.8003 48.8808 21.6984 48.6751 21.6602 48.4222C21.656 48.3836 21.6517 48.3451 21.6475 48.2936C21.571 48.3279 21.5243 48.3751 21.4691 48.4179C21.1252 48.6879 20.76 48.9194 20.3524 49.0822C20.0806 49.1937 19.7961 49.2622 19.5074 49.2794C19.0615 49.3008 18.6623 49.1722 18.3226 48.8765C18.1655 48.7394 18.0254 48.5894 17.9192 48.4094C17.864 48.3193 17.8046 48.2379 17.7494 48.1479C17.673 48.0322 17.5753 47.9979 17.4394 48.0279C17.2865 48.0622 17.1507 48.1308 17.019 48.2122C16.8067 48.3408 16.6241 48.5036 16.45 48.6794C16.2972 48.8337 16.1528 48.9965 16.0042 49.1594C15.9702 49.198 15.9362 49.2365 15.898 49.2708C15.8428 49.3222 15.7791 49.3308 15.7069 49.2965C15.6305 49.258 15.5923 49.198 15.6008 49.1165C15.6093 49.0608 15.622 49.0051 15.6347 48.9494C15.7367 48.4994 15.8386 48.0536 15.9405 47.6036C15.949 47.565 15.9575 47.5265 15.9744 47.4879C16.0127 47.4065 16.0891 47.3722 16.174 47.3893C16.2547 47.4065 16.3141 47.475 16.3141 47.5607C16.3141 47.5993 16.3057 47.6422 16.2972 47.6807C16.2547 47.8736 16.2122 48.0622 16.1698 48.2508C16.1655 48.2722 16.1613 48.2936 16.1613 48.3193C16.1613 48.3451 16.1995 48.3708 16.225 48.3622C16.2589 48.3451 16.2929 48.3194 16.3226 48.2979C16.4246 48.2122 16.5222 48.1222 16.6241 48.0408C16.7982 47.8993 16.9893 47.7793 17.2016 47.7065C17.2908 47.6765 17.3885 47.6507 17.4861 47.6422C17.6815 47.625 17.8471 47.6936 17.9744 47.8479C18.0636 47.9593 18.1443 48.0793 18.225 48.1993C18.3439 48.3836 18.4882 48.5465 18.6666 48.6751C18.9511 48.8808 19.2696 48.9365 19.6093 48.8979C20.0254 48.8508 20.4033 48.6965 20.7558 48.4779C21.087 48.2722 21.397 48.0365 21.673 47.7579C21.7409 47.6893 21.7876 47.6207 21.8216 47.5307C21.8471 47.4622 21.8725 47.3893 21.9108 47.325C21.9872 47.205 22.157 47.2179 22.2207 47.3379C22.2462 47.3807 22.2505 47.4236 22.2335 47.4707C22.2165 47.5136 22.1953 47.5565 22.1783 47.5993C22.1018 47.7922 22.0339 47.9893 22.0296 48.1993C22.0296 48.2636 22.0296 48.3279 22.0339 48.3879C22.0466 48.5336 22.1103 48.6536 22.225 48.7394C22.45 48.9108 22.6963 49.018 22.9766 49.0437C23.2144 49.0651 23.4522 49.048 23.6899 48.988C24.1061 48.8808 24.484 48.7008 24.8449 48.4736C25.2653 48.2079 25.6602 47.9036 26.0127 47.5479C26.0424 47.5179 26.0679 47.4793 26.1018 47.4665C26.2207 47.4236 26.2887 47.3207 26.3778 47.2436C26.501 47.1407 26.6241 47.0379 26.7515 46.9393C26.8195 46.8879 26.9001 46.8493 26.9766 46.815C27.053 46.7807 27.1422 46.815 27.1846 46.8793C27.2271 46.9436 27.2186 47.0464 27.1592 47.1022C27.1252 47.1322 27.087 47.1579 27.0488 47.1836C26.9171 47.2822 26.7812 47.3807 26.6539 47.4879C26.3184 47.775 26.0764 48.1351 25.9023 48.5422C25.8853 48.5765 25.8725 48.6194 25.8683 48.6579C25.8598 48.7394 25.9192 48.8079 25.9999 48.8037C26.0424 48.8037 26.0933 48.7908 26.1273 48.7651C26.191 48.7179 26.2547 48.6665 26.3057 48.6065C26.3863 48.5036 26.4628 48.3965 26.5307 48.2808C26.6836 48.0108 26.8279 47.7365 26.9341 47.4407C26.9426 47.415 26.9553 47.385 26.9638 47.3593C26.9936 47.295 27.0445 47.2607 27.1124 47.2564C27.1846 47.2522 27.2483 47.2822 27.2823 47.3507C27.3205 47.4322 27.346 47.5222 27.3757 47.6079C27.3927 47.655 27.397 47.7108 27.4097 47.7579C27.4522 47.9036 27.6093 47.9679 27.7367 47.8908C27.7706 47.8693 27.7961 47.8393 27.8301 47.8136C27.8768 47.7708 27.9235 47.7279 27.9744 47.6893C28.1188 47.5865 28.2717 47.5822 28.4246 47.6679C28.4713 47.6936 28.5095 47.7279 28.5519 47.7536C29.1167 48.1308 29.9362 48.0965 30.4798 47.5779C30.5562 47.5007 30.6326 47.4279 30.6878 47.3293C30.7388 47.2393 30.8279 47.2179 30.9086 47.2607C30.9893 47.3036 31.0275 47.385 31.0063 47.4793C31.002 47.505 30.9851 47.535 30.9723 47.5607C30.9553 47.595 30.9341 47.6293 30.9129 47.6679C30.7855 47.9122 30.6708 48.1651 30.6114 48.4351C30.5944 48.5122 30.5902 48.5936 30.5902 48.6751C30.5902 48.7265 30.6284 48.7565 30.6793 48.7608C30.7643 48.7651 30.8407 48.7351 30.9044 48.6879C31.0275 48.6022 31.1507 48.5165 31.2611 48.4179C31.588 48.1222 31.8683 47.7793 32.1231 47.415C32.1485 47.3764 32.174 47.3379 32.2037 47.3036C32.2589 47.2393 32.3481 47.2222 32.4203 47.2564C32.4882 47.2907 32.5265 47.355 32.518 47.4407C32.518 47.4793 32.501 47.5179 32.4882 47.5565C32.4161 47.8179 32.3609 48.0836 32.3736 48.3579C32.3778 48.4394 32.3906 48.5165 32.4118 48.5936C32.433 48.6794 32.4798 48.7522 32.5434 48.8122C32.7218 48.9665 32.9256 49.0608 33.1634 49.0737C33.5074 49.0908 33.8343 49.0222 34.1528 48.9022C34.7685 48.6708 35.3205 48.3236 35.8343 47.9165C36.0127 47.775 36.1825 47.6165 36.3481 47.4622C36.433 47.3807 36.5137 47.3207 36.6199 47.3507L36.5944 47.3464ZM36.7643 47.8179C36.8789 47.8393 36.9681 47.8265 37.0572 47.8008C37.2526 47.745 37.4437 47.6679 37.6263 47.5736C37.7069 47.5307 37.7834 47.4793 37.8513 47.4236C37.8938 47.3893 37.9277 47.3379 37.949 47.2864C37.9914 47.1922 37.932 47.0979 37.8258 47.0936C37.7536 47.0936 37.6772 47.0936 37.605 47.115C37.2696 47.2222 36.9978 47.4236 36.794 47.7108C36.777 47.7365 36.7727 47.7708 36.76 47.8179H36.7643Z" fill="#DCBC95"/>
<path d="M14.1484 47.6893C14.1484 47.5993 14.1484 47.505 14.1484 47.415C14.1484 47.3807 14.1484 47.3464 14.1484 47.3121C14.1484 47.2735 14.1272 47.2478 14.089 47.2392C14.055 47.2307 14.0168 47.235 13.9956 47.265C13.9658 47.2992 13.9446 47.3421 13.9191 47.3807C13.7408 47.6893 13.537 47.9807 13.3034 48.2507C12.8491 48.7822 12.3055 49.1765 11.6261 49.3608C11.3034 49.4465 10.9764 49.4851 10.6452 49.4808C10.4796 49.4808 10.3183 49.4508 10.1569 49.3993C9.70256 49.2579 9.44778 48.9407 9.34587 48.4822C9.29492 48.2421 9.29916 48.0021 9.32889 47.7621C9.37984 47.3035 9.49449 46.8578 9.63462 46.4206C9.84693 45.7692 10.072 45.1263 10.2928 44.4748C10.4032 44.1448 10.5178 43.8105 10.5943 43.4676C10.6325 43.2919 10.658 43.1162 10.6537 42.9362C10.6537 42.8976 10.6537 42.8548 10.6452 42.8162C10.6198 42.6405 10.5433 42.5719 10.3692 42.5376C10.0253 42.4733 9.68558 42.5205 9.35436 42.6233C8.67496 42.829 8.10171 43.2019 7.64736 43.7548C7.40957 44.042 7.23547 44.3634 7.17177 44.7363C7.11233 45.0749 7.1378 45.4006 7.29067 45.7135C7.42655 45.992 7.63037 46.2149 7.86392 46.4163C7.90638 46.4549 7.95309 46.4849 7.99555 46.5278C8.055 46.5878 8.05925 46.6864 8.01678 46.7506C7.96583 46.8235 7.86817 46.8535 7.78749 46.8149C7.76625 46.8064 7.74927 46.7935 7.73228 46.7764C7.42655 46.5364 7.16328 46.2621 6.98918 45.9106C6.73441 45.4006 6.70893 44.8777 6.90426 44.3377C7.06562 43.9005 7.32039 43.5319 7.6516 43.2148C8.09746 42.7905 8.61126 42.4776 9.19725 42.289C9.44778 42.2076 9.70681 42.1604 9.97008 42.1476C10.1654 42.1347 10.3565 42.1604 10.5476 42.2076C10.7471 42.2547 10.8745 42.3876 10.951 42.5719C10.9977 42.679 11.0189 42.7905 11.0232 42.9062C11.0316 43.1462 10.9849 43.3776 10.934 43.6048C10.8491 43.9862 10.7132 44.3548 10.59 44.7234C10.3905 45.3234 10.1824 45.9192 9.98281 46.5192C9.87666 46.8407 9.79598 47.1707 9.73228 47.505C9.68557 47.7493 9.66859 47.9978 9.68557 48.2421C9.68982 48.3321 9.71105 48.4264 9.73653 48.5122C9.82995 48.8422 10.0677 49.0093 10.3905 49.0693C10.7641 49.1379 11.1293 49.0993 11.4902 49.0093C12.089 48.855 12.5773 48.5207 12.9849 48.0578C13.4266 47.5564 13.7408 46.9778 13.9998 46.3649C14.2673 45.7263 14.4711 45.0706 14.6452 44.402C14.7726 43.9134 14.8958 43.4205 15.0274 42.9319C15.0656 42.7819 15.1166 42.6362 15.1675 42.4905C15.1973 42.4047 15.2397 42.319 15.2864 42.2419C15.3331 42.1647 15.3926 42.1519 15.4775 42.1862C15.5667 42.2204 15.6049 42.2762 15.5922 42.3533C15.5837 42.4176 15.5667 42.4776 15.5497 42.5376C15.4393 42.9319 15.3289 43.3219 15.2185 43.7162C15.0062 44.4748 14.8278 45.242 14.6877 46.0178C14.6155 46.4121 14.5603 46.8107 14.5306 47.2135C14.5136 47.445 14.5009 47.6721 14.5094 47.9036C14.5178 48.0964 14.5433 48.2936 14.5773 48.4864C14.6113 48.6879 14.7004 48.8679 14.8491 49.0136C14.8788 49.0393 14.9043 49.0736 14.917 49.1122C14.9382 49.1808 14.9212 49.2493 14.8618 49.3008C14.7981 49.3522 14.7259 49.3608 14.6537 49.3179C14.5476 49.2536 14.4669 49.1636 14.4032 49.0607C14.3225 48.9322 14.2673 48.795 14.2291 48.6493C14.1484 48.3364 14.1229 48.015 14.1357 47.6893H14.1484Z" fill="#DCBC95"/>
<path d="M10.8025 55.2195C11.0318 55.2195 11.2483 55.2195 11.4649 55.2195C11.5328 55.2195 11.6008 55.2366 11.6645 55.2581C11.9914 55.3695 12.1103 55.7724 11.8938 56.0467C11.8641 56.0852 11.8258 56.1238 11.7919 56.1624C11.8258 56.1795 11.8513 56.1924 11.8725 56.2095C12.1018 56.3467 12.208 56.6253 12.1316 56.8824C12.0849 57.041 11.9914 57.1567 11.8471 57.2339C11.7621 57.281 11.6687 57.3067 11.5711 57.3196C11.4734 57.3324 10.9214 57.3281 10.8025 57.3153C10.8025 57.311 10.794 57.3067 10.7897 57.3024C10.7897 57.2981 10.7812 57.2939 10.7812 57.2896C10.7812 56.621 10.7812 55.9524 10.7812 55.2881C10.7812 55.2709 10.7897 55.2538 10.7982 55.2238L10.8025 55.2195ZM11.019 57.1224C11.1592 57.1224 11.2908 57.1224 11.4182 57.1224C11.4649 57.1224 11.5074 57.1224 11.5541 57.1224C11.5668 57.1224 11.5753 57.1224 11.588 57.1224C11.7919 57.0881 11.9362 56.9253 11.9405 56.7195C11.9447 56.5224 11.8131 56.3595 11.6093 56.3167C11.5711 56.3081 11.5286 56.3038 11.4904 56.3038C11.3587 56.3038 11.2271 56.3038 11.0955 56.3038C11.07 56.3038 11.0403 56.3081 11.019 56.3124C10.9936 56.4495 10.9893 56.9467 11.019 57.1267V57.1224ZM11.0021 56.0852C11.07 56.0852 11.1125 56.0852 11.1592 56.0852C11.2611 56.0852 11.363 56.0852 11.4649 56.0852C11.5201 56.0852 11.5753 56.0638 11.6263 56.0424C11.7027 56.0081 11.7494 55.9438 11.7706 55.8624C11.8258 55.6438 11.7282 55.4895 11.5116 55.4424C11.4691 55.4338 11.4224 55.4338 11.3757 55.4295C11.2866 55.4295 11.1931 55.4295 11.104 55.4295C11.0742 55.4295 11.0403 55.4381 11.0021 55.4424C10.9936 55.6566 10.9936 55.8624 11.0021 56.0895V56.0852Z" fill="black"/>
<path d="M18.1105 55.8196C18.0808 56.3253 18.0808 56.8182 18.0765 57.3196C18.0298 57.3196 17.9958 57.3282 17.9661 57.3282C17.9406 57.3282 17.9109 57.3282 17.8769 57.3196C17.8769 57.2853 17.8684 57.2596 17.8684 57.2296C17.8557 56.6725 17.8642 55.3181 17.8812 55.1595C17.9279 55.1467 17.9364 55.1853 17.9534 55.211C18.119 55.4467 18.2846 55.6824 18.4459 55.9139C18.5988 56.1282 18.7474 56.3467 18.9003 56.5653C18.9343 56.6125 18.9682 56.6596 18.9979 56.7025C19.0532 56.6896 19.0404 56.6467 19.0404 56.6167C19.0404 56.2139 19.0404 55.811 19.0404 55.4081C19.0404 55.3524 19.0404 55.2924 19.0404 55.2367C19.1084 55.1938 19.172 55.2195 19.24 55.211C19.2442 55.2581 19.257 55.2967 19.257 55.331C19.257 55.9996 19.257 56.6682 19.257 57.3368C19.257 57.3539 19.2527 57.3668 19.2485 57.3839C19.1975 57.4011 19.189 57.3539 19.172 57.3325C18.8493 56.8739 18.5266 56.411 18.2039 55.9481C18.1699 55.901 18.136 55.8581 18.1062 55.811L18.1105 55.8196Z" fill="black"/>
<path d="M31.2355 57.3154C31.1973 57.324 31.1846 57.3283 31.1676 57.3325C31.1039 57.3325 31.0444 57.3325 30.9723 57.3325C30.7684 57.0582 30.5646 56.7797 30.3608 56.5054H30.1145C30.089 56.6468 30.106 56.7839 30.1018 56.9211C30.1018 57.054 30.1018 57.1825 30.1018 57.324C30.0338 57.3411 29.9744 57.3368 29.9192 57.3325C29.9107 57.324 29.9064 57.3197 29.9022 57.3111C29.9022 57.3068 29.8979 57.3025 29.8979 57.294C29.8979 56.6254 29.8979 55.961 29.8979 55.2924C29.8979 55.2753 29.9022 55.2582 29.9107 55.2324C29.9404 55.2324 29.9744 55.2239 30.0084 55.2239C30.1909 55.2239 30.3735 55.2239 30.5561 55.2239C30.6283 55.2239 30.7047 55.2324 30.7769 55.2539C31.0529 55.331 31.2313 55.5667 31.2398 55.8496C31.244 56.1282 31.0699 56.3768 30.8024 56.4668C30.7769 56.4754 30.7472 56.4796 30.7175 56.4882C30.6962 56.4925 30.6793 56.5054 30.6495 56.5182C30.743 56.6639 30.8491 56.7882 30.951 56.9211C31.0487 57.054 31.1548 57.1782 31.2525 57.324L31.2355 57.3154ZM30.0975 56.2739C30.1357 56.2825 30.1527 56.2868 30.1697 56.2868C30.3098 56.2868 30.4542 56.2868 30.5943 56.2868C30.7812 56.2868 31.002 56.1453 31.0062 55.8496C31.0062 55.5539 30.7939 55.4125 30.5986 55.421C30.4669 55.421 30.3353 55.421 30.2079 55.421C30.174 55.421 30.1442 55.4253 30.1018 55.4296C30.0975 55.7125 30.1018 55.9868 30.1018 56.2696L30.0975 56.2739Z" fill="black"/>
<path d="M3.80429 55.8453C3.74059 55.871 3.67265 55.8581 3.60047 55.8539C3.57074 55.8153 3.54102 55.7724 3.51129 55.7296C3.28624 55.451 2.99325 55.3567 2.65355 55.4338C2.33932 55.5067 2.08879 55.8067 2.04633 56.1324C2.00811 56.3896 2.06331 56.6253 2.22892 56.8268C2.57711 57.2468 3.18433 57.2382 3.51554 56.8053C3.54526 56.771 3.5665 56.7325 3.60047 56.6896H3.81278C3.80429 56.7196 3.80429 56.7496 3.79155 56.771C3.59622 57.1739 3.14611 57.4139 2.71724 57.3496C2.28412 57.2853 1.91894 56.9339 1.83826 56.4967C1.76183 56.0767 1.87648 55.721 2.19495 55.4381C2.73422 54.9581 3.53253 55.1938 3.80004 55.8024C3.80004 55.811 3.80004 55.8239 3.80004 55.8453H3.80429Z" fill="black"/>
<path d="M22.0976 55.2238H23.3077C23.3332 55.3138 23.3332 55.3138 23.3077 55.4167C22.9808 55.4209 22.6538 55.4167 22.3184 55.4209C22.2929 55.5067 22.3056 55.5881 22.3056 55.6652C22.3056 55.7467 22.3056 55.8281 22.3056 55.9053C22.3056 55.9867 22.3056 56.0638 22.3056 56.1538C22.3523 56.1624 22.3905 56.171 22.4288 56.171C22.6623 56.171 22.8959 56.171 23.1294 56.171C23.1804 56.171 23.2313 56.171 23.2823 56.1753C23.3162 56.2353 23.3077 56.291 23.2908 56.3553C23.261 56.3596 23.2271 56.3681 23.1931 56.3681C22.9595 56.3681 22.726 56.3681 22.4925 56.3681C22.4373 56.3681 22.3821 56.3724 22.3269 56.3767C22.2929 56.501 22.2886 56.8996 22.3141 57.1096C22.4203 57.1396 22.5264 57.1182 22.6326 57.1224C22.7472 57.1224 22.8619 57.1224 22.9765 57.1224H23.2992C23.3417 57.1867 23.3247 57.2467 23.3205 57.2982C23.3077 57.311 23.3035 57.3153 23.2992 57.3153C23.295 57.3153 23.2865 57.3153 23.2823 57.3153C22.9128 57.3153 22.5392 57.3153 22.1697 57.3153C22.1485 57.3153 22.1273 57.311 22.0933 57.3067C22.0891 57.2767 22.0806 57.251 22.0806 57.2253C22.0806 56.5824 22.0806 55.9352 22.0806 55.2924C22.0806 55.2709 22.0848 55.2495 22.0891 55.2109L22.0976 55.2238Z" fill="black"/>
<path d="M8.15248 57.3111C8.07604 57.3454 8.0081 57.3196 7.93592 57.3368C7.85948 57.1396 7.78305 56.9553 7.71511 56.7753C7.58347 56.7496 7.01022 56.7453 6.79366 56.7668C6.696 56.9382 6.64929 57.1354 6.56012 57.3197C6.52615 57.3197 6.48793 57.3282 6.44972 57.3282C6.41574 57.3282 6.38602 57.3239 6.35205 57.3197C6.40301 57.1439 7.18008 55.2367 7.25226 55.1167C7.265 55.1381 7.28199 55.1553 7.29048 55.1724C7.57923 55.8839 7.87222 56.5953 8.15672 57.3111H8.15248ZM7.24377 55.5839C7.11638 55.9139 7.00173 56.2053 6.88708 56.501C6.88284 56.5139 6.88708 56.5353 6.88708 56.5482C7.0909 56.5696 7.47732 56.5653 7.6047 56.5353C7.60046 56.5096 7.59621 56.4796 7.58347 56.4582C7.46882 56.1796 7.37116 55.8924 7.23528 55.5839H7.24377Z" fill="black"/>
<path d="M33.9997 55.2153C34.1059 55.3696 34.2121 55.5196 34.314 55.6696C34.4159 55.8154 34.5093 55.9654 34.6282 56.1154C34.8448 55.8154 35.0401 55.5196 35.2439 55.2325C35.3203 55.2068 35.401 55.2239 35.4987 55.2196C35.4732 55.2668 35.4605 55.3053 35.4392 55.3353C35.2397 55.6225 35.0401 55.9097 34.832 56.1882C34.7556 56.2911 34.7259 56.394 34.7301 56.5225C34.7386 56.7368 34.7301 56.9468 34.7301 57.1611C34.7301 57.2126 34.7301 57.264 34.7259 57.3154C34.6579 57.3411 34.5985 57.3326 34.5305 57.324C34.5263 57.2854 34.5178 57.2468 34.5178 57.2083C34.5178 56.9597 34.5178 56.7154 34.5178 56.4668C34.5178 56.3768 34.4966 56.304 34.4414 56.2268C34.2333 55.9396 34.0295 55.6482 33.8214 55.3611C33.7959 55.3268 33.7747 55.2882 33.7407 55.2368C33.8341 55.211 33.9106 55.2282 33.9913 55.2196L33.9997 55.2153Z" fill="black"/>
<path d="M26.4925 55.421C26.3269 55.4039 26.1698 55.421 26.0127 55.4082C25.9787 55.3482 25.9872 55.2925 26 55.2282C26.1358 55.2024 26.2717 55.2196 26.4034 55.2153C26.535 55.2153 26.6666 55.2153 26.7983 55.2153C26.9341 55.2153 27.07 55.2153 27.2101 55.2153C27.2271 55.2796 27.2314 55.3353 27.2059 55.3953C27.053 55.4382 26.8917 55.3953 26.7218 55.4253C26.7218 55.4853 26.7133 55.5367 26.7133 55.5925C26.7133 56.1025 26.7133 56.6168 26.7133 57.1268C26.7133 57.1825 26.7133 57.2425 26.7133 57.3025C26.6454 57.3325 26.5859 57.3197 26.5265 57.3154C26.484 57.2682 26.501 57.2125 26.501 57.1654C26.501 56.6425 26.501 56.1196 26.501 55.5967C26.501 55.541 26.501 55.4853 26.4925 55.4167V55.421Z" fill="black"/>
<path d="M15.0189 57.324H14.8321C14.8278 57.294 14.8193 57.2683 14.8193 57.2426C14.8193 56.5997 14.8193 55.9526 14.8193 55.3097C14.8193 55.2882 14.8193 55.2668 14.8278 55.2368C14.8873 55.2068 14.9467 55.2197 15.0147 55.224C15.0189 55.2497 15.0317 55.2711 15.0317 55.2882C15.0317 55.944 15.0317 56.5997 15.0317 57.2555C15.0317 57.2726 15.0274 57.2898 15.0189 57.324Z" fill="black"/>
<path d="M21.7962 46.8963C21.6518 46.8963 21.5711 46.7506 21.6306 46.6349C21.6433 46.6092 21.6603 46.5834 21.6858 46.5706C21.8386 46.4892 21.966 46.3734 22.0976 46.2663C22.1868 46.1934 22.3015 46.232 22.3567 46.3306C22.3949 46.3991 22.3906 46.4634 22.3397 46.5234C22.2081 46.6734 22.0467 46.7892 21.8641 46.8792C21.8386 46.892 21.8089 46.892 21.7962 46.8963Z" fill="#DCBC95"/>
</svg>
