<svg width="90" height="90" viewBox="0 0 90 90" fill="none" xmlns="http://www.w3.org/2000/svg">
<path d="M9.12653 50.1078H8.56635C6.80736 50.1078 5.04838 50.119 3.29127 50.1078C2.34456 50.1078 1.79744 49.3758 2.07007 48.5579C2.23626 48.0687 2.63025 47.7961 3.21284 47.7924C4.34629 47.7924 5.47973 47.7924 6.61317 47.7924H12.6146V47.2602C12.6146 45.4153 12.6146 43.5686 12.6146 41.7237C12.6146 40.3064 13.2215 39.2701 14.4819 38.6259C14.573 38.5867 14.6485 38.5182 14.6962 38.4313C14.7439 38.3443 14.7611 38.2439 14.7452 38.146C14.7452 37.2123 14.7452 36.2787 14.7452 35.3562C14.7452 34.5514 15.2195 34.0342 15.9365 34.0491C16.6535 34.0641 17.0737 34.5608 17.0756 35.3562C17.0756 36.2899 17.0756 37.2235 17.0756 38.1572C17.0636 38.2623 17.0873 38.3684 17.1428 38.4585C17.1983 38.5485 17.2825 38.6173 17.3818 38.6539C18.6011 39.2887 19.2043 40.3083 19.2061 41.6826C19.2061 43.5499 19.2229 45.4041 19.1949 47.2639C19.1949 47.7251 19.335 47.8092 19.7551 47.8092C42.0081 47.7992 64.2599 47.7992 86.5105 47.8092C86.714 47.8092 86.9194 47.8092 87.1211 47.8092C87.4074 47.8249 87.6768 47.9499 87.8738 48.1583C88.0707 48.3667 88.1803 48.6428 88.1798 48.9295C88.1985 49.5663 87.7821 50.0891 87.1472 50.1022C85.5358 50.1377 83.9206 50.1227 82.3091 50.1339C81.4352 50.1339 81.5622 50.02 81.5622 50.9051C81.5622 61.4714 81.5622 72.0378 81.5622 82.6041C81.5622 83.2166 81.5622 83.2166 82.1709 83.2166C83.7544 83.2166 85.3453 83.2166 86.9231 83.2166C87.7466 83.2166 88.2415 83.7301 88.1854 84.4807C88.1677 84.7434 88.058 84.9913 87.8757 85.1812C87.6933 85.371 87.45 85.4906 87.1883 85.5189C86.9858 85.5349 86.7826 85.5405 86.5796 85.5358H28.1093C19.8858 85.5358 11.6629 85.532 3.44065 85.5245C3.08477 85.5219 2.73582 85.426 2.42859 85.2463C2.02152 84.9942 1.92255 84.4602 2.07754 83.9971C2.15106 83.7581 2.30322 83.5509 2.50931 83.4092C2.7154 83.2675 2.96332 83.1996 3.21284 83.2166C4.99983 83.2166 6.78869 83.2166 8.57568 83.2166H9.13587L9.12653 50.1078ZM32.7103 63.3319C32.7103 63.4887 32.6935 63.5877 32.6935 63.6867C32.6935 68.9151 32.6966 74.1435 32.7029 79.3719C32.7168 79.5821 32.8048 79.7806 32.9512 79.932C33.9334 80.9429 34.9293 81.9388 35.9389 82.9197C36.1149 83.0776 36.3411 83.1682 36.5775 83.1755C43.0308 83.1892 49.4835 83.1892 55.9356 83.1755C56.1727 83.1667 56.399 83.074 56.5742 82.9141C57.6796 81.8423 58.7689 80.753 59.8419 79.6463C60.0052 79.4743 60.1024 79.2501 60.1164 79.0133C60.1314 73.826 60.1164 68.6368 60.1332 63.4477C60.1332 63.1078 60.0436 62.9995 59.6944 63.0032C58.1545 63.0194 56.614 63.0194 55.0729 63.0032C53.9461 62.9249 52.8923 62.4168 52.1293 61.5839C51.3663 60.7511 50.9522 59.657 50.9726 58.5276C50.9929 57.3982 51.4462 56.3198 52.2388 55.515C53.0313 54.7102 54.1027 54.2404 55.2316 54.2027C59.2699 54.1953 63.3101 54.1953 67.3522 54.2027C67.6861 54.2037 68.019 54.2393 68.3456 54.3092C70.4985 54.7741 72.0353 56.8244 71.828 58.9344C71.5965 61.3115 69.7647 63.0088 67.4194 63.0144C65.9368 63.0144 64.4541 63.0144 62.9715 63.0144C62.8035 63.0144 62.6354 63.0312 62.4617 63.0387C62.4524 63.1918 62.4412 63.2908 62.4412 63.3916C62.4412 68.6101 62.4443 73.8279 62.4505 79.0451C62.4641 79.255 62.5514 79.4534 62.697 79.6053C63.7838 80.7256 64.8799 81.8199 65.9965 82.9029C66.1806 83.0728 66.4185 83.1726 66.6687 83.1848C70.6797 83.2016 74.6981 83.1848 78.7034 83.2072C79.1627 83.2072 79.2486 83.0672 79.2486 82.6471C79.2374 71.9811 79.2374 61.314 79.2486 50.6456C79.2486 50.2329 79.1459 50.1096 78.7202 50.1096C56.4846 50.1196 34.249 50.1196 12.0134 50.1096C11.8584 50.1096 11.7034 50.1246 11.5465 50.1321V83.1643C11.6922 83.1755 11.8061 83.1923 11.92 83.1923C16.7899 83.1923 21.6585 83.1923 26.5259 83.1923C26.7348 83.1806 26.933 83.096 27.0861 82.9533C28.0956 81.9711 29.0915 80.9752 30.0737 79.9656C30.2416 79.7802 30.3388 79.5415 30.3482 79.2916C30.3631 74.1341 30.3669 68.9754 30.3594 63.8155C30.3594 63.6736 30.3482 63.5317 30.3389 63.345H29.8366C28.4268 63.345 27.017 63.3599 25.6072 63.345C25.129 63.34 24.6531 63.2773 24.1899 63.1582C23.1822 62.8728 22.3092 62.2377 21.7274 61.3668C21.1457 60.4959 20.8933 59.4462 21.0155 58.406C21.2489 56.309 23.021 54.5762 25.1235 54.5501C29.3212 54.4959 33.5263 54.466 37.7221 54.5389C40.6593 54.5893 42.6088 57.2315 41.9216 60.0249C41.4399 61.9819 39.6809 63.3281 37.5466 63.3431C35.9557 63.3412 34.3573 63.3319 32.7103 63.3319ZM31.5171 60.9866C33.5711 60.9866 35.6139 60.9866 37.6605 60.9866C37.9663 60.9893 38.2688 60.9237 38.5461 60.7946C38.8233 60.6655 39.0682 60.4761 39.2629 60.2403C39.4575 60.0044 39.5971 59.7281 39.6714 59.4314C39.7456 59.1347 39.7527 58.8253 39.6921 58.5255C39.4886 57.4817 38.6483 56.83 37.4831 56.8282C33.517 56.8282 29.5521 56.8282 25.5885 56.8282C25.3134 56.8269 25.0397 56.8665 24.7762 56.9458C24.3057 57.0968 23.9048 57.4112 23.6459 57.8321C23.3871 58.2531 23.2875 58.7527 23.3651 59.2408C23.4427 59.7288 23.6924 60.1729 24.0691 60.4928C24.4457 60.8126 24.9244 60.9871 25.4186 60.9847C27.4427 60.9903 29.4762 60.9866 31.5171 60.9866ZM61.3152 56.5387C59.2824 56.5387 57.2489 56.5387 55.2148 56.5387C54.8415 56.5272 54.4723 56.6189 54.1478 56.8038C53.8233 56.9886 53.5561 57.2593 53.3755 57.5863C52.5465 58.9793 53.5623 60.6673 55.2634 60.7084C56.2792 60.7326 57.2968 60.7084 58.3145 60.7084C61.291 60.7084 64.2674 60.7084 67.2457 60.7084C68.5528 60.7084 69.5014 59.8065 69.5014 58.6151C69.5014 57.4238 68.5285 56.5368 67.2401 56.5368L61.3152 56.5387ZM14.9749 47.783C15.5724 47.783 16.1064 47.798 16.6405 47.77C16.7264 47.77 16.8739 47.5702 16.8739 47.4637C16.8888 45.5155 16.8888 43.5686 16.8739 41.6229C16.8789 41.4915 16.8574 41.3605 16.8106 41.2377C16.7637 41.1148 16.6926 41.0027 16.6014 40.908C16.5102 40.8134 16.4008 40.7381 16.2799 40.6867C16.1589 40.6353 16.0288 40.6088 15.8973 40.6089C15.3521 40.622 14.9637 41.044 14.9637 41.6602C14.9637 42.648 14.9637 43.6358 14.9637 44.6236L14.9749 47.783ZM62.7605 83.1606L61.2854 81.6667L59.7915 83.1606H62.7605ZM32.7327 83.1606L31.5769 81.9954L30.3333 83.1606H32.7327Z" fill="#DCBC95"/>
<path d="M43.9215 19.1858V7.34532H3.41261C2.70491 7.34532 2.2661 7.08948 2.08124 6.57598C2.02084 6.40803 1.99938 6.22856 2.01849 6.0511C2.0376 5.87364 2.09678 5.70284 2.19155 5.5516C2.28632 5.40035 2.41422 5.27263 2.56558 5.17805C2.71694 5.08346 2.88782 5.0245 3.0653 5.00561C3.1959 4.99813 3.32683 4.99813 3.45743 5.00561H86.7383C87.7111 5.00561 88.2321 5.46681 88.1817 6.27348C88.165 6.55154 88.0476 6.81399 87.8513 7.01164C87.655 7.20929 87.3934 7.32858 87.1154 7.34717C86.9567 7.36211 86.7961 7.34717 86.6356 7.34717H46.3097V19.2847C47.7976 19.5935 49.1931 20.2443 50.386 21.1856C52.8881 23.0959 54.7536 25.5457 56.2997 28.2533C56.759 29.0581 56.2418 29.9338 55.3175 30.0179C55.1886 30.0291 55.0561 30.0179 54.9254 30.0179H35.2629C35.1602 30.0179 35.0593 30.0179 34.9566 30.0179C33.9502 29.9637 33.3956 29.0487 33.9408 28.201C34.8245 26.7848 35.7787 25.4137 36.7996 24.093C38.1254 22.4124 39.6995 20.9933 41.6546 20.054C42.3604 19.7161 43.1279 19.4864 43.9215 19.1858ZM36.9994 27.6483H53.2317C52.6211 26.8734 52.0927 26.1545 51.5101 25.4748C50.3486 24.1247 49.0658 22.9091 47.4469 22.1137C45.9213 21.3667 44.3864 21.3182 42.8459 22.0782C40.3381 23.3087 38.6445 25.3926 36.9994 27.6483Z" fill="#DCBC95"/>
<path d="M25.3116 44.8535C26.3143 44.8535 27.3171 44.8535 28.3198 44.8535C29.0667 44.8535 29.5541 45.3147 29.5522 46.015C29.5503 46.7152 29.0742 47.1801 28.3217 47.182C26.3013 47.182 24.2815 47.182 22.2623 47.182C21.4967 47.182 20.9888 46.6965 20.9982 45.9944C21.0075 45.2923 21.5061 44.8554 22.2586 44.8535H25.3116Z" fill="#DCBC95"/>
</svg>
