<svg width="90" height="90" viewBox="0 0 90 90" fill="none" xmlns="http://www.w3.org/2000/svg">
<path d="M45.0817 6.00388H86.806C88.9878 6.00388 89 6.02121 89 8.2047C89 32.72 89 57.2353 89 81.7506C89 84.1194 89 84.1211 86.6634 84.1211H3.49998C1.00348 84.1211 1 84.1212 1 81.6069C1 57.0916 1 32.5763 1 8.06097C1 6.09392 1.08519 6.00044 3.04275 6.00044C17.0563 5.99928 31.0693 6.00042 45.0817 6.00388ZM29.948 61.862V15.3162H23.3625C23.2304 16.8399 22.8409 18.1784 24.7689 18.9784C26.1893 19.5671 26.7404 21.084 26.7978 22.632C27.0464 29.2119 27.262 35.8091 27.5227 42.3977C27.5662 43.518 27.1316 43.9249 26.0224 43.9024C23.545 43.8574 21.0642 43.8695 18.5868 43.9024C17.5785 43.9128 17.0865 43.5561 17.1282 42.486C17.4011 35.7987 17.5628 29.1028 17.9853 22.4242C18.0617 21.2416 18.9119 19.6191 19.8976 19.084C21.73 18.0832 21.4623 16.833 21.2693 15.3196H11.6797C11.5267 16.8607 11.252 18.123 13.0566 19.0598C14.0128 19.555 14.8872 21.1099 14.9585 22.2407C15.3914 28.9695 15.5739 35.7139 15.8556 42.4531C15.899 43.492 15.4557 43.9128 14.423 43.9024C11.8952 43.8747 9.36631 43.8747 6.8362 43.9024C5.80874 43.9162 5.35498 43.5232 5.39844 42.4756C5.67313 35.7866 5.91999 29.0959 6.19467 22.4086C6.259 20.8416 7.03263 19.6381 8.36607 18.8035C9.89596 17.8529 10.1046 17.1984 9.46134 15.3491H2.99407V61.8638L29.948 61.862ZM2.96801 82.1731H29.9323V63.9053H2.96801V82.1731ZM87.0598 63.8845H60.0242V82.1628H87.0511L87.0598 63.8845ZM58.0162 63.9105H32.0516V82.2026H58.0093L58.0162 63.9105ZM87.0563 26.1003H60.0329V44.5067H62.2617V36.0913C62.2617 32.3564 62.2617 32.3564 66.0099 32.3599C68.3013 32.3599 68.6472 32.7062 68.6507 34.9676C68.6507 38.1259 68.6507 41.2825 68.6507 44.5292H70.3892V42.8323C70.3892 39.9648 70.3892 37.0974 70.3892 34.2299C70.3892 33.2654 70.6761 32.5676 71.7453 32.3754C75.8812 31.6326 76.7017 32.2941 76.7035 36.403V44.6279L78.296 44.5327C78.3462 44.3889 78.384 44.2412 78.409 44.0911C78.4182 41.4245 78.4246 38.7585 78.4281 36.0931C78.4281 32.3512 78.4281 32.3512 82.1937 32.3529C84.5268 32.3529 84.8015 32.6161 84.8015 34.9502C84.8015 38.1051 84.8015 41.2618 84.8015 44.5084H87.0511L87.0563 26.1003ZM57.9849 61.8638V7.95534H32.0533V61.862L57.9849 61.8638ZM63.4039 61.8638V60.1651C63.4039 57.7409 63.4508 55.3341 63.3848 52.9203C63.35 51.6182 63.8333 51.1385 65.1528 51.1489C70.7161 51.1939 76.2793 51.1939 81.8425 51.1489C83.2055 51.1368 83.7549 51.5818 83.7253 52.9774C83.6575 55.5419 83.6836 58.1098 83.7497 60.6742C83.7601 61.1002 84.1113 61.8222 84.4086 61.8863C85.2587 62.0594 86.1627 61.9452 87.0337 61.9452V46.6192H60.0242V61.8568L63.4039 61.8638ZM87.1311 7.9415H59.9303V23.4112C59.9303 23.4614 59.9129 23.5358 59.9303 23.5584C60.1633 23.7592 60.3823 24.0484 60.6483 24.1038C60.7996 24.135 61.1299 23.8042 61.2012 23.5843C61.3038 23.2623 61.2499 22.8917 61.2499 22.5454C61.2499 19.4736 61.2064 16.4019 61.2742 13.3318C61.3177 11.254 62.8041 9.86871 64.7338 9.90161C66.5993 9.9397 67.9675 11.3319 68.0666 13.3214C68.1013 14.0244 68.077 14.7309 68.077 15.4357C68.077 18.2927 68.077 21.1498 68.077 24.064H70.1319V22.3324C70.1319 19.4615 70.1145 16.5923 70.1319 13.7232C70.1493 11.3527 71.4341 9.92586 73.4994 9.91374C75.5648 9.90162 76.8913 11.3388 76.9069 13.6747C76.9243 16.0988 76.9069 18.5074 76.9069 20.9247V24.0415H78.9931V22.2909C78.9931 19.271 78.9566 16.2478 79.0122 13.2279C79.0487 11.2644 80.523 9.8791 82.4006 9.88776C84.2382 9.89815 85.6099 11.1934 85.7698 13.0894C85.8081 13.5396 85.7924 13.995 85.7942 14.4487C85.7942 17.2191 85.7629 19.9896 85.8272 22.7601C85.8376 23.2242 86.2584 23.6779 86.4896 24.135C86.6999 23.6553 87.0633 23.1843 87.0894 22.6943C87.1711 21.2398 87.1189 19.7767 87.1189 18.317L87.1311 7.9415ZM29.9341 13.3266V7.97268H3.00799V13.3266H29.9341ZM65.3997 61.8464H81.8147C81.7747 61.275 81.7417 60.8075 81.7 60.2344C80.7438 60.2344 79.9267 60.3244 79.1461 60.198C78.7515 60.134 78.4211 59.6786 78.063 59.3998C78.4229 59.0656 78.741 58.5201 79.1496 58.444C79.9649 58.2916 80.829 58.3989 81.6895 58.3989V56.5444C80.756 56.5444 79.9336 56.6518 79.1635 56.5011C78.7532 56.4215 78.4316 55.8951 78.07 55.5696C78.4177 55.2856 78.7428 54.8146 79.1305 54.7557C79.9563 54.6311 80.8151 54.7177 81.6131 54.7177C82.0633 53.4484 81.7573 52.9861 80.5282 52.9861C76.8408 53.0311 73.1535 52.9999 69.4661 52.9999H65.3371V54.7073C66.2411 54.7073 67.0617 54.6051 67.8354 54.7488C68.2613 54.8267 68.6107 55.3202 68.9949 55.6267C68.609 55.9315 68.2561 56.4267 67.8301 56.4925C67.0183 56.6345 66.1646 56.5341 65.2224 56.5341C65.2571 57.2578 65.2797 57.7461 65.3058 58.2933C65.6838 58.3017 66.061 58.3306 66.4358 58.3799C67.3329 58.553 68.8698 57.8292 68.9097 59.2734C68.9549 60.7989 67.3972 60.1842 66.5245 60.1928C65.2902 60.2205 65.0016 60.6863 65.4136 61.8482L65.3997 61.8464ZM13.9241 41.9803C13.6737 35.3727 13.4599 28.9504 13.1644 22.5333C13.0913 20.9628 11.89 19.9689 10.4888 20.026C9.04235 20.0866 8.06705 21.1896 8.00099 22.8952C7.76919 28.719 7.54725 34.5433 7.33515 40.3683C7.31602 40.8877 7.33515 41.4193 7.33515 41.9803H13.9241ZM25.593 41.9803C25.593 41.3172 25.6104 40.7683 25.593 40.235C25.382 34.5589 25.1676 28.8829 24.9497 23.2069C24.868 21.155 23.891 19.9931 22.3055 20.0139C20.7686 20.0347 19.8194 21.1307 19.7359 23.1307C19.5285 28.0517 19.3448 32.974 19.1848 37.8974C19.1396 39.2341 19.1848 40.5743 19.1848 41.989L25.593 41.9803ZM75.0554 24.0726C75.0554 20.3567 75.111 16.8001 74.9911 13.2418C74.9737 12.7344 74.1218 11.8998 73.6142 11.8669C73.1065 11.834 72.1086 12.6098 72.093 13.0565C71.9678 16.6928 72.0217 20.3481 72.0217 24.0726H75.0554ZM83.9114 24.0726C83.9114 20.3775 83.9114 16.8659 83.9114 13.3526C83.9114 12.4124 83.4368 11.7942 82.4615 11.7717C81.4184 11.7492 80.8724 12.3743 80.8551 13.3768C80.822 15.3872 80.8412 17.3975 80.8394 19.4078C80.8394 20.9437 80.8394 22.4814 80.8394 24.0726H83.9114ZM66.2046 24.0726C66.2046 20.4 66.2151 16.8884 66.2046 13.3768C66.2046 12.3587 65.6379 11.7526 64.6104 11.7648C63.6316 11.7786 63.1622 12.4158 63.1501 13.3457C63.1205 15.4564 63.1274 17.5672 63.1222 19.678C63.1222 21.1169 63.1222 22.5558 63.1222 24.0726H66.2046ZM64.2262 34.2784V44.4946H66.6879V34.2784H64.2262ZM82.8283 44.5379V34.3217H80.377V44.5379H82.8283ZM74.7251 44.5379V34.3096H72.3085V44.5379H74.7251Z" fill="#DCBC95"/>
<path d="M16.4554 75.1881C15.6993 75.1881 14.9396 75.2297 14.1851 75.1881C12.5719 75.079 11.3151 73.8306 11.3342 72.2445C11.3342 71.815 11.8035 71.3908 12.0556 70.9648C12.4033 71.2557 13.0187 71.5103 13.0639 71.8428C13.2377 73.1847 14.053 73.4462 15.2038 73.3769C15.9094 73.3302 16.6173 73.3302 17.3229 73.3769C18.6527 73.4773 19.7444 73.3405 19.9305 71.6644C19.9617 71.3995 20.6258 70.9718 20.9092 71.0341C21.1925 71.0964 21.5802 71.6194 21.6288 71.9795C21.8305 73.5016 20.4885 75.034 18.8683 75.1725C18.0669 75.2401 17.2533 75.1846 16.4467 75.1846L16.4554 75.1881Z" fill="#DCBC95"/>
<path d="M73.3541 75.1861C72.6466 75.1861 71.9374 75.2259 71.2351 75.1861C69.6323 75.0787 68.3633 73.8112 68.3911 72.2286C68.3911 71.8043 68.8726 71.3888 69.1334 70.9697C69.481 71.2658 70.0756 71.5273 70.1242 71.8667C70.3189 73.2156 71.1481 73.4407 72.2868 73.3766C73.0933 73.3307 73.9018 73.3307 74.7083 73.3766C75.9026 73.4476 76.7944 73.2381 76.9578 71.7939C76.9926 71.4892 77.6375 71.252 78.0008 70.9836C78.2407 71.3714 78.6649 71.7489 78.6857 72.1472C78.7726 73.6935 77.4967 75.0648 75.9252 75.1791C75.0734 75.2345 74.2112 75.1826 73.3541 75.1861Z" fill="#DCBC95"/>
<path d="M44.9836 75.1775C44.2274 75.1775 43.4677 75.2156 42.7133 75.1775C41.1175 75.0805 39.8189 73.7923 39.8502 72.2339C39.8502 71.8062 40.3282 71.3871 40.5855 70.9629C40.9332 71.2521 41.5347 71.5049 41.5851 71.8391C41.7833 73.1637 42.5812 73.4459 43.7337 73.3767C44.4394 73.3334 45.1471 73.3334 45.8528 73.3767C47.167 73.4615 48.2865 73.3628 48.4829 71.6728C48.5125 71.4096 49.1661 70.9906 49.4564 71.0443C49.7467 71.098 50.1309 71.6209 50.1813 71.9793C50.3812 73.4061 49.074 74.9732 47.5529 75.1377C46.7063 75.2294 45.8406 75.1533 44.9836 75.1533V75.1775Z" fill="#DCBC95"/>
<path d="M56.3179 35.0088V57.7995C56.3179 59.9432 56.3179 59.964 54.1065 59.9674C47.8878 59.9796 41.6692 59.9467 35.4505 59.9934C34.1084 60.0038 33.559 59.6107 33.5625 58.1926C33.5938 42.6456 33.5938 27.0985 33.5625 11.5515C33.5625 10.1663 34.0841 9.70568 35.4471 9.71606C41.7671 9.76224 48.0866 9.76224 54.4055 9.71606C55.8363 9.70394 56.3683 10.1403 56.3579 11.6208C56.3005 19.4128 56.3318 27.2169 56.3318 35.0158L56.3179 35.0088ZM54.3934 58.0766V11.697H35.5618V58.0766H54.3934Z" fill="#DCBC95"/>
<path d="M9.72642 30.5752C9.72642 28.9146 9.65864 27.2524 9.76468 25.5987C9.79771 25.0879 10.2862 24.6066 10.58 24.1113C10.9085 24.5806 11.5083 25.0429 11.5204 25.5208C11.6004 29.037 11.6004 32.5578 11.5204 36.0833C11.5204 36.5387 10.9572 36.9819 10.6512 37.4321C10.3418 36.9577 9.79249 36.4988 9.76468 36.0088C9.66385 34.1976 9.72816 32.3847 9.72642 30.5752Z" fill="#DCBC95"/>
<path d="M23.2462 30.827C23.2462 32.5828 23.307 34.3438 23.2044 36.0944C23.1784 36.555 22.6499 36.9878 22.3526 37.4329C22.0276 37 21.4313 36.5671 21.4226 36.1342C21.3461 32.5707 21.3461 29.0071 21.4226 25.4436C21.4226 25.0003 22.0032 24.5778 22.3144 24.1328C22.6256 24.557 23.1836 24.9674 23.2062 25.4072C23.3053 27.2098 23.2462 29.0193 23.2462 30.827Z" fill="#DCBC95"/>
<path d="M45.9654 14.2471C46.2505 14.4704 46.7025 14.6557 46.7216 14.8791C46.7563 15.2721 46.6468 15.7951 46.3895 16.0738C45.2978 17.253 44.1297 18.3647 42.9928 19.4971C41.5325 20.9516 40.1071 22.4408 38.5825 23.826C38.2574 24.1221 37.5725 24.0251 37.0527 24.1083C37.1449 23.5888 37.0527 22.8858 37.3587 22.5689C39.8724 19.9716 42.4556 17.4349 45.0284 14.8929C45.27 14.6523 45.5934 14.4981 45.9654 14.2471Z" fill="#DCBC95"/>
<path d="M40.8459 13.3836C40.9937 13.8771 41.4248 14.6096 41.2422 14.8278C40.2885 15.9821 39.2274 17.0442 38.0732 17.9999C37.4091 18.535 36.4739 17.858 36.8337 17.2952C37.7655 15.8338 39.0675 14.6044 40.2218 13.2832L40.8459 13.3836Z" fill="#DCBC95"/>
</svg>
