<svg width="90" height="90" viewBox="0 0 90 90" fill="none" xmlns="http://www.w3.org/2000/svg">
<path d="M1.2194 83.8753C1.13481 83.4259 1.00793 83.0681 1.00793 82.7104C0.997356 72.5522 0.997356 62.3929 1.00793 52.2324C1.00793 51.2243 1.24585 51.0234 2.37728 51.0234H87.3822C88.8925 51.0234 89 51.1274 89 52.6095V82.3932C89 83.8224 88.8625 83.9793 87.4509 83.9793L21.7384 83.9476C15.4539 83.9476 9.16817 83.9511 2.8813 83.9581C2.38608 83.9581 1.89086 83.9105 1.2194 83.8753ZM2.66807 82.3156H87.3082V52.6871H2.66807V82.3156Z" fill="#DCBC95"/>
<path d="M88.7402 6.10337C88.8283 6.51399 88.9816 6.8929 88.9834 7.27357C88.9951 17.8159 88.9951 28.3582 88.9834 38.9006C88.9834 39.8998 88.7261 40.1624 87.7392 40.1624C78.6643 40.1624 69.5905 40.1624 60.518 40.1624C59.4888 40.1624 59.2949 39.9633 59.2949 38.9076C59.2949 28.3653 59.2949 17.823 59.2949 7.28062C59.2949 6.16858 59.4712 6.00998 60.7823 6.00822C67.8599 6.00117 74.9369 6.00117 82.0133 6.00822C83.8038 6.00822 85.5961 6.00822 87.3867 6.00822C87.7991 6.0135 88.2062 6.0646 88.7402 6.10337ZM60.8951 38.4653H87.2616V7.64718H60.9039L60.8951 38.4653Z" fill="#DCBC95"/>
<path d="M1.23088 6.10985C1.77015 6.06931 2.1755 6.01115 2.57907 6.01115C11.3908 6.0041 20.2025 6.0041 29.0142 6.01115C30.6003 6.01115 30.6884 6.10279 30.6884 7.71005C30.6884 18.0162 30.6884 28.323 30.6884 38.6304C30.6884 40.0826 30.5986 40.1707 29.1394 40.1707H2.35173C1.24674 40.1707 1.00176 39.9345 1 38.8366C1 28.3518 1 17.8682 1 7.38578C1.00881 6.96811 1.14981 6.55925 1.23088 6.10985ZM29.0759 38.4771V7.65896H2.68658V38.4771H29.0759Z" fill="#DCBC95"/>
<path d="M41.3425 24.6906V23.3406C41.3425 18.0265 41.3425 12.7142 41.3425 7.40371C41.3425 6.19122 41.4976 6.02203 42.6995 6.01146C44.2551 5.99618 45.8107 5.99618 47.3662 6.01146C48.473 6.02555 48.6457 6.21061 48.6457 7.30327C48.6457 12.6737 48.6457 18.0447 48.6457 23.4164V24.6853C49.6502 24.6853 50.5754 24.7522 51.4883 24.6676C52.6251 24.5654 53.2366 25.0007 53.6842 26.0616C54.5654 28.1394 55.5911 30.1521 56.5445 32.1981C57.0996 33.3877 56.8194 33.8301 55.5188 33.8301C48.5047 33.8301 41.49 33.8301 34.4747 33.8301C33.167 33.8301 32.8886 33.3895 33.4331 32.2087C34.4623 30.0022 35.525 27.8134 36.5313 25.5981C36.8292 24.9461 37.2363 24.6588 37.9535 24.68C39.0356 24.7152 40.1142 24.6906 41.3425 24.6906ZM52.0047 26.3031H37.9888C37.0777 28.2417 36.1753 30.1503 35.2166 32.1788H54.7786C53.8005 30.1115 52.9053 28.2117 52.0047 26.3031ZM47.0543 24.6059V7.63812H42.9674V24.6059H47.0543Z" fill="#DCBC95"/>
<path d="M44.9535 54.705H64.3305C65.8937 54.705 65.9395 54.7473 65.9395 56.2682C65.9395 63.7875 65.9395 71.3033 65.9395 78.8156C65.9395 80.1779 65.7827 80.3365 64.4256 80.3365H25.4972C24.2636 80.3365 24.0662 80.1321 24.0645 78.9072C24.0645 71.2704 24.0645 63.6371 24.0645 56.0074C24.0645 54.8213 24.1755 54.712 25.3985 54.712C31.9169 54.705 38.4352 54.7026 44.9535 54.705ZM64.3393 56.314H25.6735V78.62H64.3322L64.3393 56.314Z" fill="#DCBC95"/>
<path d="M4.62159 54.783C5.09742 54.7513 5.44107 54.709 5.78649 54.709C10.8679 54.709 15.9482 54.709 21.0272 54.709C22.3014 54.709 22.4054 54.8112 22.4072 56.0537C22.4072 59.1942 22.4072 62.3358 22.4072 65.4787C22.4072 66.559 22.1974 66.7669 21.1224 66.7669C15.9834 66.7669 10.8444 66.7669 5.70543 66.7669C4.64803 66.7669 4.36076 66.4744 4.359 65.3941C4.359 62.28 4.34666 59.1677 4.359 56.0537C4.36957 55.643 4.52818 55.2324 4.62159 54.783ZM6.03146 65.0857H20.7858V56.3462H6.03146V65.0857Z" fill="#DCBC95"/>
<path d="M4.61787 68.342C5.09899 68.3155 5.44441 68.2803 5.79159 68.2803C10.8707 68.2803 15.9497 68.2803 21.0288 68.2803C22.3065 68.2803 22.4052 68.3737 22.407 69.6197C22.407 72.732 22.407 75.8454 22.407 78.9601C22.407 79.2791 22.3717 79.5963 22.3435 80.058C21.9223 80.1567 21.5187 80.3312 21.1099 80.3329C15.9721 80.3517 10.8342 80.3517 5.69642 80.3329C4.63901 80.3329 4.35528 80.0263 4.35352 78.9477C4.35352 75.8354 4.35351 72.7231 4.36937 69.6073C4.37642 69.2002 4.52799 68.7896 4.61787 68.342ZM6.04009 78.6288H20.7874V69.884H6.04009V78.6288Z" fill="#DCBC95"/>
<path d="M85.3945 54.8092C85.4808 55.2692 85.6236 55.6904 85.6253 56.0975C85.6447 59.1799 85.6394 62.2657 85.6342 65.3445C85.6342 66.483 85.3539 66.765 84.2454 66.765C79.1381 66.765 74.0274 66.765 68.913 66.765C67.7728 66.765 67.586 66.5729 67.5825 65.4309C67.5825 62.2305 67.5825 59.0301 67.5684 55.8314C67.5684 55.0613 67.8521 54.7053 68.654 54.707C73.941 54.7229 79.228 54.707 84.5045 54.7194C84.7424 54.7123 84.9733 54.7617 85.3945 54.8092ZM69.1968 56.3143V65.0573H83.9211V56.3143H69.1968Z" fill="#DCBC95"/>
<path d="M85.3792 68.3618C85.4673 68.79 85.6224 69.2006 85.6241 69.6113C85.6418 72.7218 85.6347 75.8341 85.6241 78.9517C85.6241 80.0532 85.321 80.3387 84.1896 80.3404C79.1129 80.3404 74.035 80.3404 68.9559 80.3404C68.5417 80.3404 68.1293 80.1959 67.6764 80.1113C67.6377 79.7007 67.5865 79.417 67.5865 79.1315C67.5865 75.9028 67.5971 72.6742 67.5742 69.4386C67.5742 68.6244 67.8562 68.2719 68.7039 68.2754C73.9574 68.2948 79.2127 68.2754 84.4663 68.286C84.7271 68.2807 84.9844 68.3248 85.3792 68.3618ZM83.9006 78.638V69.8739H69.2061V78.638H83.9006Z" fill="#DCBC95"/>
<path d="M85.6638 23.0992C85.6638 27.2384 85.6638 31.3781 85.6638 35.5185C85.6638 36.7222 85.5387 36.8667 84.372 36.8667C77.5329 36.8737 70.6927 36.8737 63.8513 36.8667C62.7357 36.8667 62.5154 36.6358 62.5137 35.5132C62.5137 27.2337 62.5137 18.9548 62.5137 10.6765C62.5137 9.53624 62.7833 9.2666 63.9059 9.2666C70.7203 9.2666 77.5312 9.2666 84.3385 9.2666C85.4999 9.2666 85.6621 9.4305 85.6638 10.5901C85.6673 14.7551 85.6673 18.9248 85.6638 23.0992ZM64.2355 10.9584V35.2664H84.0636V10.9584H64.2355Z" fill="#DCBC95"/>
<path d="M4.31445 9.557C4.79381 9.45126 5.19563 9.28561 5.60097 9.28561C12.4706 9.26799 19.3396 9.26328 26.208 9.2715C27.1632 9.2715 27.4734 9.56935 27.4752 10.5369C27.4822 18.9021 27.4822 27.268 27.4752 35.6344C27.4752 36.6372 27.2108 36.8681 26.1058 36.8681C19.7356 36.8681 13.3653 36.8681 6.99497 36.8681C6.40811 36.8681 5.82125 36.868 5.23263 36.8592C4.644 36.8504 4.31622 36.5473 4.31798 35.9287C4.31798 35.2238 4.31798 34.5188 4.31798 33.8139V9.557H4.31445ZM5.91818 35.2573H25.7816V10.9775H5.91818V35.2573Z" fill="#DCBC95"/>
<path d="M44.9999 58.957C47.6399 58.957 50.2793 58.957 52.9181 58.957C53.4767 58.957 54.0583 58.987 54.0883 59.699C54.12 60.4638 53.5014 60.5801 52.9234 60.5801C47.6434 60.5907 42.3646 60.5907 37.0869 60.5801C36.5089 60.5801 35.8868 60.4727 35.915 59.7096C35.9414 59.0046 36.5212 58.9606 37.0817 58.9623C39.7158 58.9647 42.3552 58.9629 44.9999 58.957Z" fill="#DCBC95"/>
<path d="M13.3701 59.2281C12.1364 59.2281 10.9028 59.2281 9.66915 59.2281C9.12811 59.2281 8.61173 59.1541 8.59235 58.4897C8.57296 57.8253 9.06994 57.7072 9.6286 57.709C12.1499 57.7161 14.6713 57.7161 17.1926 57.709C17.7213 57.709 18.1601 57.8235 18.1689 58.4457C18.1795 59.1277 17.6984 59.2264 17.1432 59.2229C15.8832 59.2123 14.6231 59.2229 13.363 59.2229L13.3701 59.2281Z" fill="#DCBC95"/>
<path d="M13.3615 72.7871C12.1032 72.7871 10.8449 72.7871 9.58657 72.7871C9.05787 72.7871 8.612 72.6497 8.59614 72.0522C8.58028 71.4548 9.00147 71.2697 9.53899 71.2715C12.1155 71.2715 14.6909 71.2715 17.2651 71.2715C17.8061 71.2715 18.2185 71.4477 18.2044 72.0522C18.1903 72.6567 17.755 72.7942 17.2246 72.7889C15.9363 72.7801 14.648 72.7871 13.3615 72.7871Z" fill="#DCBC95"/>
<path d="M76.6307 57.7139C77.8643 57.7139 79.0874 57.7139 80.3175 57.7139C80.8621 57.7139 81.3749 57.8038 81.3908 58.4558C81.4066 59.1079 80.9114 59.2365 80.358 59.2348C77.8132 59.2348 75.2678 59.2348 72.7218 59.2348C72.179 59.2348 71.7684 59.0709 71.7878 58.4594C71.8072 57.8478 72.2372 57.7139 72.7676 57.7192C74.0559 57.7244 75.3424 57.7244 76.6307 57.7139Z" fill="#DCBC95"/>
<path d="M76.5459 72.7871C75.284 72.7871 74.0222 72.7871 72.7603 72.7871C72.2316 72.7871 71.8016 72.6355 71.8087 72.0222C71.8157 71.4089 72.2528 71.2715 72.7797 71.2715C75.334 71.2715 77.887 71.2715 80.4389 71.2715C80.9676 71.2715 81.4064 71.4477 81.3994 72.0416C81.3923 72.6355 80.9517 72.7924 80.4195 72.7889C79.1224 72.7818 77.8324 72.7889 76.5459 72.7871Z" fill="#DCBC95"/>
<path d="M82.6977 23.0431C82.6977 24.3355 82.6977 25.6238 82.6977 26.908C82.6977 27.4367 82.6255 27.9759 81.9558 27.9847C81.235 27.9847 81.1662 27.4437 81.168 26.871C81.168 24.3532 81.168 21.8348 81.168 19.3158C81.168 18.7448 81.2209 18.1967 81.9487 18.2002C82.629 18.2002 82.6907 18.7289 82.6889 19.2576C82.6889 20.5177 82.6889 21.776 82.6889 23.0361L82.6977 23.0431Z" fill="#DCBC95"/>
<path d="M24.4835 23.1341C24.4835 24.336 24.4835 25.5385 24.4835 26.7416C24.4835 27.3285 24.4271 27.9576 23.6904 27.9753C22.9538 27.9929 22.8516 27.3884 22.8516 26.7857C22.8516 24.3184 22.8516 21.8552 22.8516 19.3962C22.8516 18.804 22.9185 18.1995 23.6887 18.2172C24.4588 18.2348 24.4782 18.8569 24.4764 19.4385C24.4764 20.671 24.4764 21.9046 24.4764 23.1394L24.4835 23.1341Z" fill="#DCBC95"/>
</svg>
