<svg width="90" height="90" viewBox="0 0 90 90" fill="none" xmlns="http://www.w3.org/2000/svg">
<path d="M44.8814 79.3058H4.78125C4.38657 79.3241 3.99108 79.313 3.59806 79.2725C2.72097 79.1408 2.18488 78.619 2.04531 77.734C2.00766 77.4326 1.99387 77.1288 2.00407 76.8252C2.00407 63.5193 2.00407 50.2133 2.00407 36.9074C2.00407 36.4316 1.95808 35.9383 2.17537 35.48C2.65118 34.4792 3.52034 34.3903 4.47673 34.3983C5.86929 34.411 5.72496 34.5886 5.73606 33.1294C5.73606 32.5521 5.7202 31.9748 5.73606 31.3975C5.78681 30.035 6.49419 29.3023 7.85027 29.3356C8.59571 29.3578 8.8812 29.177 8.8019 28.384C8.75378 27.6563 8.75007 26.9264 8.7908 26.1984C8.82093 25.0088 9.55052 24.2269 10.7147 24.2237C16.3959 24.2089 22.0766 24.2089 27.7568 24.2237C28.783 24.2237 29.492 24.8582 29.5982 25.8796C29.7275 27.0884 29.7275 28.3076 29.5982 29.5164C29.4825 30.5965 28.783 31.1722 27.5665 31.1484C26.8115 31.1326 26.5927 31.3451 26.6053 32.1096C26.645 34.3824 26.6054 34.3824 28.875 34.3824C31.9741 34.3824 35.0733 34.357 38.1709 34.3998C38.9734 34.4109 39.2462 34.2413 39.243 33.3673C39.2034 26.108 39.2208 18.847 39.2208 11.5861C39.2208 10.1269 39.3572 10 40.8497 10H85.6113C87.0895 10 87.2418 10.1443 87.2418 11.6019C87.2418 33.5666 87.2418 55.5309 87.2418 77.4945C87.2418 79.2202 87.1641 79.2931 85.4353 79.2931L44.8814 79.3058ZM57.1987 34.3428C57.1004 33.924 56.9402 33.5196 56.9196 33.1072C56.8006 30.7091 56.826 28.3094 56.9006 25.9113C56.9259 25.1183 57.3256 24.3586 58.0346 24.1857C59.2416 23.8907 59.1448 23.104 59.1179 22.2301C59.0957 21.5956 59.1084 20.9612 59.1179 20.3157C59.129 19.5227 59.5064 18.9358 60.1599 18.506C60.6484 18.1888 61.1956 18.2047 61.746 18.2031C63.6635 18.2031 64.4058 18.9263 64.4153 20.8153C64.4153 21.6353 64.4153 22.4553 64.4153 23.2769C64.4153 23.556 64.4359 23.7527 64.7928 23.8827C66.2551 24.422 66.696 25.0612 66.7055 26.5933C66.7198 28.5061 66.6596 30.422 66.7341 32.3332C66.7611 33.0374 65.9998 33.9098 66.6516 34.3253C67.1925 34.6695 68.1267 34.3745 68.8848 34.411C69.3717 34.4348 69.6604 34.2635 69.903 33.8368C70.4566 32.8614 71.0529 31.9082 71.6477 30.9581C72.612 29.4244 74.1632 29.4307 75.137 30.9756C75.7032 31.8733 76.2806 32.7678 76.7833 33.702C77.0863 34.2635 77.4717 34.4268 78.0871 34.4157C80.2124 34.3792 82.3409 34.3745 84.4662 34.4157C85.1704 34.43 85.3877 34.2571 85.3845 33.5164C85.3559 26.5896 85.3559 19.6638 85.3845 12.7391C85.3845 12.0619 85.2164 11.8684 84.528 11.87C70.3403 11.889 56.153 11.889 41.9663 11.87C41.3033 11.87 41.0702 12.0286 41.0813 12.7312C41.1209 15.4275 41.0971 18.138 41.0971 20.8423C41.0971 25.0643 41.1146 29.288 41.0797 33.5101C41.0797 34.2492 41.3017 34.4744 42.0091 34.4125C42.6435 34.3586 43.278 34.4126 43.9219 34.3983C44.3406 34.3983 44.8894 34.5029 45.1416 34.2841C45.3937 34.0652 44.983 33.5815 44.9338 33.1992C44.9146 33.0487 44.904 32.8973 44.9021 32.7456C44.9021 30.5568 44.9021 28.3692 44.9021 26.1825C44.9021 25.3276 45.2288 24.4379 45.9996 24.2444C47.3303 23.9034 47.1257 23.0072 47.121 22.1016C47.121 21.6163 47.1099 21.1293 47.121 20.644C47.159 19.0326 48.0012 18.2189 49.6364 18.2047C51.5508 18.1872 52.4263 18.9025 52.4913 20.5837C52.5231 21.4624 52.5072 22.3458 52.4913 23.2261C52.4913 23.5972 52.5675 23.7876 52.9909 23.9224C54.1805 24.303 54.7166 25.1151 54.7229 26.3982C54.734 28.403 54.6611 30.4125 54.761 32.4125C54.7943 33.0961 53.9997 33.9304 54.6769 34.3285C55.2416 34.6616 56.1551 34.403 56.9148 34.4014C57.011 34.3902 57.106 34.3705 57.1987 34.3428ZM21.4856 77.4422C27.105 77.4422 32.7243 77.4295 38.3421 77.4596C39.0638 77.4596 39.2525 77.263 39.2494 76.5477C39.2208 70.8077 39.2335 65.0678 39.2335 59.3279C39.2335 57.2422 39.2335 57.2422 37.1082 57.22H36.9258C36.0297 57.1883 35.749 56.9028 35.7664 55.9829C35.7997 54.2002 36.3453 52.4936 37.7331 51.4484C39.1828 50.3635 39.3874 49.0931 39.2367 47.5403C39.2081 47.2985 39.2081 47.0541 39.2367 46.8123C39.3382 46.1113 39.0892 45.8972 38.3548 45.8987C27.1467 45.9241 15.9386 45.9241 4.7305 45.8987C3.98664 45.8987 3.84548 46.1271 3.84548 46.8139C3.86769 56.7151 3.86769 66.6163 3.84548 76.5175C3.84548 77.2931 4.06752 77.4692 4.8098 77.4596C10.3753 77.4311 15.9265 77.4422 21.4856 77.4422ZM68.4137 36.3206C68.2975 36.2949 68.1799 36.2753 68.0616 36.2619C59.3161 36.2619 50.5706 36.2555 41.8251 36.2429C41.1907 36.2429 41.0813 36.4808 41.0844 37.0359C41.1035 40.8012 41.1146 44.5665 41.0844 48.3318C41.0765 49.1248 41.1875 49.5197 42.0995 49.2358C42.4611 49.1232 42.883 49.1961 43.278 49.1961H64.7769C66.9641 49.1961 66.926 49.1962 66.972 46.9646C67.0402 43.388 66.4216 39.7163 68.4137 36.3206ZM21.4665 44.0462C27.0859 44.0462 32.7069 44.0367 38.3263 44.0605C39.0115 44.0605 39.2779 43.9241 39.2589 43.166C39.2034 41.1326 39.2161 39.0962 39.2589 37.0612C39.27 36.4268 39.113 36.2413 38.4659 36.2413C27.1954 36.2624 15.9249 36.2624 4.65437 36.2413C3.98664 36.2413 3.86134 36.4601 3.86134 37.0692C3.89782 39.074 3.92637 41.0803 3.85024 43.0835C3.81852 43.9431 4.1278 44.0669 4.88276 44.0621C10.4022 44.0335 15.9265 44.0462 21.4602 44.0462H21.4665ZM61.5778 55.3263H66.2266C72.2425 55.3263 78.2584 55.3104 84.2743 55.3453C85.1149 55.3453 85.5003 55.1994 85.3845 54.2699C85.3044 53.5441 85.3044 52.8117 85.3845 52.0859C85.4749 51.2311 85.1529 51.0423 84.3329 51.0439C73.5161 51.0703 62.6992 51.0762 51.8823 51.0613C48.9655 51.0613 46.0488 51.0502 43.1304 51.0613C40.7165 51.074 38.8291 52.2921 38.0107 54.3254C37.63 55.2771 37.6617 55.3199 38.6943 55.3215L61.5778 55.3263ZM54.8704 57.3152C54.8054 57.2819 54.7562 57.2343 54.7118 57.2343C50.3724 57.2343 46.0329 57.2343 41.6935 57.2121C41.1812 57.2121 41.0971 57.4294 41.0971 57.8671C41.1066 64.1796 41.1103 70.4921 41.1082 76.8046C41.1082 77.0282 41.0353 77.2804 41.3493 77.42C42.1122 77.7372 43.4112 77.3327 43.8315 76.6158C47.3758 70.4746 50.918 64.3334 54.458 58.1922C54.6103 57.9226 54.8577 57.6673 54.8641 57.3152H54.8704ZM75.6636 77.393C75.6546 77.2897 75.6328 77.188 75.5985 77.0901C74.1711 74.6174 72.7437 72.1527 71.3416 69.6705C71.1164 69.2708 70.8229 69.2407 70.4439 69.2423C65.8253 69.2423 61.2083 69.2534 56.5897 69.2328C56.0647 69.2328 55.7776 69.4009 55.5239 69.8529C54.2883 72.0464 53.0147 74.2193 51.7665 76.4065C51.5936 76.7078 51.3066 76.9695 51.3414 77.393H75.6636ZM71.9966 57.22C72.1425 57.5229 72.198 57.6609 72.2726 57.7894C75.9395 64.1442 79.6086 70.499 83.2798 76.8538C83.3332 76.9649 83.3964 77.071 83.4686 77.171C83.9285 77.7118 84.5407 77.4232 85.0784 77.4184C85.5383 77.4184 85.3639 76.9584 85.3639 76.6952C85.375 70.4413 85.3639 64.186 85.3845 57.9306C85.3845 57.3739 85.2386 57.2073 84.6739 57.2152C82.3361 57.2454 79.9983 57.2279 77.6588 57.2279L71.9966 57.22ZM73.4035 31.7242C72.2663 33.6005 71.221 35.3023 70.2012 37.0184C69.3981 38.3151 68.9532 39.8015 68.9117 41.3262C68.8721 43.7243 68.8959 46.1224 68.8547 48.5205C68.8435 49.1232 69.0973 49.2104 69.616 49.2073C72.1362 49.1851 74.6564 49.1771 77.1751 49.2073C77.7984 49.2168 77.9316 48.9979 77.9237 48.4253C77.8936 46.2049 77.911 43.9844 77.9078 41.7766C77.9304 40.3127 77.5747 38.8677 76.8753 37.5815C75.7905 35.6544 74.62 33.7765 73.3971 31.7242H73.4035ZM78.3202 36.2571C79.8539 38.909 79.892 41.6608 79.8476 44.4301C79.827 45.7957 79.8619 47.1612 79.8365 48.5253C79.827 49.0312 79.9776 49.2184 80.5058 49.2073C81.9332 49.1755 83.3607 49.1866 84.7881 49.2073C85.1974 49.2073 85.3845 49.1121 85.3829 48.6553C85.3692 44.7113 85.3692 40.7673 85.3829 36.8233C85.3829 36.3872 85.2418 36.2508 84.8103 36.254C82.7088 36.2666 80.6168 36.2571 78.3155 36.2571H78.3202ZM69.9141 67.2835C69.7761 67.0123 69.7016 66.8505 69.6144 66.6967C67.9035 63.736 66.1901 60.7722 64.474 57.8053C63.9537 56.906 62.9989 56.9345 62.4629 57.8592C60.7943 60.7447 59.1306 63.6329 57.4715 66.5238C57.3431 66.7458 57.1083 66.9425 57.2067 67.2835H69.9141ZM45.5999 77.4343C46.5516 77.4343 47.3351 77.3914 48.1186 77.4485C48.753 77.4945 49.0924 77.2534 49.4049 76.711C52.9777 70.4799 56.5633 64.2557 60.1615 58.0384C60.2979 57.8005 60.5754 57.5864 60.447 57.2121C59.654 57.2121 58.8609 57.2517 58.0774 57.1994C57.4604 57.1581 57.1099 57.358 56.7927 57.9147C53.223 64.1532 49.6359 70.3774 46.0313 76.5873C45.8902 76.8252 45.7807 77.0679 45.5857 77.4422L45.5999 77.4343ZM81.3226 77.4343C81.305 77.3506 81.2828 77.268 81.256 77.1868C77.5076 70.6724 73.7587 64.159 70.0093 57.6466C69.9094 57.4754 69.8412 57.2311 69.5747 57.2295C68.539 57.2295 67.5033 57.2295 66.3471 57.2295C70.206 63.9211 73.9744 70.4572 77.7445 76.9917C77.8809 77.2297 78.022 77.4454 78.363 77.4406C79.3147 77.4311 80.2758 77.4406 81.3131 77.4406L81.3226 77.4343ZM64.7769 29.5529C64.7769 28.5188 64.7674 27.491 64.7769 26.4537C64.7769 25.9779 64.6183 25.7606 64.1203 25.6607C63.01 25.4371 62.5771 24.8915 62.5564 23.7749C62.539 22.7725 62.5295 21.7685 62.5564 20.7614C62.5739 20.1666 62.2725 20.0603 61.7634 20.054C61.2543 20.0477 60.9704 20.1825 60.9704 20.7661C60.9942 21.7971 60.9989 22.828 60.9609 23.8637C60.9228 24.8994 60.4565 25.491 59.4779 25.6432C58.8181 25.7463 58.7134 26.0794 58.7166 26.6345C58.7325 28.5473 58.7166 30.4617 58.7277 32.3761C58.7372 33.6053 59.3875 34.3047 60.6119 34.3808C61.3704 34.4284 62.1311 34.4284 62.8895 34.3808C64.1124 34.3047 64.7436 33.6068 64.7579 32.3729C64.7848 31.4355 64.7769 30.4934 64.7769 29.5529ZM52.8022 29.5973V26.5013C52.8022 26.0747 52.715 25.7749 52.19 25.6639C51.0004 25.4101 50.5706 24.8375 50.5563 23.6337C50.5468 22.6631 50.5326 21.6908 50.5563 20.7217C50.5722 20.1714 50.3026 20.0635 49.8315 20.0603C49.3605 20.0572 49.0163 20.127 49.0385 20.7439C49.0734 21.7447 49.0655 22.7471 49.0385 23.7479C49.0131 24.8296 48.5199 25.4609 47.4683 25.6512C46.9735 25.7432 46.7736 25.9684 46.7736 26.4236C46.7736 28.4855 46.7451 30.5473 46.8006 32.6092C46.8291 33.6719 47.4572 34.2777 48.5278 34.3539C49.3724 34.4201 50.2209 34.4201 51.0655 34.3539C52.1757 34.2635 52.7356 33.6259 52.7752 32.495C52.8276 31.5402 52.8006 30.568 52.8006 29.5973H52.8022ZM19.2762 29.3245H25.4618C27.7727 29.3245 27.7426 29.3245 27.7743 27.0231C27.7838 26.3031 27.5792 26.1064 26.8655 26.1111C22.2516 26.1413 17.6394 26.127 13.0256 26.127C10.6465 26.127 10.6703 26.127 10.6909 28.5362C10.6909 29.1897 10.9145 29.3451 11.5315 29.3292C14.1152 29.307 16.6957 29.3245 19.2746 29.3245H19.2762ZM16.1707 31.1897H9.9851C7.65994 31.1897 7.698 31.1897 7.65677 33.491C7.64249 34.2936 7.93116 34.4221 8.64647 34.4173C13.2254 34.3872 17.8059 34.4014 22.3849 34.4014C24.7227 34.4014 24.6973 34.4014 24.7164 32.1001C24.7164 31.4038 24.5578 31.1595 23.8123 31.1722C21.2651 31.2182 18.7163 31.1897 16.1691 31.1897H16.1707Z" fill="#DCBC95"/>
<path d="M22.14 75.0015C15.3009 75.2457 9.17719 70.846 8.23508 63.0347C7.40557 56.1464 12.4778 49.0552 20.232 48.3367C28.3827 47.5834 34.2257 53.677 34.8475 60.1322C35.5945 67.8801 30.378 74.6224 22.14 75.0015ZM21.5056 73.1854C27.7182 73.2298 33.0045 68.0894 33.0457 61.9657C33.0885 55.2805 28.2305 50.2971 21.6261 50.2511C15.0504 50.2067 10.0797 55.1219 10.0479 61.7056C10.0178 67.9784 15.1693 73.1394 21.5119 73.1854H21.5056Z" fill="#DCBC95"/>
<path d="M34.8013 40.1384C34.7458 40.6951 34.4508 41.0662 33.8893 41.09C33.3279 41.1138 32.9504 40.7728 32.9234 40.2161C32.8949 39.615 33.2597 39.228 33.8624 39.22C34.4254 39.2073 34.7125 39.5943 34.8013 40.1384Z" fill="#DCBC95"/>
<path d="M29.2571 40.1685C29.2269 40.7474 28.8954 41.0821 28.3435 41.0821C27.7915 41.0821 27.4188 40.7649 27.4141 40.1828C27.4141 39.5737 27.782 39.2074 28.3768 39.22C28.9319 39.2327 29.2396 39.596 29.2571 40.1685Z" fill="#DCBC95"/>
<path d="M30.3724 61.5702C30.3835 66.598 26.4914 70.514 21.5159 70.4823C16.5405 70.4505 12.7323 66.5964 12.7149 61.6004C12.6975 56.8422 16.6895 52.8771 21.4905 52.8565C26.3724 52.8469 30.3597 56.7581 30.3724 61.5702ZM21.5397 54.7962C17.5619 54.7962 14.6023 57.7923 14.6166 61.7939C14.6293 65.5068 17.7348 68.5631 21.5143 68.5822C25.3335 68.6012 28.4834 65.5259 28.493 61.7748C28.4898 57.778 25.5191 54.7946 21.5397 54.7994V54.7962Z" fill="#DCBC95"/>
</svg>
