<svg width="90" height="90" viewBox="0 0 90 90" fill="none" xmlns="http://www.w3.org/2000/svg">
<path d="M75.5405 56.7071V53.8C75.1164 53.8 74.657 53.7124 74.2594 53.7124H55.0246C54.7065 53.7124 54.3884 53.7124 54.0704 53.7124C56.1405 52.512 57.7901 50.7122 58.7973 48.555C58.8773 48.4343 58.9843 48.3337 59.1099 48.2608C59.2356 48.1879 59.3766 48.1447 59.5218 48.1347C60.9974 48.1347 60.7146 47.9158 60.7411 46.8037C60.7279 46.6055 60.7279 46.4066 60.7411 46.2084C60.856 45.4553 60.5379 45.2364 59.7781 45.2364C55.9258 45.2364 52.0736 45.2364 48.2213 45.2364H46.949C47.1557 44.8373 47.3919 44.4538 47.6558 44.0893C47.9118 43.8637 48.19 43.6643 48.4864 43.494C48.8574 43.2313 49.1578 42.9685 49.6968 43.3188C49.8901 43.3799 50.0958 43.3919 50.2949 43.3536C50.4941 43.3154 50.6804 43.2281 50.8366 43.0999C50.9606 42.9269 51.0433 42.7283 51.0785 42.5189C51.1137 42.3096 51.1005 42.095 51.0398 41.8915C50.7909 41.1936 50.42 40.5445 49.9442 39.9739C49.7824 39.8148 49.5861 39.6941 49.3702 39.6213C49.1544 39.5485 48.9246 39.5254 48.6984 39.5537C48.5055 39.6466 48.3391 39.7858 48.2141 39.9585C48.0892 40.1313 48.0096 40.3322 47.9827 40.5431C47.9827 41.121 47.7353 41.2611 47.0992 41.3574C47.1875 40.6744 47.2317 40.079 47.3466 39.5011C47.4173 39.1596 47.6911 38.8443 47.7 38.5028C47.6996 37.8474 47.6613 37.1925 47.5852 36.5415H59.0713C60.3524 36.5415 60.3524 36.5415 60.3524 35.2631C60.3524 24.2361 60.3524 13.2091 60.3524 2.18207C60.3524 1.78804 60.2817 1.39403 60.2463 1H31.54C31.54 1.30647 31.4869 1.62164 31.4869 1.93687C31.4869 13.1332 31.4869 24.3324 31.4869 35.5345C31.4869 36.3138 31.7078 36.5765 32.5207 36.5678C36.0549 36.5678 39.6509 36.5678 43.2116 36.5678H44.1923C44.1923 37.3558 44.0951 38.0125 44.0686 38.6605C44.0686 38.8794 44.0686 39.2296 44.1482 39.2997C45.0317 39.8864 44.4751 40.6832 44.6429 41.515L43.7594 41.1472C43.9715 40.4117 43.8831 39.7901 43.1498 39.5361C42.4164 39.2822 41.9569 39.6938 41.63 40.3154C41.2837 40.8106 40.9877 41.3385 40.7465 41.8915C40.6864 42.0941 40.6719 42.3074 40.704 42.5162C40.736 42.7249 40.8139 42.9241 40.932 43.0999C41.0832 43.234 41.2668 43.3271 41.465 43.3701C41.6631 43.413 41.8692 43.4044 42.063 43.3451C42.6285 42.9773 42.9465 43.2662 43.3353 43.5464C43.6391 43.7094 43.921 43.9095 44.1746 44.1419C44.416 44.4907 44.6203 44.8634 44.7843 45.254H32.9801C31.001 45.254 31.0275 45.2539 31.001 47.1891C31.001 47.8983 31.2131 48.2135 31.8845 48.0647C32.556 47.9158 32.8653 48.2661 33.1303 48.8265C34.0203 50.7935 35.5554 52.4043 37.4862 53.3972C37.6213 53.4918 37.7484 53.5972 37.8662 53.7124H36.7794C30.6829 53.7124 24.5776 53.7124 18.4812 53.7124C15.6892 53.7124 16.237 53.1608 16.2105 56.2605C16.2105 56.4619 16.5727 56.7947 16.8201 56.8472C17.2812 56.8954 17.7462 56.8954 18.2073 56.8472V87.7304H16.2546C15.979 87.8855 15.6811 87.9977 15.3711 88.0631L15 88.2119V88.3608C15.157 88.3942 15.3107 88.4411 15.4594 88.5009H74.604C74.9035 88.4711 75.1994 88.4124 75.4875 88.3258V87.9843L73.4907 87.7129V56.961L75.5405 56.7071ZM48.8928 40.2191C48.8928 40.1666 49.1578 40.1578 49.1932 40.2191C49.635 40.9021 50.0768 41.5939 50.5097 42.2944C50.3772 42.4607 50.3065 42.6183 50.2004 42.6533C50.1359 42.6624 50.0701 42.6561 50.0086 42.6348C49.9471 42.6135 49.8917 42.5778 49.847 42.5308C49.476 41.9266 49.1225 41.3136 48.7956 40.6831C48.7426 40.5343 48.8221 40.3242 48.8928 40.1928V40.2191ZM43.3176 35.6921H32.2998V1.65672H59.46V35.6921H48.6101C47.4968 35.6921 47.4968 35.6921 47.4615 34.4662C47.753 34.4662 48.0534 34.4662 48.345 34.4662C51.2784 34.4662 54.2118 34.4662 57.1805 34.4662C57.9845 34.4662 58.2937 34.2649 58.2937 33.4155C58.2937 23.6144 58.2937 13.8132 58.2937 4.01209C58.2937 3.2503 58.1082 2.97891 57.2865 2.97891C49.7233 3.01394 42.1602 3.01394 34.597 2.97891C33.7842 2.97891 33.5809 3.22412 33.5809 3.99467C33.5809 13.7958 33.5809 23.5969 33.5809 33.398C33.5809 34.2211 33.8195 34.4838 34.65 34.475C37.8396 34.475 41.0292 34.475 44.2012 34.475C44.4486 35.6046 44.3779 35.6921 43.3176 35.6921ZM44.5016 31.568V31.6555C44.3248 33.6432 44.3249 33.6432 42.2751 33.6432H34.3673V3.7407H57.4102V33.5731H47.4173C47.3643 32.9339 47.2936 32.2947 47.2494 31.6468C47.1876 30.7274 46.7105 30.1844 45.9241 30.1669C45.1377 30.1494 44.5987 30.6749 44.5016 31.5768V31.568ZM46.949 38.6605H44.8108C44.8727 37.7849 44.9345 36.9705 44.9875 36.1299C45.0847 34.6589 45.1466 33.1791 45.2968 31.7518C45.2968 31.4629 45.6679 31.2089 45.8622 30.9375C46.0743 31.1914 46.4631 31.4366 46.4807 31.708C46.6751 33.9408 46.7988 36.2701 46.949 38.6693V38.6605ZM41.8863 42.5045C41.8364 42.548 41.7757 42.5775 41.7104 42.5898C41.6451 42.6021 41.5777 42.5968 41.5152 42.5745C41.418 42.522 41.3208 42.303 41.365 42.2242C41.7184 41.55 42.0983 40.8845 42.4871 40.2366C42.5394 40.1975 42.6004 40.1716 42.6651 40.1609C42.7297 40.1502 42.7959 40.1551 42.8582 40.1753C42.9554 40.2279 43.0084 40.3855 43.0879 40.5168C42.6815 41.2086 42.2574 41.8741 41.8863 42.5133V42.5045ZM42.8847 42.1016C43.1527 42.0044 43.4316 41.9398 43.7152 41.909C43.9109 41.9446 44.0991 42.0127 44.2719 42.1104C45.2261 42.4694 45.3409 42.3906 45.3409 41.3399C45.3409 40.7182 45.3409 40.1053 45.3409 39.4486H46.3924C46.3924 40.1316 46.3924 40.797 46.3924 41.4712C46.3924 42.3468 46.5602 42.4519 47.3466 42.1279L48.4069 41.6552L48.7779 42.1981C47.8944 43.2488 46.1273 43.3363 46.357 45.1401H45.4028C45.6413 43.3626 43.8478 43.2487 42.8847 42.1104V42.1016ZM31.7874 47.2066V45.9719H59.9901V47.2066H31.7874ZM33.6605 48.0822H58.0022C57.4687 49.5662 56.5213 50.8698 55.2701 51.8417C54.019 52.8135 52.5153 53.4136 50.9338 53.5724C47.5526 53.765 44.163 53.765 40.7819 53.5724C37.3979 53.2922 35.1095 51.2432 33.6605 48.0822ZM20.743 87.7741H19.135V62.7051H20.743V87.7741ZM19.0996 61.7857V56.9172H36.3376V61.7857H19.0996ZM70.1332 87.7391H21.5824V86.1192H70.1332V87.7391ZM70.1332 85.2086H21.5382V62.6701H70.1332V85.2086ZM37.2123 61.7769V56.9172H54.4945V61.7769H37.2123ZM55.3692 61.7769V56.8909H72.669V61.7769H55.3692ZM72.669 87.7653H71.0698V62.7051H72.669V87.7653ZM16.9438 56.0241V54.4917H74.7807V56.0241H16.9438Z" fill="#DCBC95" stroke="#DCBC95" stroke-width="0.5" stroke-miterlimit="10"/>
<path d="M47.2053 7.2954C47.0374 7.4968 46.9049 7.68067 46.7459 7.83828C43.9804 10.579 41.2237 13.3198 38.4406 16.043C38.2092 16.1999 37.9474 16.3072 37.6719 16.3582C37.7602 16.078 37.7691 15.719 37.9546 15.4826C40.7054 12.7214 43.4679 9.98072 46.2423 7.26045C46.4533 7.09699 46.6974 6.9805 46.958 6.91895C46.958 6.91895 47.1081 7.1553 47.2053 7.2954Z" fill="#DCBC95" stroke="#DCBC95" stroke-width="0.5" stroke-miterlimit="10"/>
<path d="M37.3104 13.504C37.2132 13.215 37.0718 13.0049 37.1071 12.8298C37.1424 12.6546 37.3457 12.5233 37.487 12.3832C39.3513 10.5269 41.2156 8.67058 43.0976 6.84053C43.3555 6.67973 43.6394 6.5642 43.937 6.49902C43.8867 6.80924 43.7756 7.1067 43.61 7.37465C41.7458 9.26599 39.8461 11.1222 37.9553 12.9961C37.8405 13.1187 37.6108 13.2501 37.3104 13.504Z" fill="#DCBC95" stroke="#DCBC95" stroke-width="0.5" stroke-miterlimit="10"/>
<path d="M54.5393 73.8602C54.5393 70.9006 54.5393 67.941 54.5393 64.9814C54.5393 64.2021 54.7248 63.8693 55.5907 63.8781C59.6992 63.8781 63.8076 63.8781 67.9161 63.8781C68.7113 63.8781 68.9675 64.1321 68.9587 64.9114C68.9587 70.9473 68.9587 76.9833 68.9587 83.0193C68.9587 83.8161 68.6849 84.0349 67.8985 84.0349C63.7753 83.9999 59.6697 83.9999 55.5819 84.0349C54.7778 84.0349 54.5305 83.7811 54.5393 83.0018C54.557 79.9546 54.5393 76.9074 54.5393 73.8602ZM68.0664 83.1768V64.7363H55.3875V83.1768H68.0664Z" fill="#DCBC95" stroke="#DCBC95" stroke-width="0.5" stroke-miterlimit="10"/>
<path d="M22.873 73.9478C22.873 70.9269 22.873 67.9061 22.873 64.8852C22.873 64.0796 23.1469 63.8694 23.9245 63.8782C28.0064 63.8782 32.0884 63.8782 36.1704 63.8782C36.9921 63.8782 37.2572 64.1235 37.2572 64.9553C37.2219 70.9621 37.2219 76.9717 37.2572 82.9843C37.2572 83.7549 37.0451 84.0438 36.2323 84.035C32.0884 84.035 27.9534 84.035 23.8096 84.035C23.0851 84.035 22.873 83.7899 22.873 83.0894C22.8907 80.0422 22.873 76.995 22.873 73.9478ZM23.6594 64.7276V83.1682H36.3471V64.7276H23.6594Z" fill="#DCBC95" stroke="#DCBC95" stroke-width="0.5" stroke-miterlimit="10"/>
<path d="M45.8625 69.9724C43.795 69.9724 41.7187 69.9724 39.6777 69.9724C38.9797 69.9724 38.7058 69.7534 38.7235 69.0354C38.7235 67.6081 38.7235 66.1896 38.7235 64.7623C38.7235 64.0881 38.9797 63.8867 39.607 63.8867C43.7773 63.8867 47.9477 63.8867 52.118 63.8867C52.816 63.8867 53.0987 64.1057 53.0811 64.8237C53.0811 66.251 53.0811 67.6782 53.0811 69.0967C53.0811 69.7885 52.7983 69.9724 52.1975 69.9724C50.0593 69.9548 47.9654 69.9636 45.8625 69.9724ZM52.2241 64.7186H39.5187V69.0967H52.2241V64.7186Z" fill="#DCBC95" stroke="#DCBC95" stroke-width="0.5" stroke-miterlimit="10"/>
<path d="M45.8538 76.9948C43.7863 76.9948 41.7188 76.9948 39.6689 76.9948C38.9533 76.9948 38.7059 76.7495 38.7235 76.049C38.7235 74.6568 38.7235 73.2559 38.7235 71.8636C38.7235 71.1807 38.9179 70.8916 39.6071 70.8916C43.7774 70.8916 47.9477 70.8916 52.1181 70.8916C52.8249 70.8916 53.09 71.1369 53.0723 71.8461C53.0723 73.2383 53.0723 74.6393 53.0723 76.0315C53.0723 76.8108 52.7719 77.0123 52.0474 76.9948C49.9976 76.9773 47.9301 76.9948 45.8538 76.9948ZM39.5099 76.1191H52.2153V71.741H39.5099V76.1191Z" fill="#DCBC95" stroke="#DCBC95" stroke-width="0.5" stroke-miterlimit="10"/>
<path d="M45.8889 84.0172C43.8126 84.0172 41.7451 84.0172 39.7041 84.0172C39.0237 84.0172 38.7057 83.8509 38.7234 83.1416C38.7234 81.6968 38.7234 80.2433 38.7234 78.7635C38.7234 78.1768 38.9442 77.958 39.5362 77.958H52.3034C52.8866 77.958 53.1251 78.1768 53.1163 78.7635C53.1163 80.217 53.1163 81.6764 53.1163 83.1416C53.1163 83.8071 52.8866 84.0172 52.2327 84.0172C50.0857 83.9997 47.9829 84.0172 45.8889 84.0172ZM39.5362 78.7635V83.1416H52.2151V78.7635H39.5362Z" fill="#DCBC95" stroke="#DCBC95" stroke-width="0.5" stroke-miterlimit="10"/>
<path d="M63.9834 59.7278C63.6157 59.7541 63.2466 59.7541 62.879 59.7278C62.7376 59.7278 62.5785 59.4826 62.5344 59.325C62.4902 59.1674 62.7464 59.0186 62.8701 59.0186C63.6358 59.0186 64.4045 59.0186 65.1761 59.0186C65.2998 59.0186 65.5207 59.2462 65.5031 59.325C65.4854 59.4038 65.3087 59.7015 65.1761 59.719C64.779 59.7453 64.3805 59.7453 63.9834 59.719V59.7278Z" fill="#DCBC95" stroke="#DCBC95" stroke-width="0.5" stroke-miterlimit="10"/>
<path d="M45.8889 59.7274C45.5154 59.7536 45.1404 59.7536 44.7669 59.7274C44.6167 59.7274 44.4929 59.4998 44.3516 59.3772C44.4841 59.2546 44.6166 59.0182 44.758 59.0182C45.5025 58.9744 46.2489 58.9744 46.9934 59.0182C47.1347 59.0182 47.2673 59.2459 47.3998 59.3684C47.2673 59.491 47.1524 59.7099 47.0022 59.7274C46.6316 59.7537 46.2595 59.7537 45.8889 59.7274Z" fill="#DCBC95" stroke="#DCBC95" stroke-width="0.5" stroke-miterlimit="10"/>
<path d="M27.7237 59.7365C27.3798 59.7672 27.0339 59.7672 26.69 59.7365C26.5133 59.7365 26.3719 59.4914 26.2129 59.36C26.3543 59.2374 26.4868 59.0185 26.637 59.0098C27.3792 59.0098 28.1213 59.0098 28.8723 59.0098C29.0048 59.0098 29.1285 59.2462 29.2611 59.3776C29.1197 59.5002 28.996 59.7015 28.837 59.7277C28.4662 59.7496 28.0945 59.7496 27.7237 59.7277V59.7365Z" fill="#DCBC95" stroke="#DCBC95" stroke-width="0.5" stroke-miterlimit="10"/>
<path d="M56.3937 73.913C56.3672 73.6042 56.3672 73.2936 56.3937 72.9848C56.3937 72.836 56.6323 72.7222 56.7648 72.5908C56.8885 72.7222 57.1094 72.8447 57.1182 72.9848C57.158 73.6351 57.158 74.2871 57.1182 74.9374C57.1182 75.0775 56.8797 75.2002 56.7472 75.3228C56.6235 75.1914 56.4114 75.0775 56.3849 74.9374C56.3613 74.5962 56.3642 74.2538 56.3937 73.913Z" fill="#DCBC95" stroke="#DCBC95" stroke-width="0.5" stroke-miterlimit="10"/>
<path d="M35.3219 73.9655C35.3529 74.3034 35.3529 74.6434 35.3219 74.9813C35.3219 75.1126 35.0657 75.2089 34.9331 75.3228C34.8359 75.2002 34.6592 75.0863 34.6504 74.9637C34.6504 74.3158 34.6504 73.6679 34.6504 73.0287C34.6504 72.8798 34.8447 72.7397 34.9508 72.5996C35.0833 72.7485 35.2953 72.8798 35.3307 73.0462C35.3588 73.3374 35.3588 73.6306 35.3307 73.9218L35.3219 73.9655Z" fill="#DCBC95" stroke="#DCBC95" stroke-width="0.5" stroke-miterlimit="10"/>
<path d="M45.8368 66.339C45.4961 66.3742 45.1527 66.3742 44.8119 66.339C44.6441 66.339 44.5115 66.0763 44.3613 65.9362C44.5115 65.8224 44.6529 65.621 44.8119 65.621C45.5306 65.586 46.2462 65.586 46.959 65.621C47.1092 65.621 47.2505 65.8311 47.3919 65.945C47.2505 66.0851 47.118 66.3127 46.9501 66.339C46.5797 66.3697 46.2073 66.3697 45.8368 66.339Z" fill="#DCBC95" stroke="#DCBC95" stroke-width="0.5" stroke-miterlimit="10"/>
<path d="M45.8713 73.3873C45.5007 73.4136 45.1286 73.4136 44.758 73.3873C44.6078 73.3873 44.4841 73.1508 44.3516 73.0195C44.4929 72.8969 44.6255 72.6692 44.7669 72.6604C45.5115 72.621 46.2576 72.621 47.0022 72.6604C47.1436 72.6604 47.2673 72.8969 47.3998 73.0282C47.2673 73.1508 47.1436 73.361 46.9934 73.3785C46.62 73.4076 46.2451 73.4105 45.8713 73.3873Z" fill="#DCBC95" stroke="#DCBC95" stroke-width="0.5" stroke-miterlimit="10"/>
<path d="M45.8801 80.4103C45.5095 80.4367 45.1375 80.4367 44.7669 80.4103C44.6078 80.4103 44.4841 80.1828 44.3516 80.0514C44.4841 79.9288 44.6167 79.7011 44.7669 79.6924C45.509 79.6924 46.2512 79.6924 47.0022 79.6924C47.1347 79.6924 47.2673 79.9288 47.3998 80.0514C47.2673 80.1828 47.1436 80.3928 46.9934 80.4103C46.6227 80.4367 46.2507 80.4367 45.8801 80.4103Z" fill="#DCBC95" stroke="#DCBC95" stroke-width="0.5" stroke-miterlimit="10"/>
</svg>
