<svg width="322" height="308" viewBox="0 0 322 308" fill="none" xmlns="http://www.w3.org/2000/svg">
<path d="M240.757 307.631C236.736 307.388 232.735 306.982 228.774 306.312C223.165 305.358 217.697 303.937 212.429 301.746C205.835 298.985 200.125 294.967 195.259 289.711C192.445 286.666 190.133 283.257 188.484 279.401C187.217 276.458 186.433 273.393 186.092 270.187C185.87 268.056 185.85 265.945 185.991 263.814C186.172 261.216 186.695 258.7 187.72 256.285C188.886 253.484 190.635 251.15 193.008 249.263C194.234 248.289 195.561 247.436 196.968 246.726C197.31 246.543 197.672 246.462 198.054 246.462C201.934 246.462 205.835 246.462 209.715 246.462C209.916 246.462 210.137 246.503 210.378 246.503C210.398 246.766 210.419 246.969 210.439 247.172C210.559 249.79 210.64 252.408 210.821 255.006C211.243 260.851 212.007 266.656 213.394 272.358C214.399 276.519 215.726 280.578 217.596 284.434C219.566 288.493 222.12 292.105 225.397 295.211C229.438 299.046 234.142 301.644 239.47 303.166C241.742 303.816 244.034 304.242 246.386 304.506C249.141 304.83 251.875 304.891 254.629 304.79C259.676 304.587 264.621 303.775 269.386 302.05C273.95 300.386 278.092 297.971 281.751 294.744C285.993 291.05 289.029 286.504 291.039 281.248C292.125 278.386 292.869 275.443 293.351 272.419C293.954 268.644 294.176 264.829 294.075 261.014C293.974 257.239 293.592 253.504 292.668 249.851C292.447 248.979 292.165 248.126 291.924 247.253C291.863 247.03 291.783 246.787 291.723 246.563C291.944 246.401 292.165 246.462 292.366 246.462C294.558 246.462 296.749 246.462 298.92 246.462C306.319 246.462 313.718 246.462 321.116 246.462C321.418 246.462 321.699 246.442 322.001 246.421V249.364C321.961 249.486 321.9 249.628 321.9 249.75C321.88 250.663 321.88 251.576 321.86 252.49C321.86 253.017 321.86 253.525 321.8 254.032C321.518 257.015 321.076 259.978 320.392 262.901C319.045 268.644 316.894 274.063 313.778 279.056C309.495 285.895 303.926 291.436 297.231 295.86C292.105 299.229 286.576 301.705 280.745 303.532C275.699 305.115 270.552 306.15 265.325 306.84C262.51 307.205 259.696 307.448 256.861 307.631C255.554 307.692 254.267 307.733 252.96 307.794H245.019C244.617 307.753 244.235 307.712 243.833 307.692C242.828 307.651 241.822 307.651 240.817 307.631H240.757Z" fill="white"/>
<path d="M143.809 0.16236C143.809 0.16236 143.809 0.060885 143.809 0C164.135 0 184.441 0 204.767 0C204.767 0.060885 204.767 0.142065 204.747 0.20295C204.365 0.20295 203.983 0.182655 203.621 0.182655C184.039 0.182655 164.457 0.182655 144.875 0.182655C144.533 0.182655 144.171 0.182655 143.829 0.182655L143.809 0.16236Z" fill="white"/>
<path d="M0.0201049 3.0848C0.0201049 2.13094 0.0201049 1.15678 0.0201049 0.182617C0.321678 0.182617 0.623252 0.182617 0.90472 0.182617C30.278 0.182617 59.6512 0.182617 89.0446 0.182617C89.3864 0.182617 89.7483 0.223207 90.09 0.223207V2.94274C89.8689 3.18628 89.6477 3.1051 89.4266 3.1051C87.2351 3.1051 85.0437 3.0848 82.8523 3.1051C79.9773 3.16598 77.1425 3.511 74.3881 4.38368C73.0612 4.78958 71.8147 5.33755 70.5883 6.00729C67.2308 7.85413 64.9589 10.6143 63.7124 14.2471C63.0892 16.0939 62.7273 17.9813 62.5262 19.9094C62.3855 21.3503 62.3654 22.7913 62.3654 24.2322C62.3654 67.4809 62.3654 110.73 62.3654 153.978C62.3654 155.987 62.3654 158.017 62.4458 160.026C62.5463 162.807 62.7273 165.587 63.049 168.347C63.5717 173.076 64.396 177.723 65.8234 182.269C66.125 183.264 66.4869 184.218 66.8287 185.212C66.889 185.354 66.9292 185.517 66.9493 185.618C66.8488 185.821 66.6879 185.78 66.5673 185.78C66.4065 185.78 66.2456 185.78 66.0848 185.78C56.3339 185.78 46.583 185.78 36.8322 185.78H35.9878C35.8269 185.496 35.6661 185.212 35.5052 184.928C33.6556 181.397 32.2281 177.703 31.1224 173.867C30.1775 170.539 29.4738 167.15 28.9712 163.72C28.4283 160.067 28.1066 156.414 27.986 152.74C27.9257 150.853 27.8855 148.986 27.8855 147.098C27.8855 105.92 27.8855 64.741 27.8855 23.5625C27.8855 22.0809 27.8855 20.6197 27.7045 19.1584C27.4633 16.9463 26.9808 14.8153 26.0962 12.7655C25.0105 10.2895 23.3418 8.28033 21.1101 6.7785C18.9991 5.35784 16.667 4.44457 14.1941 3.85601C11.8619 3.30805 9.50962 3.06451 7.11713 3.04421C5.04633 3.04421 2.95542 3.04421 0.884615 3.04421C0.583042 3.04421 0.281469 3.04421 0 3.02392L0.0201049 3.0848Z" fill="white"/>
<path d="M268.662 185.842C268.38 185.842 268.159 185.842 267.958 185.842C247.351 185.842 226.723 185.842 206.116 185.842C205.975 185.842 205.854 185.842 205.713 185.842C205.472 185.842 205.291 185.761 205.151 185.578C205.09 185.517 205.03 185.456 204.99 185.395C201.813 182.006 199.019 178.353 196.686 174.335C194.294 170.235 192.685 165.831 191.64 161.204C190.977 158.322 190.554 155.42 190.313 152.497C190.032 149.25 189.951 146.023 190.072 142.776C190.273 137.357 191.037 132.04 192.605 126.844C194.897 119.295 198.737 112.699 204.306 107.138C208.347 103.119 212.951 99.9128 217.998 97.3353C222.742 94.9202 227.728 93.1748 232.895 91.9368C236.233 91.1453 239.61 90.5568 243.028 90.1712C245.36 89.9073 247.713 89.7247 250.045 89.6029C253.282 89.4406 256.519 89.4203 259.776 89.5217C262.55 89.6029 265.324 89.7856 268.099 90.0697C271.115 90.3944 274.09 90.8206 277.066 91.4295C283.117 92.6675 288.968 94.5549 294.456 97.4774C298.377 99.5678 301.996 102.064 305.213 105.129C307.102 106.935 308.791 108.924 310.179 111.136C312.088 114.18 313.275 117.488 313.657 121.06C313.938 123.658 313.838 126.235 313.154 128.772C312.189 132.405 310.199 135.348 307.364 137.722C304.811 139.853 301.895 141.315 298.739 142.289C296.487 142.979 294.175 143.425 291.823 143.628C290.536 143.73 289.229 143.791 287.943 143.872C287.641 143.872 287.359 143.872 287.018 143.872C286.998 143.649 286.957 143.466 286.957 143.283C286.937 141.802 286.957 140.34 286.897 138.859C286.797 135.815 286.616 132.75 286.274 129.726C285.791 125.342 285.067 120.979 283.861 116.717C282.816 112.983 281.429 109.391 279.478 106.022C277.206 102.105 274.171 98.9589 270.25 96.7062C267.797 95.2855 265.164 94.3114 262.409 93.6822C258.489 92.7689 254.508 92.5457 250.487 92.7486C246.526 92.9516 242.666 93.6416 238.907 94.9811C234.705 96.4829 230.945 98.7154 227.567 101.658C224.27 104.54 221.878 108.051 220.169 112.069C219.003 114.809 218.239 117.671 217.696 120.593C217.053 124.084 216.811 127.615 216.791 131.167C216.771 134.901 217.033 138.636 217.696 142.309C218.802 148.276 221.033 153.735 224.813 158.504C226.904 161.143 229.276 163.477 231.87 165.587C233.981 167.292 236.213 168.835 238.525 170.255C243.973 173.604 249.602 176.587 255.332 179.429C259.474 181.478 263.656 183.447 267.898 185.314C268.139 185.416 268.401 185.456 268.642 185.781L268.662 185.842Z" fill="white"/>
<path d="M143.81 0.161865C144.152 0.161865 144.514 0.161865 144.856 0.161865C164.438 0.161865 184.02 0.161865 203.602 0.161865C203.984 0.161865 204.366 0.161865 204.728 0.18216V2.94228C204.527 3.18582 204.266 3.08435 204.025 3.08435C201.733 3.08435 199.441 3.08435 197.129 3.08435C194.917 3.08435 192.705 3.2873 190.534 3.73379C188.644 4.0991 186.815 4.68765 185.086 5.54004C181.427 7.326 178.913 10.147 177.587 14.0234C176.963 15.8296 176.581 17.6968 176.38 19.6045C176.179 21.3904 176.159 23.1967 176.159 25.003C176.159 66.4454 176.159 107.908 176.159 149.35C176.159 151.522 176.159 153.714 176.059 155.885C175.737 163.354 174.49 170.66 171.857 177.703C170.912 180.239 169.806 182.675 168.499 185.049C168.358 185.313 168.198 185.557 168.057 185.8H164.297C164.277 185.496 164.458 185.313 164.599 185.131C166.529 182.025 168.097 178.738 169.344 175.308C170.65 171.716 171.575 168.022 172.198 164.247C172.942 159.742 173.204 155.216 173.204 150.649C173.204 119.781 173.204 88.9119 173.204 58.0432C173.204 46.4751 173.204 34.9272 173.204 23.3591C173.204 21.8775 173.184 20.4163 173.003 18.955C172.701 16.5805 172.138 14.2872 171.052 12.1562C170.067 10.2282 168.72 8.62488 166.991 7.3463C164.84 5.76329 162.448 4.72824 159.894 4.0788C157.441 3.44966 154.948 3.16553 152.435 3.12494C149.842 3.08435 147.248 3.12494 144.655 3.12494C144.393 3.12494 144.112 3.12494 143.871 3.12494C143.73 2.51609 143.71 0.973666 143.83 0.161865H143.81Z" fill="white"/>
<path d="M262.952 224.483C263.194 224.28 263.455 224.057 263.736 223.833C265.023 222.798 266.471 222.088 268.059 221.662C268.401 221.56 268.702 221.601 268.964 221.844C269.426 222.271 269.346 222.9 268.803 223.204C268.602 223.326 268.361 223.387 268.119 223.448C266.471 223.935 265.063 224.807 263.877 226.045C263.013 226.938 262.389 227.994 261.907 229.11C261.545 229.901 261.565 230.754 261.726 231.606C261.746 231.748 261.806 231.87 261.867 231.992C262.028 232.357 262.329 232.438 262.651 232.215C262.852 232.073 263.033 231.911 263.194 231.728C263.535 231.302 263.877 230.896 264.199 230.449C265.325 228.846 266.25 227.121 267.094 225.355C267.195 225.152 267.275 224.949 267.375 224.767C267.556 224.462 267.838 224.3 268.2 224.361C268.542 224.422 268.803 224.604 268.924 224.949C269.004 225.173 269.044 225.416 269.084 225.66C269.306 226.776 269.708 227.791 270.271 228.785C271.276 230.592 272.844 231.525 274.854 231.728C276.202 231.87 277.549 231.687 278.855 231.282C281.268 230.51 283.479 229.293 285.53 227.831C286.576 227.08 287.601 226.269 288.606 225.376C288.526 225.213 288.445 225.071 288.365 224.949C287.118 222.879 287.782 220.525 289.33 219.186C289.692 218.881 290.114 218.719 290.556 218.577C291.26 218.354 292.084 218.962 292.185 219.673C292.245 220.18 292.225 220.708 292.104 221.215C291.903 222.068 291.602 222.879 291.26 223.691C291.2 223.833 291.119 223.996 291.079 224.138C290.999 224.442 291.26 224.848 291.562 224.848C291.964 224.848 292.366 224.848 292.768 224.787C293.552 224.665 294.276 224.402 294.98 224.036C295.382 223.833 295.804 223.63 296.226 223.468C296.889 223.224 297.513 223.407 297.975 223.955C298.236 224.259 298.357 224.604 298.196 225.01C298.015 225.497 297.834 225.985 297.653 226.451C297.452 226.959 297.231 227.446 297.03 227.953C296.97 228.075 296.95 228.217 296.91 228.339C296.648 229.455 297.03 230.246 298.076 230.713C298.518 230.916 299 230.997 299.483 231.038C301.252 231.18 302.981 231.038 304.71 230.652C307.123 230.145 309.455 229.374 311.646 228.237C313.215 227.425 314.662 226.431 315.949 225.213C316.15 225.031 316.331 224.828 316.612 224.787C316.954 224.747 317.256 224.828 317.457 225.132C317.658 225.416 317.658 225.842 317.457 226.127C317.336 226.269 317.195 226.411 317.075 226.533C316.009 227.547 314.843 228.42 313.577 229.151C310.661 230.815 307.545 231.931 304.248 232.499C302.861 232.743 301.453 232.824 300.046 232.824C299.081 232.824 298.176 232.601 297.292 232.235C296.648 231.972 296.125 231.566 295.683 231.018C295.02 230.165 294.919 229.171 295.12 228.156C295.241 227.507 295.482 226.898 295.784 226.309C295.884 226.127 295.945 225.924 296.045 225.66C295.864 225.64 295.743 225.579 295.643 225.619C295.462 225.66 295.301 225.761 295.12 225.842C293.411 226.654 291.662 226.837 289.792 226.289C289.551 226.857 289.028 227.223 288.566 227.628C286.515 229.333 284.304 230.794 281.891 231.931C280.424 232.621 278.875 233.169 277.267 233.392C274.915 233.737 272.683 233.392 270.713 231.931C270.07 231.464 269.527 230.916 269.064 230.246C268.944 230.064 268.823 229.881 268.702 229.699C268.421 229.252 267.577 229.191 267.235 229.699C266.893 230.226 266.511 230.713 266.129 231.2C265.506 231.992 264.822 232.722 263.978 233.291C263.656 233.494 263.334 233.697 262.993 233.839C261.766 234.305 260.66 233.798 260.178 232.56C259.776 231.484 259.675 230.389 259.957 229.272C259.997 229.151 260.017 229.008 260.037 228.866C260.037 228.846 260.037 228.826 259.977 228.745C259.816 228.826 259.655 228.907 259.514 229.008C258.409 229.881 257.243 230.673 256.036 231.403C254.971 232.053 253.845 232.601 252.699 233.047C251.352 233.575 249.965 233.859 248.517 233.839C246.044 233.778 244.094 232.743 242.707 230.673C241.822 229.374 241.299 227.913 240.958 226.39C240.656 225.112 240.495 223.833 240.415 222.514C240.354 221.256 240.314 220.018 240.415 218.76C240.495 217.785 240.234 217.603 239.309 217.684C238.505 217.765 237.701 217.826 236.896 217.887C235.791 217.968 234.685 218.029 233.579 218.11C233.278 218.11 232.976 218.11 232.715 218.272C232.715 218.557 232.916 218.719 233.056 218.922C233.72 219.815 234.363 220.728 234.866 221.723C235.449 222.859 235.911 224.057 236.112 225.335C236.354 226.776 236.173 228.156 235.67 229.516C235.087 231.018 233.961 231.992 232.594 232.743C231.287 233.453 229.88 233.839 228.452 234.082C227.206 234.305 225.939 234.407 224.653 234.387C221.959 234.346 219.325 233.9 216.852 232.804C215.907 232.377 215.042 231.83 214.319 231.079C213.173 229.861 212.851 228.156 213.535 226.614C214.057 225.437 214.861 224.503 215.827 223.671C216.812 222.819 217.877 222.068 219.003 221.398C220.37 220.566 221.778 219.815 223.245 219.165C223.366 219.105 223.486 219.044 223.607 219.003C224.009 218.861 224.431 219.023 224.632 219.409C224.813 219.734 224.733 220.18 224.411 220.444C224.25 220.566 224.049 220.667 223.848 220.748C222.341 221.479 220.833 222.23 219.425 223.143C218.32 223.854 217.274 224.604 216.369 225.558C215.967 225.964 215.605 226.411 215.344 226.918C215.264 227.06 215.203 227.202 215.143 227.365C214.741 228.461 214.982 229.394 215.867 230.165C216.53 230.734 217.294 231.139 218.098 231.464C219.626 232.073 221.195 232.398 222.823 232.52C223.285 232.56 223.728 232.621 224.19 232.641C226.422 232.682 228.613 232.479 230.724 231.687C231.267 231.484 231.81 231.2 232.313 230.896C233.68 230.084 234.303 228.806 234.444 227.243C234.584 225.761 234.182 224.381 233.579 223.062C233.056 221.946 232.373 220.931 231.649 219.957C231.388 219.612 231.106 219.287 230.845 218.922C230.624 218.638 230.403 218.394 230.041 218.272C229.759 218.191 229.598 217.968 229.538 217.684C229.478 217.339 229.277 217.095 229.035 216.872C228.231 216.04 227.407 215.208 226.603 214.356C225.055 212.712 223.507 211.088 221.999 209.404C220.893 208.186 219.948 206.867 219.144 205.446C218.521 204.35 218.098 203.193 217.837 201.935C217.354 199.601 218.48 196.131 221.315 194.71C222.441 194.142 223.647 193.837 224.894 193.736C227.286 193.513 229.639 193.878 231.951 194.487C235.489 195.441 238.827 196.881 241.923 198.911C243.451 199.905 244.878 201.001 246.104 202.381C246.225 202.524 246.386 202.666 246.547 202.706C247.452 202.95 247.793 203.68 248.075 204.472C248.135 204.675 248.175 204.898 248.175 205.121C248.135 205.994 248.175 206.867 247.954 207.719C247.492 209.464 246.989 211.189 246.507 212.915C246.366 213.442 246.165 213.95 246.004 214.457C245.944 214.619 245.883 214.761 245.863 214.924C245.763 215.289 245.924 215.492 246.326 215.492C246.627 215.492 246.929 215.472 247.21 215.451C247.612 215.431 248.014 215.391 248.417 215.37C250.286 215.269 252.136 215.167 254.006 215.086C254.971 215.046 255.956 215.046 256.921 215.025C257.082 215.025 257.243 215.025 257.403 215.066C257.785 215.167 258.067 215.553 258.087 215.898C258.087 216.284 257.765 216.689 257.363 216.771C257.182 216.811 256.981 216.791 256.8 216.811C254.569 216.872 252.317 216.913 250.085 217.014C248.577 217.075 247.07 217.217 245.562 217.319C245.18 217.339 244.979 217.522 244.858 217.887C244.717 218.354 244.556 218.82 244.375 219.267C243.813 220.769 243.25 222.271 242.646 223.772C242.445 224.28 242.425 224.747 242.526 225.274C242.787 226.675 243.169 228.034 243.873 229.272C244.275 229.962 244.737 230.592 245.381 231.079C246.145 231.647 246.989 231.972 247.914 232.073C249.422 232.256 250.869 231.951 252.277 231.424C253.543 230.937 254.729 230.287 255.875 229.577C257.544 228.521 259.092 227.283 260.58 225.964C260.962 225.619 261.364 225.295 261.726 224.909C262.028 224.584 262.369 224.442 262.812 224.523C262.852 224.523 262.912 224.523 263.013 224.483H262.952ZM244.577 203.396C244.416 203.214 244.315 203.092 244.215 202.97C243.471 202.199 242.646 201.549 241.782 200.94C237.299 197.876 232.433 195.846 226.985 195.42C225.658 195.319 224.331 195.441 223.064 195.846C222.32 196.09 221.597 196.415 221.034 196.983C219.687 198.343 219.264 200.007 219.606 201.874C219.888 203.376 220.632 204.675 221.476 205.913C222.361 207.212 223.386 208.409 224.472 209.566C226.341 211.534 228.211 213.503 230.081 215.472C230.423 215.817 230.764 216.162 231.106 216.507C231.609 216.507 232.132 216.486 232.634 216.466C232.715 216.466 232.795 216.466 232.875 216.446C234.042 216.344 235.188 216.243 236.354 216.162C237.399 216.081 238.465 216.02 239.51 215.959C239.651 215.959 239.771 215.918 239.912 215.898C240.314 215.878 240.535 215.614 240.676 215.269C240.736 215.106 240.757 214.944 240.797 214.802C240.938 214.071 241.058 213.361 241.179 212.63C241.199 212.509 241.279 212.367 241.118 212.225C240.958 212.225 240.777 212.225 240.596 212.225C239.731 212.285 238.867 212.367 238.022 212.427C236.595 212.509 235.167 212.427 233.74 212.204C233.539 212.184 233.318 212.082 233.157 211.961C232.695 211.595 232.715 211.007 233.177 210.642C233.438 210.439 233.72 210.459 234.021 210.479C235.087 210.581 236.173 210.702 237.238 210.702C238.163 210.702 239.068 210.642 239.993 210.54C240.576 210.459 241.179 210.479 241.681 210.195C242.023 209.119 242.345 208.064 242.687 207.049C243.028 206.035 243.451 205.081 244.054 204.188C244.215 203.944 244.396 203.701 244.617 203.416L244.577 203.396ZM245.16 211.007C244.456 211.271 243.893 211.474 243.31 211.677C243.229 211.697 243.169 211.758 243.109 211.778C242.807 212.772 242.506 214.457 242.506 215.127C242.506 215.289 242.546 215.431 242.586 215.634C242.847 215.634 243.089 215.634 243.33 215.634C243.591 215.634 243.772 215.472 243.873 215.208C243.913 215.106 243.953 215.005 243.993 214.903C244.355 213.767 244.717 212.63 245.079 211.494C245.119 211.372 245.119 211.23 245.18 210.966L245.16 211.007ZM245.682 204.857C245.26 205.243 245.119 205.446 244.717 206.44C244.034 208.064 243.732 209.038 243.772 209.627C243.913 209.586 244.034 209.566 244.154 209.505C244.556 209.261 244.938 209.038 245.32 208.774C245.682 208.531 246.004 208.206 246.104 207.76C246.265 207.11 246.466 206.44 246.205 205.75C246.084 205.426 245.984 205.081 245.702 204.857H245.682ZM241.862 219.105C241.903 219.429 241.923 219.713 241.963 219.977C241.983 220.119 242.184 220.16 242.285 220.058C242.325 220.018 242.365 219.998 242.405 219.937C242.827 219.287 243.049 218.557 243.169 217.806C243.209 217.522 243.028 217.339 242.747 217.319C242.405 217.319 242.144 217.461 242.063 217.785C241.963 218.232 241.903 218.699 241.842 219.105H241.862ZM290.416 220.566C289.772 220.992 289.571 221.52 289.431 222.068C289.35 222.413 289.39 222.636 289.571 223.001C289.973 222.271 290.215 221.52 290.396 220.566H290.416Z" fill="#DCBC95"/>
<path d="M173.284 224.199C174.149 223.53 174.893 222.941 175.677 222.393C176.441 221.865 177.285 221.48 178.21 221.338C178.572 221.277 178.954 221.236 179.336 221.256C180.944 221.338 181.708 222.982 181.467 224.057C181.266 224.91 180.864 225.559 180.18 226.066C179.055 226.878 177.808 227.467 176.441 227.771C175.576 227.954 174.692 228.055 173.787 228.035C173.687 228.035 173.566 228.035 173.465 228.035C173.184 228.055 173.043 228.238 173.063 228.542C173.104 229.151 173.284 229.74 173.767 230.146C174.048 230.389 174.37 230.633 174.692 230.795C176.481 231.668 178.391 232.155 180.382 232.216C183.88 232.338 187.177 231.505 190.394 230.166C193.208 228.989 195.842 227.507 198.295 225.701C198.597 225.478 198.898 225.234 199.22 225.052C199.602 224.808 200.024 224.91 200.305 225.275C200.587 225.64 200.567 226.046 200.245 226.391C200.145 226.493 200.044 226.574 199.944 226.655C196.586 229.192 192.967 231.221 189.007 232.601C187.479 233.129 185.91 233.535 184.302 233.758C180.985 234.225 177.728 234.002 174.591 232.683C174.089 232.48 173.626 232.196 173.164 231.932C172.561 231.566 172.139 231.059 171.817 230.43C171.555 229.922 171.375 229.375 171.395 228.786C171.395 228.502 171.395 228.197 171.395 227.852C171.113 227.913 170.952 228.076 170.791 228.197C169.424 229.314 167.977 230.308 166.449 231.201C164.358 232.439 162.187 233.434 159.794 233.9C158.528 234.144 157.221 234.266 155.934 234.002C154.587 233.738 153.481 233.048 152.556 232.033C152.094 231.526 151.792 230.917 151.652 230.227C151.632 230.085 151.611 229.963 151.571 229.821C151.39 229.273 150.787 229.07 150.345 229.435C150.164 229.598 150.003 229.78 149.822 229.943C149.118 230.613 148.395 231.262 147.57 231.79C147.027 232.135 146.424 232.419 145.801 232.561C144.313 232.906 143.087 231.952 143.067 230.41C143.067 229.801 143.167 229.212 143.328 228.644C143.368 228.502 143.389 228.339 143.429 228.096C143.228 228.137 143.107 228.157 143.007 228.218C142.705 228.339 142.403 228.461 142.102 228.583C139.709 229.456 137.377 229.334 135.125 228.116C134.965 228.035 134.784 227.934 134.623 227.852C134.02 227.487 133.034 227.528 132.472 228.177C131.788 228.948 131.125 229.74 130.441 230.511C130.361 230.592 130.32 230.694 130.24 230.775C129.597 231.526 129.194 232.398 128.953 233.373C128.41 235.686 127.586 237.898 126.701 240.111C125.535 243.013 124.349 245.915 123.163 248.797C123.083 248.979 123.022 249.162 122.922 249.304C122.721 249.629 122.339 249.771 121.997 249.67C121.615 249.548 121.313 249.122 121.354 248.736C121.354 248.634 121.394 248.533 121.434 248.411C122.278 244.941 123.183 241.491 124.389 238.142C125.194 235.93 126.139 233.799 127.385 231.81C127.626 231.424 127.767 231.039 127.827 230.592C127.908 229.943 128.008 229.293 128.089 228.644C128.089 228.542 128.069 228.441 128.028 228.279C127.888 228.339 127.767 228.36 127.727 228.441C127.526 228.745 127.365 229.05 127.184 229.354C126.641 230.267 126.058 231.16 125.294 231.891C124.952 232.216 124.59 232.48 124.168 232.662C122.721 233.291 121.374 232.601 120.831 231.303C120.67 230.917 120.67 230.511 120.75 230.105C120.791 229.922 120.811 229.74 120.871 229.456C120.569 229.659 120.328 229.801 120.127 229.963C118.941 230.815 117.715 231.607 116.388 232.256C115.041 232.926 113.673 233.474 112.206 233.779C110.376 234.144 108.567 234.184 106.777 233.576C105.853 233.251 105.008 232.784 104.224 232.196C103.239 231.465 102.757 230.491 102.576 229.293C102.555 229.111 102.535 228.928 102.515 228.684C102.153 228.847 101.932 229.07 101.671 229.273C100.042 230.552 98.3133 231.648 96.3833 232.419C95.0965 232.946 93.7495 233.271 92.3824 233.352C90.2714 233.454 88.3815 232.845 86.7731 231.445C86.0292 230.795 85.3658 230.085 84.8632 229.232C84.6018 228.806 84.3203 228.421 84.059 227.994C83.6971 227.446 83.2347 227.284 82.5913 227.426C81.8675 227.589 81.2242 227.913 80.6009 228.299C79.5957 228.908 78.7312 229.679 77.9069 230.511C77.1831 231.242 76.4995 232.013 75.7958 232.784C75.635 232.967 75.4742 233.149 75.2932 233.312C75.0319 233.555 74.7303 233.596 74.3885 233.434C74.0266 233.251 73.8457 232.967 73.8859 232.581C73.9261 232.317 73.9864 232.053 74.0467 231.79C74.5292 229.659 75.0118 227.548 75.4943 225.417C75.5345 225.234 75.5747 225.052 75.6551 224.869C75.8361 224.483 76.1979 224.321 76.6 224.402C76.982 224.483 77.2635 224.808 77.2635 225.214C77.2635 225.397 77.2233 225.6 77.1831 225.782C76.982 226.696 76.781 227.589 76.5799 228.482C76.5598 228.583 76.5397 228.684 76.5397 228.806C76.5397 228.928 76.7207 229.05 76.8413 229.009C77.0021 228.928 77.163 228.806 77.3037 228.705C77.7862 228.299 78.2486 227.873 78.7312 227.487C79.5555 226.817 80.4602 226.249 81.4654 225.904C81.8876 225.762 82.35 225.64 82.8125 225.6C83.7373 225.518 84.5214 225.843 85.1245 226.574C85.5467 227.101 85.9287 227.67 86.3107 228.238C86.8736 229.111 87.5572 229.882 88.4016 230.491C89.7486 231.465 91.2565 231.729 92.8649 231.546C94.8352 231.323 96.6245 230.592 98.2932 229.557C99.8614 228.583 101.329 227.467 102.636 226.148C102.958 225.823 103.179 225.498 103.34 225.072C103.46 224.747 103.581 224.402 103.762 224.098C104.124 223.53 104.928 223.59 105.229 224.159C105.35 224.362 105.37 224.565 105.29 224.788C105.209 224.991 105.109 225.194 105.028 225.397C104.666 226.31 104.345 227.244 104.325 228.238C104.325 228.542 104.325 228.847 104.345 229.131C104.405 229.821 104.707 230.389 105.25 230.795C106.315 231.607 107.481 232.114 108.808 232.236C109.934 232.338 111.06 232.256 112.186 231.972C114.156 231.465 115.945 230.613 117.654 229.537C119.645 228.279 121.514 226.838 123.183 225.153C123.324 225.011 123.444 224.828 123.605 224.768C124.168 224.565 124.49 224.078 124.912 223.712C125.495 223.225 126.078 222.738 126.681 222.271C127.003 222.028 127.385 221.845 127.747 221.683C128.109 221.52 128.531 221.683 128.732 221.987C128.933 222.292 128.893 222.779 128.611 223.042C128.451 223.185 128.27 223.306 128.089 223.428C127.465 223.895 126.822 224.362 126.219 224.869C124.631 226.229 123.485 227.934 122.66 229.862C122.58 230.024 122.52 230.227 122.5 230.41C122.459 230.795 122.741 231.12 123.123 231.1C123.324 231.1 123.565 231.039 123.726 230.917C124.027 230.694 124.329 230.45 124.57 230.166C124.952 229.679 125.314 229.172 125.636 228.624C126.36 227.345 127.043 226.046 127.546 224.646C127.586 224.524 127.646 224.382 127.687 224.26C127.827 223.956 128.069 223.793 128.39 223.773C128.732 223.753 129.034 223.895 129.194 224.22C129.375 224.605 129.496 225.031 129.637 225.437C129.717 225.661 129.737 225.924 129.798 226.148C129.999 226.838 130.743 227.142 131.346 226.777C131.507 226.675 131.627 226.533 131.788 226.411C132.009 226.208 132.23 226.006 132.472 225.823C133.155 225.336 133.879 225.316 134.603 225.721C134.824 225.843 135.005 226.006 135.206 226.127C137.88 227.913 141.76 227.751 144.333 225.295C144.695 224.93 145.057 224.585 145.319 224.118C145.56 223.692 145.982 223.59 146.364 223.793C146.746 223.996 146.927 224.382 146.826 224.828C146.806 224.95 146.726 225.092 146.666 225.214C146.585 225.376 146.485 225.539 146.384 225.721C145.781 226.878 145.238 228.076 144.957 229.354C144.876 229.72 144.856 230.105 144.856 230.491C144.856 230.734 145.037 230.876 145.278 230.897C145.68 230.917 146.042 230.775 146.344 230.552C146.927 230.146 147.51 229.74 148.033 229.273C149.581 227.873 150.908 226.249 152.114 224.524C152.235 224.341 152.355 224.159 152.496 223.996C152.757 223.692 153.18 223.611 153.521 223.773C153.843 223.935 154.024 224.24 153.984 224.646C153.984 224.828 153.903 225.011 153.843 225.194C153.501 226.432 153.24 227.69 153.3 228.989C153.32 229.375 153.381 229.74 153.481 230.105C153.582 230.511 153.803 230.856 154.104 231.14C154.949 231.871 155.914 232.317 157.04 232.378C158.668 232.459 160.216 232.135 161.724 231.566C164.639 230.47 167.253 228.827 169.686 226.899C170.53 226.229 171.334 225.478 172.118 224.747C172.521 224.362 172.902 224.078 173.405 224.22L173.284 224.199ZM174.089 226.432C174.632 226.533 175.054 226.472 175.476 226.351C176.401 226.087 177.305 225.721 178.17 225.275C178.552 225.072 178.914 224.828 179.236 224.565C179.437 224.402 179.597 224.159 179.698 223.915C179.899 223.469 179.618 223.022 179.115 223.002C178.773 223.002 178.411 223.002 178.069 223.103C176.481 223.611 175.194 224.565 174.229 225.924C174.149 226.046 174.129 226.208 174.069 226.432H174.089Z" fill="#DCBC95"/>
<path d="M67.0087 225.823C67.0087 225.397 67.0087 224.95 67.0087 224.524C67.0087 224.362 67.0087 224.199 67.0087 224.037C67.0087 223.854 66.9082 223.732 66.7272 223.692C66.5664 223.651 66.3855 223.671 66.2849 223.814C66.1442 223.976 66.0437 224.179 65.923 224.362C65.0786 225.823 64.1136 227.203 63.0078 228.481C60.8566 230.998 58.2832 232.865 55.0664 233.738C53.5384 234.144 51.9904 234.326 50.4222 234.306C49.6381 234.306 48.8741 234.164 48.1101 233.92C45.9589 233.251 44.7526 231.749 44.2701 229.577C44.0288 228.441 44.0489 227.304 44.1897 226.168C44.4309 223.996 44.9737 221.886 45.6372 219.815C46.6425 216.731 47.708 213.686 48.7535 210.601C49.2762 209.039 49.819 207.456 50.1809 205.832C50.3619 205 50.4825 204.168 50.4624 203.316C50.4624 203.133 50.4624 202.93 50.4222 202.747C50.3015 201.915 49.9397 201.591 49.1154 201.428C47.4869 201.124 45.8785 201.347 44.3103 201.834C41.0935 202.808 38.3793 204.574 36.2281 207.192C35.1022 208.552 34.2779 210.074 33.9764 211.839C33.6949 213.443 33.8155 214.985 34.5393 216.467C35.1827 217.786 36.1477 218.841 37.2535 219.795C37.4545 219.978 37.6757 220.12 37.8767 220.323C38.1582 220.607 38.1783 221.074 37.9772 221.378C37.736 221.723 37.2736 221.865 36.8916 221.683C36.7911 221.642 36.7106 221.581 36.6302 221.5C35.1827 220.363 33.9362 219.065 33.1119 217.4C31.9056 214.985 31.7849 212.509 32.7098 209.952C33.4737 207.882 34.68 206.137 36.2482 204.635C38.3592 202.626 40.7919 201.144 43.5664 200.251C44.7526 199.865 45.979 199.642 47.2255 199.581C48.1503 199.52 49.055 199.642 49.9598 199.865C50.9047 200.089 51.5078 200.718 51.8697 201.591C52.0909 202.098 52.1914 202.626 52.2115 203.174C52.2517 204.31 52.0306 205.406 51.7893 206.482C51.3872 208.288 50.7439 210.033 50.1608 211.779C49.2159 214.62 48.2307 217.441 47.2858 220.282C46.7832 221.804 46.4012 223.367 46.0996 224.95C45.8785 226.107 45.798 227.284 45.8785 228.441C45.8986 228.867 45.9991 229.313 46.1197 229.719C46.562 231.282 47.6879 232.074 49.2159 232.358C50.9851 232.682 52.7141 232.5 54.423 232.074C57.2578 231.343 59.5699 229.76 61.5 227.568C63.5909 225.194 65.0786 222.454 66.305 219.552C67.5717 216.528 68.5367 213.422 69.361 210.256C69.9641 207.943 70.5472 205.609 71.1704 203.295C71.3514 202.585 71.5926 201.895 71.8339 201.205C71.9746 200.799 72.1757 200.393 72.3968 200.028C72.618 199.662 72.8995 199.602 73.3015 199.764C73.7238 199.926 73.9047 200.19 73.8444 200.555C73.8042 200.86 73.7237 201.144 73.6433 201.428C73.1206 203.295 72.5979 205.142 72.0751 207.009C71.0699 210.601 70.2255 214.234 69.562 217.908C69.2203 219.775 68.9589 221.662 68.8182 223.57C68.7377 224.666 68.6774 225.742 68.7176 226.837C68.7578 227.751 68.8785 228.684 69.0393 229.598C69.2002 230.551 69.6224 231.404 70.326 232.094C70.4668 232.216 70.5874 232.378 70.6477 232.561C70.7482 232.885 70.6678 233.21 70.3863 233.454C70.0848 233.697 69.743 233.738 69.4012 233.535C68.8986 233.23 68.5166 232.804 68.215 232.317C67.833 231.708 67.5716 231.059 67.3907 230.369C67.0087 228.887 66.8881 227.365 66.9484 225.823H67.0087Z" fill="#DCBC95"/>
<path d="M51.1667 261.48C52.2525 261.48 53.278 261.48 54.3035 261.48C54.6252 261.48 54.9469 261.562 55.2485 261.663C56.7968 262.191 57.3598 264.099 56.3343 265.397C56.1936 265.58 56.0126 265.763 55.8517 265.945C56.0126 266.027 56.1332 266.087 56.2338 266.169C57.3196 266.818 57.8223 268.137 57.4603 269.355C57.2391 270.106 56.7968 270.654 56.1131 271.019C55.711 271.242 55.2686 271.364 54.8061 271.425C54.3437 271.486 51.7297 271.466 51.1667 271.405C51.1667 271.384 51.1265 271.364 51.1064 271.344C51.1064 271.324 51.0662 271.303 51.0662 271.283C51.0662 268.117 51.0662 264.951 51.0662 261.805C51.0662 261.724 51.1064 261.643 51.1466 261.501L51.1667 261.48ZM52.1922 270.491C52.8557 270.491 53.4791 270.491 54.0823 270.491C54.3035 270.491 54.5045 270.491 54.7257 270.491C54.786 270.491 54.8262 270.491 54.8866 270.491C55.8517 270.329 56.5354 269.558 56.5555 268.584C56.5756 267.65 55.9523 266.879 54.9871 266.676C54.8061 266.635 54.6051 266.615 54.4241 266.615C53.8008 266.615 53.1774 266.615 52.5541 266.615C52.4335 266.615 52.2927 266.635 52.1922 266.656C52.0715 267.305 52.0514 269.659 52.1922 270.512V270.491ZM52.1117 265.58C52.4335 265.58 52.6345 265.58 52.8557 265.58C53.3383 265.58 53.8209 265.58 54.3035 265.58C54.5649 265.58 54.8262 265.479 55.0675 265.377C55.4295 265.215 55.6507 264.91 55.7512 264.525C56.0126 263.49 55.5501 262.759 54.5246 262.536C54.3236 262.495 54.1024 262.495 53.8812 262.475C53.4589 262.475 53.0166 262.475 52.5943 262.475C52.4536 262.475 52.2927 262.516 52.1117 262.536C52.0715 263.551 52.0715 264.525 52.1117 265.6V265.58Z" fill="white"/>
<path d="M85.7677 264.322C85.6269 266.717 85.6269 269.051 85.6068 271.425C85.3857 271.425 85.2248 271.466 85.084 271.466C84.9634 271.466 84.8226 271.466 84.6618 271.425C84.6618 271.263 84.6216 271.141 84.6216 270.999C84.5613 268.361 84.6015 261.948 84.6819 261.197C84.9031 261.136 84.9433 261.318 85.0237 261.44C85.8079 262.556 86.5921 263.673 87.3562 264.769C88.08 265.783 88.7838 266.818 89.5077 267.853C89.6685 268.077 89.8294 268.3 89.9701 268.503C90.2315 268.442 90.1712 268.239 90.1712 268.097C90.1712 266.189 90.1712 264.282 90.1712 262.374C90.1712 262.11 90.1712 261.826 90.1712 261.562C90.4929 261.359 90.7945 261.481 91.1163 261.44C91.1364 261.663 91.1967 261.846 91.1967 262.008C91.1967 265.175 91.1967 268.341 91.1967 271.507C91.1967 271.588 91.1766 271.649 91.1565 271.73C90.9152 271.811 90.875 271.588 90.7945 271.486C89.2664 269.315 87.7382 267.123 86.2101 264.931C86.0492 264.708 85.8883 264.505 85.7476 264.282L85.7677 264.322Z" fill="white"/>
<path d="M147.912 271.405C147.731 271.446 147.67 271.466 147.59 271.486C147.288 271.486 147.007 271.486 146.665 271.486C145.7 270.187 144.735 268.868 143.77 267.569H142.603C142.483 268.239 142.563 268.889 142.543 269.538C142.543 270.167 142.543 270.776 142.543 271.446C142.221 271.527 141.94 271.507 141.678 271.486C141.638 271.446 141.618 271.425 141.598 271.385C141.598 271.365 141.578 271.344 141.578 271.304C141.578 268.138 141.578 264.992 141.578 261.826C141.578 261.745 141.598 261.664 141.638 261.542C141.779 261.542 141.94 261.501 142.101 261.501C142.965 261.501 143.83 261.501 144.695 261.501C145.036 261.501 145.398 261.542 145.74 261.643C147.047 262.009 147.892 263.125 147.932 264.464C147.952 265.783 147.128 266.961 145.861 267.387C145.74 267.427 145.599 267.448 145.459 267.488C145.358 267.509 145.278 267.569 145.137 267.63C145.579 268.32 146.082 268.909 146.565 269.538C147.027 270.167 147.53 270.756 147.992 271.446L147.912 271.405ZM142.523 266.473C142.704 266.514 142.784 266.534 142.865 266.534C143.528 266.534 144.212 266.534 144.875 266.534C145.76 266.534 146.806 265.865 146.826 264.464C146.826 263.064 145.821 262.394 144.896 262.435C144.272 262.435 143.649 262.435 143.046 262.435C142.885 262.435 142.744 262.455 142.543 262.475C142.523 263.815 142.543 265.114 142.543 266.453L142.523 266.473Z" fill="white"/>
<path d="M18.0375 264.444C17.7358 264.566 17.4141 264.505 17.0723 264.485C16.9316 264.302 16.7908 264.099 16.6501 263.896C15.5844 262.577 14.1969 262.13 12.5884 262.496C11.1004 262.841 9.91407 264.261 9.71299 265.804C9.53203 267.021 9.79342 268.138 10.5776 269.091C12.2264 271.08 15.1018 271.04 16.6702 268.99C16.8109 268.828 16.9114 268.645 17.0723 268.442H18.0777C18.0375 268.584 18.0375 268.726 17.9771 268.828C17.0522 270.735 14.9208 271.872 12.89 271.567C10.839 271.263 9.10977 269.599 8.72773 267.529C8.3658 265.54 8.9087 263.855 10.4168 262.516C12.9704 260.243 16.7506 261.359 18.0174 264.241C18.0174 264.282 18.0174 264.342 18.0174 264.444H18.0375Z" fill="white"/>
<path d="M104.645 261.501H110.376C110.497 261.927 110.497 261.927 110.376 262.414C108.828 262.434 107.279 262.414 105.691 262.434C105.57 262.84 105.631 263.226 105.631 263.591C105.631 263.977 105.631 264.362 105.631 264.728C105.631 265.113 105.631 265.479 105.631 265.905C105.852 265.945 106.033 265.986 106.214 265.986C107.32 265.986 108.426 265.986 109.531 265.986C109.773 265.986 110.014 265.986 110.255 266.006C110.416 266.29 110.376 266.554 110.296 266.859C110.155 266.879 109.994 266.92 109.833 266.92C108.727 266.92 107.621 266.92 106.515 266.92C106.254 266.92 105.993 266.94 105.731 266.96C105.57 267.549 105.55 269.436 105.671 270.431C106.174 270.573 106.676 270.471 107.179 270.491C107.722 270.491 108.265 270.491 108.808 270.491H110.336C110.537 270.796 110.456 271.08 110.436 271.324C110.376 271.384 110.356 271.405 110.336 271.405C110.316 271.405 110.275 271.405 110.255 271.405C108.506 271.405 106.737 271.405 104.987 271.405C104.887 271.405 104.786 271.384 104.625 271.364C104.605 271.222 104.565 271.1 104.565 270.979C104.565 267.934 104.565 264.87 104.565 261.826C104.565 261.724 104.585 261.623 104.605 261.44L104.645 261.501Z" fill="white"/>
<path d="M38.623 271.385C38.261 271.547 37.9393 271.426 37.5975 271.507C37.2355 270.573 36.8736 269.7 36.5519 268.848C35.9286 268.726 33.2141 268.706 32.1886 268.807C31.7261 269.619 31.5049 270.553 31.0827 271.426C30.9218 271.426 30.7408 271.466 30.5599 271.466C30.399 271.466 30.2583 271.446 30.0974 271.426C30.3387 270.593 34.0184 261.562 34.3602 260.994C34.4205 261.095 34.5009 261.177 34.5411 261.258C35.9085 264.627 37.2959 267.996 38.6431 271.385H38.623ZM34.32 263.206C33.7167 264.769 33.1738 266.149 32.6309 267.549C32.6108 267.61 32.6309 267.712 32.6309 267.772C33.5961 267.874 35.4259 267.854 36.0291 267.712C36.009 267.59 35.9889 267.448 35.9286 267.346C35.3857 266.027 34.9232 264.667 34.2798 263.206H34.32Z" fill="white"/>
<path d="M160.999 261.461C161.501 262.192 162.004 262.902 162.487 263.612C162.969 264.302 163.412 265.013 163.975 265.723C165 264.302 165.925 262.902 166.89 261.542C167.252 261.42 167.634 261.502 168.097 261.481C167.976 261.704 167.916 261.887 167.815 262.029C166.87 263.389 165.925 264.749 164.94 266.068C164.578 266.555 164.437 267.042 164.457 267.651C164.497 268.666 164.457 269.66 164.457 270.675C164.457 270.918 164.457 271.162 164.437 271.405C164.115 271.527 163.834 271.487 163.512 271.446C163.492 271.263 163.452 271.081 163.452 270.898C163.452 269.721 163.452 268.564 163.452 267.387C163.452 266.961 163.351 266.616 163.09 266.251C162.105 264.891 161.14 263.511 160.154 262.151C160.034 261.989 159.933 261.806 159.772 261.562C160.215 261.441 160.577 261.522 160.959 261.481L160.999 261.461Z" fill="white"/>
<path d="M125.455 262.435C124.67 262.354 123.926 262.435 123.182 262.374C123.022 262.09 123.062 261.826 123.122 261.521C123.765 261.4 124.409 261.481 125.032 261.461C125.656 261.461 126.279 261.461 126.902 261.461C127.546 261.461 128.189 261.461 128.853 261.461C128.933 261.765 128.953 262.029 128.833 262.313C128.109 262.516 127.345 262.313 126.54 262.455C126.54 262.739 126.5 262.983 126.5 263.247C126.5 265.662 126.5 268.097 126.5 270.512C126.5 270.776 126.5 271.06 126.5 271.344C126.178 271.486 125.897 271.425 125.615 271.405C125.414 271.182 125.495 270.918 125.495 270.695C125.495 268.219 125.495 265.743 125.495 263.267C125.495 263.003 125.495 262.739 125.455 262.414V262.435Z" fill="white"/>
<path d="M71.1306 271.446H70.2459C70.2258 271.304 70.1855 271.182 70.1855 271.061C70.1855 268.016 70.1855 264.952 70.1855 261.908C70.1855 261.806 70.1855 261.705 70.2258 261.563C70.5073 261.42 70.7888 261.481 71.1105 261.502C71.1306 261.623 71.1909 261.725 71.1909 261.806C71.1909 264.911 71.1909 268.016 71.1909 271.121C71.1909 271.203 71.1708 271.284 71.1306 271.446Z" fill="white"/>
<path d="M103.218 222.068C102.534 222.068 102.152 221.378 102.434 220.83C102.494 220.708 102.575 220.586 102.695 220.525C103.419 220.14 104.022 219.592 104.646 219.084C105.068 218.739 105.611 218.922 105.872 219.389C106.053 219.714 106.033 220.018 105.792 220.302C105.169 221.012 104.404 221.56 103.54 221.987C103.419 222.047 103.278 222.047 103.218 222.068Z" fill="#DCBC95"/>
</svg>
