<svg width="68" height="65" viewBox="0 0 68 65" fill="none" xmlns="http://www.w3.org/2000/svg">
<path d="M0 38.8716H57.0147C59.9281 38.8752 62.7209 40.035 64.7797 42.0963C66.8384 44.1576 67.9949 46.9518 67.9949 49.8652V51.5617H8.0786C5.93602 51.5617 3.8812 50.7106 2.36617 49.1955C0.851135 47.6805 0 45.6257 0 43.4831L0 38.9052V38.8716Z" fill="#DCBC95"/>
<path d="M50.8479 64.3662C50 64.3179 49.1551 64.2258 48.3166 64.0902C47.1337 63.9 45.9754 63.5794 44.863 63.1343C43.4865 62.5568 42.251 61.6888 41.2411 60.5895C40.6454 59.9572 40.1606 59.2289 39.8072 58.4352C39.5494 57.8343 39.3793 57.1995 39.3023 56.5502C39.2645 56.1022 39.2645 55.6518 39.3023 55.2038C39.335 54.6621 39.4579 54.1297 39.6658 53.6284C39.908 53.0525 40.2926 52.5475 40.7833 52.1608C41.0439 51.9572 41.3235 51.7791 41.6181 51.629C41.6909 51.5914 41.7719 51.5729 41.8538 51.5751H44.4322C44.4322 51.629 44.4322 51.6761 44.4322 51.7165C44.4322 52.2618 44.4726 52.8138 44.513 53.3524C44.5904 54.5776 44.7728 55.7938 45.0583 56.9878C45.2604 57.8595 45.5584 58.7062 45.9469 59.5124C46.3534 60.3574 46.9099 61.1216 47.5896 61.7676C48.4314 62.5557 49.4528 63.1265 50.5652 63.4305C51.0434 63.5654 51.532 63.6599 52.026 63.7132C52.6027 63.7771 53.1833 63.7974 53.7629 63.7738C54.8254 63.7409 55.8765 63.5457 56.8799 63.1948C57.8415 62.8597 58.7287 62.3406 59.492 61.6666C60.3728 60.9055 61.0487 59.9357 61.4578 58.8459C61.6806 58.2492 61.8408 57.631 61.9358 57.0013C62.0613 56.2111 62.1131 55.4111 62.0906 54.6113C62.0796 53.824 61.9803 53.0404 61.7944 52.2753C61.7473 52.0935 61.6867 51.9185 61.6328 51.73C61.6225 51.682 61.609 51.6348 61.5925 51.5886C61.6359 51.5726 61.6836 51.5726 61.7271 51.5886H67.9947V52.2012C67.9917 52.2281 67.9917 52.2552 67.9947 52.282C67.9947 52.4705 67.9947 52.6657 67.9947 52.8542C68.0016 52.9618 68.0016 53.0698 67.9947 53.1774C67.9365 53.8025 67.8376 54.4232 67.6985 55.0355C67.4189 56.2265 66.9459 57.3636 66.2982 58.4015C65.3967 59.8226 64.1949 61.029 62.7773 61.9359C61.6986 62.6316 60.5268 63.171 59.2968 63.5382C58.2328 63.8588 57.1424 64.0841 56.0384 64.2114C55.446 64.2922 54.8468 64.3393 54.2477 64.3797H53.4263H51.75H51.5009H50.8277L50.8479 64.3662Z" fill="white"/>
<path d="M30.3755 0.0336608V0H43.2474V0.040393H30.3755V0.0336608Z" fill="white"/>
<path d="M0 0.673351V0.0405273H19.0251V0.612761C18.978 0.666619 18.9376 0.653154 18.8905 0.653154C18.4259 0.673351 17.9614 0.673351 17.5036 0.673351C16.8993 0.672784 16.2982 0.761252 15.7196 0.935905C15.4414 1.0224 15.173 1.13746 14.9185 1.27925C14.2318 1.63765 13.7106 2.2481 13.4643 2.98248C13.3344 3.36612 13.2508 3.76389 13.2152 4.16734C13.1872 4.46718 13.176 4.76836 13.1816 5.06945V32.2135C13.1816 32.6377 13.1816 33.0618 13.1816 33.4792C13.1816 34.0649 13.2422 34.6438 13.3095 35.2228C13.4072 36.2116 13.6034 37.1881 13.8952 38.1378C13.9625 38.3465 14.0366 38.5418 14.1106 38.7505C14.1155 38.7794 14.1155 38.809 14.1106 38.838C14.1106 38.8784 14.0568 38.8716 14.0298 38.8716H7.60061L7.49963 38.6899C7.11076 37.9451 6.79944 37.1623 6.57059 36.3538C6.37646 35.6547 6.22582 34.9442 6.11954 34.2265C6.00632 33.4658 5.93664 32.6994 5.91084 31.9308C5.91084 31.5336 5.91084 31.1431 5.91084 30.7527V4.92808C5.9094 4.63088 5.88916 4.33407 5.85025 4.03943C5.80734 3.57609 5.69382 3.12203 5.51364 2.693C5.29428 2.17406 4.9266 1.73143 4.45669 1.42062C4.01106 1.12924 3.51599 0.921626 2.99581 0.807994C2.50442 0.706128 2.00296 0.660951 1.50127 0.673351H0Z" fill="white"/>
<path d="M56.7455 38.885H43.4494C43.4265 38.8855 43.4037 38.881 43.3828 38.8717C43.3618 38.8623 43.3432 38.8485 43.3282 38.8311V38.7907C42.6566 38.0896 42.0691 37.3124 41.5779 36.4748C41.0811 35.6202 40.72 34.6936 40.5075 33.7281C40.369 33.1279 40.2767 32.518 40.2315 31.9037C40.1703 31.2323 40.1523 30.5577 40.1776 29.8841C40.2091 28.7543 40.3902 27.6338 40.7162 26.5516C41.1669 24.9903 42.0052 23.5683 43.1532 22.4181C44.0047 21.5984 44.9792 20.9169 46.0413 20.3984C47.0441 19.9004 48.1014 19.5208 49.192 19.2674C49.8947 19.0874 50.6073 18.948 51.3261 18.85C51.8242 18.7962 52.3157 18.7625 52.8139 18.7356C53.4871 18.7019 54.1603 18.6952 54.8335 18.7356C55.5067 18.776 56.0049 18.7894 56.5906 18.85C57.1763 18.9106 57.8563 19.0116 58.4824 19.1395C59.7614 19.3818 60.9991 19.8057 62.1581 20.3984C62.9831 20.8278 63.7463 21.3668 64.4268 22.0007C64.8306 22.3724 65.1838 22.7957 65.4771 23.2596C65.8789 23.8847 66.1301 24.5945 66.2109 25.3331C66.2785 25.8733 66.2442 26.4213 66.1099 26.9488C65.9083 27.686 65.4796 28.3408 64.8846 28.8204C64.3462 29.2572 63.7259 29.5822 63.0602 29.7763C62.5853 29.9247 62.0953 30.0196 61.5993 30.0591L60.7848 30.1062H60.5895C60.5866 30.0659 60.5866 30.0254 60.5895 29.985C60.5895 29.6754 60.5895 29.3724 60.5895 29.0627C60.5895 28.4232 60.5289 27.7836 60.4549 27.1508C60.3585 26.2412 60.1896 25.3407 59.95 24.4579C59.7377 23.675 59.4278 22.9218 59.0277 22.2161C58.566 21.4044 57.8938 20.7322 57.0821 20.2705C56.5664 19.9744 56.0076 19.7609 55.4259 19.6377C54.6005 19.4517 53.7524 19.386 52.9081 19.4425C52.0728 19.4751 51.2469 19.6317 50.4576 19.907C49.5792 20.2188 48.7665 20.6914 48.061 21.3005C47.3822 21.9002 46.8482 22.646 46.4991 23.4818C46.2624 24.056 46.0886 24.6541 45.9807 25.2658C45.7202 26.7693 45.7202 28.3065 45.9807 29.81C46.1911 31.0401 46.7074 32.1976 47.482 33.1761C47.9227 33.7223 48.4216 34.2189 48.9698 34.6572C49.4187 35.0106 49.8886 35.3366 50.3768 35.6333C51.528 36.3065 52.7196 36.9798 53.9314 37.552C54.7999 37.9828 55.6885 38.3935 56.5839 38.784C56.631 38.784 56.6916 38.784 56.7387 38.885H56.7455Z" fill="white"/>
<path d="M30.3753 0.0336914H43.2404V0.612658C43.2 0.666515 43.1394 0.612658 43.0923 0.612658H41.6314C41.1658 0.610401 40.7011 0.655514 40.2446 0.747301C39.8457 0.820793 39.4585 0.947596 39.0934 1.1243C38.7213 1.29638 38.3883 1.54284 38.1151 1.84851C37.8418 2.15418 37.6341 2.51257 37.5046 2.90159C37.378 3.27919 37.2944 3.66989 37.2555 4.06626C37.2163 4.44191 37.2006 4.81965 37.2084 5.19726V31.2507C37.2084 31.7018 37.2084 32.1596 37.2084 32.5972C37.1581 34.1558 36.8604 35.6964 36.3265 37.1616C36.1258 37.6897 35.8873 38.2027 35.6129 38.6965C35.6129 38.7504 35.5523 38.8042 35.5186 38.8581H34.6973C34.7012 38.8042 34.7252 38.7537 34.7646 38.7167C35.1685 38.0661 35.5046 37.3758 35.7677 36.6567C36.0354 35.9141 36.2316 35.1476 36.3534 34.3677C36.5058 33.4263 36.5778 32.4736 36.5688 31.52V4.88758C36.5722 4.57964 36.5587 4.27175 36.5285 3.96527C36.4721 3.4713 36.3309 2.99075 36.1111 2.54479C35.9104 2.14501 35.6173 1.79883 35.2561 1.53496C34.804 1.21547 34.2941 0.986827 33.7548 0.861748C33.2436 0.736526 32.7192 0.673238 32.1929 0.673247C31.6409 0.673247 31.1023 0.673247 30.5503 0.673247H30.3887C30.3613 0.467704 30.3613 0.259431 30.3887 0.0538879L30.3753 0.0336914Z" fill="white"/>
<path d="M54.0927 47.031L54.2745 46.8829C54.5657 46.6476 54.9027 46.4757 55.2641 46.378C55.2991 46.3638 55.3374 46.3601 55.3744 46.3673C55.4115 46.3744 55.4456 46.3922 55.4728 46.4184C55.4976 46.4381 55.5171 46.4638 55.5293 46.4931C55.5416 46.5224 55.5462 46.5543 55.5429 46.5858C55.5395 46.6174 55.5283 46.6476 55.5101 46.6736C55.492 46.6996 55.4676 46.7207 55.4391 46.7348C55.3905 46.7618 55.3384 46.7822 55.2843 46.7954C54.9115 46.9049 54.5745 47.1117 54.3081 47.3945C54.1171 47.6041 53.9644 47.8456 53.8571 48.1081C53.783 48.2944 53.7688 48.4992 53.8167 48.6938C53.8098 48.7226 53.8098 48.7526 53.8167 48.7814C53.8223 48.7992 53.8323 48.8154 53.8456 48.8285C53.859 48.8416 53.8753 48.8512 53.8933 48.8565C53.9112 48.8618 53.9302 48.8627 53.9485 48.859C53.9669 48.8552 53.984 48.8471 53.9985 48.8352C54.0442 48.8007 54.087 48.7624 54.1264 48.7208L54.3553 48.4245C54.6096 48.0474 54.8347 47.6513 55.0285 47.2397L55.0891 47.0983C55.1068 47.065 55.1345 47.038 55.1683 47.0211C55.202 47.0042 55.2402 46.9982 55.2776 47.0041C55.3163 47.0089 55.3528 47.0248 55.3826 47.0498C55.4125 47.0749 55.4345 47.1081 55.4459 47.1454C55.4528 47.1991 55.4528 47.2534 55.4459 47.307C55.4993 47.5623 55.5925 47.8076 55.7219 48.0341C55.8244 48.227 55.9749 48.3903 56.1588 48.5082C56.3428 48.6261 56.554 48.6947 56.7721 48.7073C57.0815 48.7356 57.3933 48.6989 57.6877 48.5996C58.2586 48.4239 58.7958 48.153 59.2765 47.7985C59.5121 47.6234 59.7477 47.4349 59.9497 47.2262L59.916 47.1252C59.7906 46.91 59.7442 46.6578 59.7847 46.412C59.8253 46.1663 59.9503 45.9423 60.1382 45.7788C60.2237 45.7159 60.3193 45.6681 60.4209 45.6374C60.5048 45.6216 60.5916 45.6397 60.6622 45.6876C60.7328 45.7355 60.7816 45.8095 60.7979 45.8933C60.818 46.0136 60.818 46.1364 60.7979 46.2568C60.7491 46.4527 60.6838 46.6441 60.6027 46.829C60.5862 46.8637 60.5727 46.8997 60.5623 46.9367C60.5584 46.9544 60.5581 46.9728 60.5614 46.9906C60.5648 47.0084 60.5717 47.0254 60.5818 47.0405C60.5918 47.0556 60.6048 47.0685 60.62 47.0784C60.6352 47.0883 60.6522 47.0951 60.67 47.0983C60.7619 47.1052 60.8542 47.1052 60.946 47.0983C61.1256 47.0707 61.2988 47.0114 61.4577 46.9233L61.7404 46.7886C61.8111 46.7615 61.8886 46.758 61.9615 46.7786C62.0343 46.7992 62.0985 46.8429 62.1444 46.9031C62.1759 46.9353 62.1972 46.9762 62.2056 47.0205C62.214 47.0648 62.2091 47.1106 62.1915 47.1522L62.0703 47.482L61.9289 47.8321C61.926 47.8635 61.926 47.895 61.9289 47.9264C61.892 48.0344 61.8988 48.1527 61.9478 48.2558C61.9969 48.359 62.0843 48.4389 62.1915 48.4784C62.2937 48.5228 62.4033 48.5479 62.5146 48.5525C62.9025 48.5824 63.2926 48.5552 63.6726 48.4717C64.2389 48.3582 64.787 48.168 65.3018 47.9062C65.6596 47.7294 65.9906 47.5028 66.2847 47.233C66.3223 47.1816 66.3773 47.1458 66.4395 47.132C66.4764 47.1244 66.5147 47.128 66.5495 47.1424C66.5843 47.1568 66.614 47.1813 66.6347 47.2128C66.6579 47.2464 66.6703 47.2863 66.6703 47.3272C66.6703 47.3681 66.6579 47.408 66.6347 47.4417L66.5472 47.5359C66.3028 47.7682 66.0343 47.9736 65.7461 48.1485C65.0836 48.5306 64.3589 48.7927 63.6053 48.9227C63.2853 48.9797 62.9608 49.0067 62.6358 49.0035C62.4196 49 62.2064 48.9519 62.0097 48.8621C61.8635 48.8022 61.7358 48.7047 61.6395 48.5794C61.5684 48.4843 61.5199 48.3742 61.4977 48.2576C61.4756 48.1409 61.4803 48.0207 61.5115 47.9062C61.5406 47.7585 61.5904 47.6157 61.6597 47.482C61.685 47.4326 61.7053 47.3807 61.7202 47.3272C61.6799 47.3272 61.6529 47.3272 61.626 47.3272C61.5867 47.34 61.5485 47.3558 61.5115 47.3743C61.1325 47.5676 60.6933 47.6062 60.2863 47.482C60.2163 47.6051 60.1197 47.7109 60.0035 47.7917C59.5393 48.1903 59.0257 48.5274 58.4753 48.7948C58.1411 48.9632 57.7819 49.0768 57.4117 49.1314C57.1517 49.1811 56.8843 49.1769 56.6261 49.119C56.3678 49.0611 56.1242 48.9508 55.9104 48.7948C55.7618 48.6889 55.634 48.5565 55.5334 48.4044L55.4459 48.2764C55.4265 48.25 55.4011 48.2285 55.3719 48.2137C55.3427 48.1989 55.3103 48.1911 55.2776 48.1911C55.2448 48.1911 55.2125 48.1989 55.1832 48.2137C55.154 48.2285 55.1286 48.25 55.1093 48.2764C55.0323 48.3974 54.9492 48.5142 54.8602 48.6265C54.7182 48.8111 54.5504 48.9744 54.362 49.1112C54.2909 49.1589 54.2167 49.2016 54.1398 49.2391C54.0772 49.2718 54.0081 49.29 53.9375 49.2923C53.8669 49.2946 53.7967 49.2811 53.7321 49.2526C53.6675 49.2242 53.6101 49.1816 53.5641 49.128C53.5182 49.0744 53.4848 49.0111 53.4666 48.9429C53.3716 48.6984 53.3528 48.4308 53.4128 48.1755C53.4166 48.1442 53.4166 48.1125 53.4128 48.0812C53.3755 48.0988 53.3395 48.1191 53.305 48.1418C53.0513 48.3432 52.786 48.5298 52.5106 48.7006C52.2659 48.8476 52.0092 48.9738 51.7432 49.0776C51.4402 49.2032 51.1152 49.2673 50.7872 49.2661C50.5177 49.2705 50.2518 49.2045 50.0156 49.0746C49.7795 48.9447 49.5814 48.7555 49.4408 48.5255C49.2431 48.2226 49.1059 47.8843 49.0368 47.5292C48.9702 47.2324 48.9275 46.9307 48.9089 46.6271C48.8921 46.3378 48.8921 46.0478 48.9089 45.7586C48.9089 45.5297 48.8685 45.4893 48.6598 45.5095L48.1078 45.5566L47.3471 45.6038C47.2772 45.5962 47.2067 45.6103 47.1451 45.6442C47.1451 45.7115 47.1922 45.7451 47.2259 45.7923C47.3801 46.0057 47.5174 46.2307 47.6366 46.4655C47.7768 46.729 47.8745 47.013 47.926 47.307C47.9773 47.6334 47.9425 47.9676 47.8251 48.2764C47.6975 48.5999 47.4588 48.8672 47.1518 49.0304C46.8544 49.1847 46.5338 49.2893 46.2026 49.3401C45.9138 49.3918 45.6208 49.4166 45.3274 49.4142C44.7138 49.4128 44.1069 49.2869 43.5434 49.0439C43.324 48.9482 43.1251 48.8111 42.9577 48.64C42.828 48.5046 42.742 48.3334 42.7108 48.1485C42.6796 47.9636 42.7046 47.7737 42.7827 47.6032C42.9037 47.3415 43.0834 47.1111 43.3078 46.93C43.5331 46.7325 43.7765 46.5567 44.0349 46.4049C44.3348 46.1722 44.6521 45.9629 44.9841 45.7788H45.1053C45.1493 45.7639 45.1973 45.7651 45.2405 45.7824C45.2837 45.7997 45.3193 45.8318 45.3409 45.8731C45.3602 45.9137 45.3654 45.9596 45.3556 46.0035C45.3458 46.0474 45.3217 46.0868 45.287 46.1154C45.249 46.1458 45.2056 46.1686 45.1591 46.1827C44.811 46.3517 44.4718 46.5382 44.1426 46.7415C43.8983 46.9049 43.6725 47.0946 43.4693 47.307C43.3741 47.3989 43.2945 47.5058 43.2337 47.6234C43.214 47.6551 43.1982 47.689 43.1866 47.7244C43.1359 47.8394 43.1249 47.968 43.1554 48.0899C43.1858 48.2118 43.256 48.3201 43.3549 48.3976C43.5108 48.5215 43.683 48.6234 43.8666 48.7006C44.2129 48.8375 44.5787 48.9193 44.9504 48.9429C45.0558 48.9496 45.1615 48.9496 45.2668 48.9429C45.7749 48.9703 46.2832 48.8947 46.7614 48.7208C46.8889 48.6738 47.0108 48.6128 47.1249 48.539C47.2713 48.45 47.393 48.3258 47.4788 48.1776C47.5647 48.0293 47.612 47.862 47.6164 47.6907C47.6364 47.354 47.5692 47.0177 47.4211 46.7146C47.294 46.4622 47.1453 46.2212 46.9768 45.9942C46.9162 45.9134 46.8489 45.8394 46.7883 45.7519C46.7461 45.6834 46.6821 45.6313 46.6065 45.6038C46.5769 45.5941 46.5504 45.5765 46.5302 45.5527C46.51 45.5289 46.4968 45.5 46.4921 45.4691C46.4757 45.3935 46.4356 45.3251 46.3776 45.2739C46.1891 45.0854 46.0006 44.8902 45.8189 44.6882C45.4621 44.3112 45.1053 43.9342 44.7619 43.537C44.5022 43.2594 44.2763 42.9521 44.0887 42.6214C43.9328 42.3636 43.8213 42.0814 43.7588 41.7866C43.7046 41.4588 43.7524 41.1222 43.8957 40.8225C44.039 40.5227 44.2708 40.2741 44.56 40.1103C44.8147 39.9774 45.0945 39.8994 45.3813 39.8814C45.926 39.8421 46.4734 39.9014 46.997 40.0565C47.8043 40.2702 48.5724 40.6111 49.2725 41.0663C49.6281 41.2885 49.9501 41.5605 50.2284 41.8742C50.2537 41.9086 50.289 41.9344 50.3294 41.9482C50.5381 42.0021 50.6189 42.1771 50.6862 42.3589C50.6928 42.408 50.6928 42.4578 50.6862 42.507C50.6923 42.7104 50.6742 42.9137 50.6324 43.1129C50.5314 43.5168 50.4169 43.9207 50.3025 44.3247C50.3025 44.4458 50.2217 44.5603 50.1881 44.6815C50.186 44.7173 50.186 44.7533 50.1881 44.7892C50.1881 44.8767 50.188 44.9238 50.2958 44.9238H50.4977H50.7737L52.0596 44.8565C52.275 44.8565 52.5039 44.8565 52.7328 44.8565H52.8405C52.8828 44.871 52.9203 44.8969 52.9489 44.9313C52.9774 44.9658 52.9958 45.0074 53.0021 45.0517C52.9992 45.0989 52.9813 45.144 52.951 45.1803C52.9208 45.2166 52.8797 45.2423 52.8338 45.2537H52.7059L51.1642 45.2941C50.8209 45.2941 50.491 45.3412 50.1275 45.3681C50.0892 45.3689 50.0524 45.3827 50.0231 45.4071C49.9937 45.4316 49.9735 45.4653 49.9659 45.5028C49.9348 45.6107 49.8966 45.7164 49.8514 45.8192C49.7235 46.1693 49.5956 46.4924 49.461 46.8694C49.4273 46.9837 49.4273 47.1052 49.461 47.2195C49.513 47.5439 49.6176 47.8577 49.7707 48.1485C49.8577 48.3101 49.9768 48.4521 50.1207 48.5659C50.289 48.6952 50.489 48.7766 50.6997 48.8015C51.0417 48.8344 51.3866 48.7812 51.7028 48.6467C51.9899 48.5301 52.265 48.3858 52.5241 48.2159C52.907 47.9668 53.2694 47.6877 53.608 47.3811L53.8705 47.132C53.8997 47.0955 53.9385 47.068 53.9825 47.0525C54.0266 47.037 54.0741 47.0342 54.1196 47.0445H54.1668L54.0927 47.031ZM49.8784 42.13L49.8178 42.029C49.6492 41.8521 49.4618 41.6941 49.259 41.5577C48.2711 40.8377 47.1093 40.3939 45.8929 40.2719C45.5885 40.2479 45.2824 40.2822 44.9908 40.3729C44.8174 40.4223 44.6581 40.5123 44.5263 40.6354C44.3812 40.7828 44.275 40.9639 44.2174 41.1626C44.1598 41.3612 44.1526 41.571 44.1964 41.7732C44.2742 42.1134 44.4209 42.4342 44.6273 42.7157C44.8291 43.0157 45.0542 43.2993 45.3005 43.5639L46.5863 44.9104L46.822 45.1527H47.172H47.2326L48.027 45.0854L48.7541 45.0383H48.8416C48.8827 45.0352 48.9217 45.0192 48.9532 44.9926C48.9846 44.966 49.0068 44.9302 49.0167 44.8902C49.019 44.8543 49.019 44.8183 49.0167 44.7824C49.0167 44.6141 49.0772 44.4458 49.1109 44.2775C49.1109 44.2775 49.1109 44.2169 49.1109 44.1833H48.9965L48.404 44.2304C48.0754 44.2494 47.7457 44.2314 47.4211 44.1766C47.3729 44.1686 47.3269 44.1502 47.2865 44.1227C47.2615 44.1053 47.2411 44.0822 47.227 44.0552C47.2129 44.0283 47.2055 43.9983 47.2055 43.9679C47.2055 43.9374 47.2129 43.9074 47.227 43.8805C47.2411 43.8535 47.2615 43.8304 47.2865 43.813C47.3174 43.7999 47.3506 43.7931 47.3841 43.7931C47.4177 43.7931 47.4509 43.7999 47.4817 43.813C47.7241 43.813 47.9732 43.8601 48.2155 43.8601C48.4579 43.8601 48.6396 43.8601 48.8483 43.8601C48.9824 43.8581 49.1149 43.8307 49.2388 43.7794C49.3129 43.5303 49.3869 43.2812 49.4677 43.0455C49.5427 42.8092 49.6468 42.5831 49.7774 42.3723L49.912 42.1906L49.8784 42.13ZM50.013 43.9005L49.5889 44.0554H49.5418C49.4709 44.3105 49.4258 44.5721 49.4071 44.8363C49.4042 44.8766 49.4042 44.9171 49.4071 44.9575H49.5822C49.6107 44.9566 49.6382 44.9462 49.6602 44.9279C49.6821 44.9096 49.6973 44.8845 49.7033 44.8565V44.7824L49.9524 43.9948C49.9551 43.9522 49.9551 43.9095 49.9524 43.8669L50.013 43.9005ZM50.1342 42.4666C50.0304 42.5695 49.954 42.6968 49.912 42.8369C49.7956 43.0685 49.7225 43.3195 49.6966 43.5774H49.7841L50.0534 43.4091C50.1388 43.3548 50.2011 43.2709 50.2284 43.1735C50.2788 43.0204 50.2788 42.8553 50.2284 42.7022C50.208 42.6243 50.1687 42.5526 50.114 42.4935L50.1342 42.4666ZM49.259 45.7788C49.259 45.8551 49.259 45.9224 49.259 45.9808C49.2634 45.9864 49.269 45.9909 49.2755 45.994C49.2819 45.9971 49.2889 45.9987 49.296 45.9987C49.3032 45.9987 49.3102 45.9971 49.3166 45.994C49.323 45.9909 49.3287 45.9864 49.3331 45.9808C49.4278 45.8323 49.4877 45.6643 49.5081 45.4893C49.5081 45.422 49.5081 45.3816 49.4139 45.3749C49.3791 45.369 49.3434 45.3769 49.3144 45.3971C49.2855 45.4172 49.2656 45.4479 49.259 45.4826C49.235 45.5847 49.2171 45.6881 49.2052 45.7923L49.259 45.7788ZM60.394 46.1154C60.3354 46.1559 60.2856 46.2078 60.2474 46.2679C60.2092 46.328 60.1835 46.3952 60.1718 46.4655C60.1608 46.5016 60.158 46.5398 60.1639 46.5771C60.1697 46.6144 60.1839 46.6499 60.2055 46.6809C60.2943 46.5021 60.3578 46.3118 60.394 46.1154Z" fill="#0A0A0A"/>
<path d="M33.5263 46.9703C33.7215 46.8088 33.8965 46.6741 34.0716 46.5462C34.2465 46.4232 34.4465 46.3404 34.6573 46.3039C34.7422 46.2936 34.8281 46.2936 34.9131 46.3039C34.9918 46.3105 35.0682 46.3341 35.1371 46.3728C35.206 46.4115 35.2657 46.4646 35.3123 46.5284C35.3589 46.5923 35.3912 46.6653 35.4071 46.7427C35.4231 46.8201 35.4222 46.9001 35.4045 46.9771C35.3655 47.1628 35.2602 47.3279 35.1083 47.4416C34.8544 47.6326 34.5631 47.7679 34.2533 47.8388C34.0521 47.8823 33.8466 47.9027 33.6407 47.8994H33.5667C33.5061 47.8994 33.4724 47.9465 33.4724 48.0206C33.4762 48.1603 33.5341 48.293 33.634 48.3908C33.6996 48.4505 33.7719 48.5025 33.8494 48.5457C34.2559 48.7485 34.7014 48.861 35.1555 48.8755C35.9464 48.8854 36.7299 48.7223 37.4511 48.3976C38.094 48.1254 38.7019 47.7774 39.2621 47.3608C39.3294 47.3033 39.4015 47.2515 39.4775 47.206C39.5178 47.1805 39.5665 47.1719 39.6131 47.1819C39.6597 47.192 39.7004 47.22 39.7266 47.2598C39.7588 47.2947 39.7766 47.3403 39.7766 47.3877C39.7766 47.4352 39.7588 47.4808 39.7266 47.5157C39.7054 47.5397 39.6803 47.5602 39.6525 47.5762C38.8967 48.1686 38.0513 48.6367 37.1482 48.9631C36.7961 49.0867 36.4332 49.1768 36.0643 49.2324C35.3127 49.3559 34.5417 49.2697 33.8359 48.9833C33.7248 48.9316 33.6168 48.8731 33.5128 48.8082C33.3779 48.724 33.2703 48.6024 33.2031 48.4582C33.139 48.3406 33.1066 48.2083 33.1089 48.0744V47.7984C33.0555 47.8125 33.0068 47.8404 32.9675 47.8792C32.6516 48.1267 32.3187 48.3517 31.9711 48.5524C31.5016 48.8475 30.9846 49.0593 30.4429 49.1785C30.1518 49.2358 29.8522 49.2358 29.561 49.1785C29.2581 49.1192 28.9848 48.9575 28.7868 48.7207C28.6796 48.6038 28.6073 48.4592 28.5781 48.3033V48.2091C28.5704 48.1805 28.5557 48.1544 28.5352 48.1331C28.5147 48.1119 28.4891 48.0961 28.4609 48.0874C28.4326 48.0786 28.4027 48.0772 28.3737 48.0832C28.3448 48.0891 28.3178 48.1023 28.2954 48.1215L28.1742 48.236C28.0179 48.3958 27.8466 48.5401 27.6626 48.6669C27.5368 48.75 27.398 48.8114 27.2519 48.8486C27.1762 48.8688 27.0968 48.8709 27.0201 48.8546C26.9434 48.8384 26.8717 48.8043 26.8107 48.7551C26.7497 48.7059 26.7012 48.643 26.669 48.5715C26.6369 48.5 26.6221 48.422 26.6258 48.3437C26.629 48.2048 26.6493 48.0669 26.6864 47.933C26.6891 47.8905 26.6891 47.8477 26.6864 47.8051H26.5854L26.3767 47.8927C26.1197 47.9956 25.8429 48.0393 25.5667 48.0207C25.2905 48.002 25.022 47.9215 24.7812 47.7849L24.66 47.7984C24.5809 47.7525 24.4885 47.7348 24.398 47.7483C24.3075 47.7617 24.2242 47.8055 24.1618 47.8725L23.6973 48.4716L23.6502 48.5322C23.5068 48.7091 23.4055 48.9163 23.354 49.1381C23.2241 49.6712 23.0531 50.1934 22.8423 50.7C22.573 51.3732 22.297 52.0464 22.0277 52.7196C22.0277 52.76 22.0277 52.8004 21.9739 52.8341C21.9514 52.8691 21.9186 52.8963 21.88 52.9119C21.8415 52.9276 21.799 52.931 21.7584 52.9216C21.7142 52.9059 21.676 52.8767 21.6494 52.838C21.6227 52.7993 21.6091 52.7531 21.6103 52.7062C21.6073 52.6793 21.6073 52.6522 21.6103 52.6254C21.7938 51.8177 22.0185 51.0201 22.2836 50.2354C22.4529 49.7228 22.6787 49.2306 22.9568 48.7678C23.009 48.6813 23.0434 48.5851 23.0578 48.4851L23.1183 48.0273C23.1205 48.0004 23.1205 47.9734 23.1183 47.9465C23.0847 47.9465 23.0578 47.9465 23.051 47.9465L22.9231 48.1619C22.8073 48.3762 22.6623 48.5733 22.4923 48.7476C22.4184 48.826 22.329 48.8879 22.2297 48.9294C22.1598 48.9642 22.0832 48.9836 22.0051 48.9863C21.927 48.989 21.8493 48.9748 21.7771 48.9448C21.705 48.9148 21.6401 48.8697 21.587 48.8124C21.5338 48.7552 21.4936 48.6871 21.469 48.613C21.4387 48.5235 21.4387 48.4265 21.469 48.337C21.469 48.2899 21.469 48.2495 21.469 48.1821C21.4099 48.2183 21.3537 48.2588 21.3007 48.3033C21.0281 48.5034 20.74 48.6813 20.4389 48.8352C20.1364 48.9935 19.8153 49.1134 19.483 49.192C19.0818 49.2816 18.6642 49.2654 18.2712 49.1448C18.0609 49.0669 17.8635 48.958 17.6855 48.8217C17.5795 48.7411 17.4909 48.6399 17.425 48.5242C17.3591 48.4085 17.3171 48.2807 17.3018 48.1485C17.3048 48.1014 17.3048 48.0542 17.3018 48.0071C17.2327 48.0425 17.1692 48.0879 17.1133 48.1417C16.7433 48.442 16.3332 48.689 15.8947 48.8755C15.6036 48.9977 15.2942 49.0705 14.9792 49.091C14.7461 49.1054 14.5125 49.0735 14.2919 48.9972C14.0712 48.921 13.8678 48.8018 13.6933 48.6467C13.5212 48.5004 13.3735 48.3277 13.2557 48.135C13.1951 48.034 13.1278 47.9398 13.0672 47.8455C13.0358 47.7872 12.9849 47.7418 12.9233 47.7172C12.8618 47.6925 12.7936 47.6903 12.7306 47.7109C12.5707 47.7544 12.4185 47.8225 12.2796 47.9128C12.051 48.0574 11.8428 48.2317 11.6602 48.4312C11.4919 48.5995 11.3371 48.7813 11.1755 48.9563L11.061 49.0842C11.0305 49.1057 10.994 49.1172 10.9567 49.1172C10.9193 49.1172 10.8829 49.1057 10.8523 49.0842C10.8135 49.0682 10.7811 49.0396 10.7603 49.003C10.7396 48.9664 10.7317 48.9239 10.7379 48.8823C10.7459 48.8211 10.7571 48.7605 10.7716 48.7005C10.886 48.2023 10.9937 47.7109 11.1082 47.2194C11.1122 47.1752 11.1235 47.132 11.1418 47.0915C11.1584 47.0504 11.1895 47.0167 11.2291 46.9969C11.2688 46.977 11.3144 46.9724 11.3573 46.9838C11.4012 46.9918 11.4409 47.0151 11.4693 47.0496C11.4976 47.0842 11.5128 47.1276 11.5121 47.1723C11.5186 47.2147 11.5186 47.2578 11.5121 47.3002C11.465 47.5157 11.4178 47.7243 11.3775 47.933C11.3737 47.9576 11.3737 47.9826 11.3775 48.0071C11.3775 48.0071 11.4178 48.061 11.4515 48.0542C11.4878 48.0334 11.5217 48.0086 11.5525 47.9802L11.8824 47.6974C12.0666 47.5383 12.2789 47.415 12.5085 47.3339C12.6078 47.2951 12.712 47.2701 12.8181 47.2598C12.9191 47.2472 13.0217 47.2618 13.1151 47.302C13.2086 47.3423 13.2897 47.4067 13.35 47.4887C13.4442 47.6099 13.5317 47.7445 13.6193 47.8725C13.7456 48.0749 13.9076 48.2528 14.0972 48.3976C14.395 48.6117 14.7646 48.701 15.1273 48.6467C15.5721 48.5875 15.9978 48.4287 16.3727 48.1821C16.7339 47.956 17.0682 47.6895 17.3691 47.3877C17.4384 47.3171 17.4912 47.232 17.5239 47.1386C17.5576 47.0646 17.5845 46.9838 17.6249 46.9098C17.6421 46.8804 17.6667 46.8561 17.6963 46.8392C17.7258 46.8224 17.7592 46.8135 17.7932 46.8135C17.8272 46.8135 17.8606 46.8224 17.8902 46.8392C17.9197 46.8561 17.9443 46.8804 17.9615 46.9098C17.9733 46.9327 17.9795 46.958 17.9795 46.9838C17.9795 47.0096 17.9733 47.035 17.9615 47.0579L17.9009 47.1992C17.8095 47.4129 17.7548 47.6405 17.7393 47.8725C17.7393 47.9465 17.7393 48.0138 17.7393 48.0812C17.7431 48.1576 17.7638 48.2323 17.7999 48.2998C17.836 48.3673 17.8866 48.426 17.948 48.4716C18.1814 48.659 18.4647 48.7737 18.7626 48.8015C19.0158 48.8377 19.2734 48.8286 19.5234 48.7746C19.9684 48.6546 20.3913 48.4636 20.7756 48.2091C21.2373 47.9202 21.6643 47.5791 22.0479 47.1925C22.0723 47.1548 22.1044 47.1226 22.1422 47.0983C22.2701 47.0511 22.3441 46.9367 22.4451 46.8559C22.5461 46.7751 22.7077 46.627 22.8491 46.5193C22.9245 46.4654 23.0058 46.4202 23.0914 46.3846C23.1315 46.3677 23.1762 46.3652 23.2179 46.3775C23.2596 46.3898 23.2958 46.4161 23.3203 46.452C23.3461 46.4884 23.36 46.5319 23.36 46.5765C23.36 46.6211 23.3461 46.6647 23.3203 46.7011L23.1991 46.7886C23.0578 46.8963 22.9096 47.004 22.7683 47.1252C22.4117 47.4437 22.133 47.8399 21.9537 48.2831C21.9342 48.3236 21.9206 48.3667 21.9133 48.411C21.9103 48.4318 21.9119 48.453 21.9181 48.473C21.9242 48.4931 21.9348 48.5115 21.949 48.527C21.9631 48.5425 21.9806 48.5546 22 48.5625C22.0195 48.5704 22.0404 48.5738 22.0614 48.5726C22.1093 48.5727 22.1561 48.5587 22.196 48.5322C22.2673 48.4811 22.3327 48.4224 22.3913 48.3572C22.4782 48.2425 22.5591 48.1234 22.6336 48.0004C22.8052 47.7035 22.9516 47.3927 23.0712 47.0713C23.074 47.0422 23.074 47.0129 23.0712 46.9838C23.0842 46.9512 23.1064 46.923 23.1351 46.9027C23.1637 46.8823 23.1977 46.8708 23.2328 46.8694C23.2707 46.8651 23.3091 46.8725 23.3427 46.8905C23.3764 46.9086 23.4038 46.9364 23.4213 46.9703C23.4617 47.0646 23.4886 47.1588 23.5223 47.2531C23.5559 47.3473 23.5223 47.3675 23.5223 47.4214C23.5317 47.4576 23.5494 47.4911 23.574 47.5194C23.5985 47.5476 23.6293 47.5698 23.6639 47.5841C23.6984 47.5985 23.7359 47.6046 23.7732 47.6021C23.8105 47.5995 23.8468 47.5884 23.8791 47.5695C23.9127 47.5695 23.9397 47.5089 23.9801 47.482L24.1349 47.3473C24.2067 47.2963 24.2926 47.2689 24.3806 47.2689C24.4687 47.2689 24.5546 47.2963 24.6264 47.3473L24.761 47.4416C25.0799 47.6528 25.4614 47.7486 25.8423 47.7131C26.2231 47.6776 26.5803 47.5129 26.8547 47.2464C26.945 47.1695 27.0222 47.0785 27.0836 46.9771C27.0934 46.9552 27.1078 46.9356 27.1258 46.9198C27.1438 46.9039 27.165 46.892 27.188 46.885C27.2109 46.878 27.2351 46.876 27.2589 46.8791C27.2827 46.8822 27.3056 46.8904 27.3259 46.903C27.3684 46.9235 27.402 46.9586 27.4205 47.0019C27.4391 47.0452 27.4414 47.0938 27.4269 47.1386C27.4219 47.1719 27.4104 47.2039 27.3933 47.2329L27.3259 47.3473C27.1819 47.6149 27.0732 47.9 27.0028 48.1956C26.9925 48.2828 26.9925 48.3709 27.0028 48.4582C27.0028 48.512 27.0432 48.5457 27.1038 48.5524C27.1919 48.557 27.2784 48.5281 27.3461 48.4716C27.4809 48.3821 27.6092 48.2831 27.7299 48.1754C28.0829 47.8424 28.3989 47.4722 28.6724 47.0713C28.6977 47.0283 28.727 46.9877 28.7599 46.9501C28.7855 46.9155 28.8225 46.8911 28.8645 46.8812C28.9064 46.8714 28.9504 46.8767 28.9888 46.8963C29.0264 46.9135 29.0573 46.9426 29.0768 46.9791C29.0963 47.0156 29.1032 47.0574 29.0965 47.0983C29.1056 47.1404 29.1056 47.184 29.0965 47.2262C29.006 47.5025 28.9561 47.7905 28.9484 48.0812C28.9553 48.1696 28.9688 48.2573 28.9888 48.3437C29.0126 48.4341 29.0616 48.5158 29.1302 48.5793C29.3135 48.752 29.5519 48.8545 29.8034 48.8688C30.1719 48.8848 30.5394 48.8205 30.8805 48.6803C31.5418 48.417 32.1575 48.0513 32.7049 47.5964C32.9002 47.4416 33.0819 47.2666 33.2637 47.0983C33.4455 46.93 33.4455 46.9367 33.5599 46.9703H33.5263ZM33.708 47.4887C33.8144 47.513 33.9248 47.513 34.0312 47.4887C34.2429 47.4256 34.4481 47.3421 34.6438 47.2396C34.7319 47.1914 34.8153 47.135 34.8929 47.0713C34.9399 47.0325 34.9749 46.9811 34.9939 46.9232C35.0053 46.9009 35.0108 46.8761 35.01 46.8511C35.0092 46.8261 35.0021 46.8017 34.9893 46.7802C34.9766 46.7587 34.9586 46.7408 34.937 46.7281C34.9154 46.7155 34.891 46.7085 34.866 46.7078C34.7857 46.6946 34.7039 46.6946 34.6236 46.7078C34.2617 46.8256 33.9507 47.063 33.7417 47.381C33.7352 47.4211 33.7352 47.4621 33.7417 47.5022L33.708 47.4887Z" fill="#0A0A0A"/>
<path d="M9.14909 47.3472V46.9299C9.14936 46.9106 9.14272 46.8918 9.13037 46.877C9.11802 46.8622 9.10078 46.8523 9.08177 46.8491C9.04137 46.8491 9.00098 46.8491 8.98078 46.8491C8.95148 46.8902 8.92451 46.9329 8.9 46.977C8.7059 47.318 8.48052 47.6403 8.22678 47.9397C7.76193 48.5245 7.12671 48.9504 6.4091 49.1582C6.06043 49.2534 5.70005 49.2987 5.33868 49.2928C5.16026 49.29 4.98327 49.2605 4.81357 49.2053C4.58505 49.1374 4.38067 49.0057 4.22444 48.8256C4.06822 48.6455 3.96664 48.4246 3.93166 48.1888C3.8846 47.9283 3.8846 47.6616 3.93166 47.4011C3.99431 46.8981 4.10477 46.4021 4.26154 45.92C4.49716 45.2064 4.73952 44.4928 4.97515 43.7792C5.10542 43.4153 5.21555 43.0444 5.30502 42.6684C5.34734 42.476 5.36989 42.2797 5.37234 42.0827C5.3787 42.038 5.3787 41.9927 5.37234 41.9481C5.37071 41.8694 5.33917 41.7943 5.28415 41.738C5.22913 41.6817 5.15475 41.6485 5.07613 41.6451C4.69521 41.5756 4.30268 41.6081 3.93839 41.7394C3.20342 41.9595 2.55595 42.4045 2.08705 43.0117C1.81971 43.3197 1.6406 43.6942 1.56867 44.0956C1.49229 44.4568 1.53725 44.833 1.69658 45.166C1.84912 45.4649 2.06236 45.7286 2.32267 45.9402C2.36307 45.9873 2.41692 46.021 2.46405 46.0681C2.49229 46.1026 2.50833 46.1455 2.50967 46.1901C2.511 46.2346 2.49756 46.2784 2.47143 46.3145C2.4453 46.3506 2.40796 46.3771 2.36522 46.3897C2.32248 46.4024 2.27675 46.4006 2.23516 46.3845L2.17457 46.3374C1.83222 46.0856 1.54951 45.7615 1.34651 45.3882C1.21121 45.1209 1.13351 44.8282 1.11844 44.529C1.10336 44.2298 1.15124 43.9308 1.25899 43.6513C1.43519 43.1797 1.71868 42.7557 2.08705 42.4126C2.56137 41.9459 3.13748 41.5956 3.77009 41.3893C4.04025 41.3009 4.32098 41.2488 4.60488 41.2344C4.81805 41.2233 5.03164 41.246 5.2377 41.3018C5.33796 41.3263 5.4305 41.3754 5.50693 41.4448C5.58335 41.5142 5.64122 41.6015 5.67529 41.699C5.72304 41.8166 5.74816 41.9423 5.74935 42.0692C5.75207 42.3281 5.72037 42.5862 5.65509 42.8367C5.5508 43.2536 5.42497 43.6648 5.27809 44.0687C5.06266 44.7419 4.8405 45.4151 4.60488 46.0479C4.49655 46.4011 4.4111 46.7609 4.34906 47.1251C4.29766 47.3911 4.27956 47.6625 4.2952 47.9329C4.305 48.0335 4.32531 48.1328 4.35579 48.2292C4.39554 48.3867 4.48042 48.5292 4.60001 48.6393C4.71959 48.7493 4.86869 48.822 5.029 48.8485C5.42873 48.9106 5.83707 48.8877 6.22733 48.7812C6.86227 48.604 7.42819 48.2377 7.84978 47.731C8.31429 47.1718 8.68696 46.5423 8.95386 45.8662C9.2285 45.1625 9.45346 44.4403 9.62707 43.7051C9.76172 43.1666 9.89636 42.6213 10.0377 42.0827C10.0849 41.9211 10.1387 41.7596 10.1926 41.598C10.2282 41.5029 10.271 41.4106 10.3205 41.322C10.3403 41.2865 10.3734 41.2602 10.4124 41.2489C10.4515 41.2376 10.4934 41.242 10.5292 41.2614C10.6234 41.3018 10.6706 41.3624 10.6504 41.4499C10.6302 41.5374 10.6504 41.5845 10.61 41.6518L10.2464 42.9511C10.0175 43.7859 9.8223 44.6275 9.6742 45.4824C9.59133 45.9277 9.5329 46.3772 9.49916 46.8289C9.48235 47.0822 9.48235 47.3363 9.49916 47.5896C9.50721 47.8044 9.53197 48.0182 9.57321 48.2292C9.60492 48.4497 9.70913 48.6534 9.86943 48.8081C9.89946 48.8425 9.92439 48.8811 9.94348 48.9226C9.95378 48.9585 9.95354 48.9966 9.9428 49.0324C9.93206 49.0682 9.91127 49.1002 9.88289 49.1245C9.85052 49.1508 9.81012 49.1651 9.76845 49.1651C9.72678 49.1651 9.68637 49.1508 9.654 49.1245C9.54156 49.0548 9.44884 48.9575 9.38471 48.8418C9.29859 48.7023 9.23498 48.55 9.19621 48.3907C9.10987 48.0454 9.0736 47.6894 9.0885 47.3338L9.14909 47.3472Z" fill="#0A0A0A"/>
<path d="M17.4498 46.4518C17.4155 46.4525 17.3816 46.4442 17.3516 46.4276C17.3216 46.4111 17.2964 46.3869 17.2787 46.3576C17.2609 46.3282 17.2512 46.2947 17.2505 46.2605C17.2498 46.2262 17.2582 46.1923 17.2748 46.1623C17.2855 46.1329 17.3072 46.1087 17.3354 46.095C17.4918 45.9942 17.6403 45.8817 17.7797 45.7584C17.8183 45.7323 17.8649 45.7208 17.9112 45.7261C17.9575 45.7314 18.0004 45.7531 18.0321 45.7872C18.0638 45.8214 18.0823 45.8657 18.0841 45.9123C18.086 45.9589 18.0711 46.0045 18.0422 46.0411C17.8946 46.2154 17.7108 46.3555 17.5037 46.4518H17.4498Z" fill="#0A0A0A"/>
<path d="M5.83015 56.9811C5.7838 57.2897 5.62452 57.57 5.38321 57.7678C5.1419 57.9656 4.83574 58.0667 4.52411 58.0515C3.59507 58.0515 3.11035 57.2639 3.11035 56.3146C3.11035 55.3654 3.64892 54.5643 4.55103 54.5643C4.86242 54.55 5.16774 54.6537 5.40607 54.8546C5.64441 55.0555 5.79824 55.3389 5.83688 55.6482H5.38582C5.34472 55.4619 5.23904 55.2962 5.08748 55.1804C4.93593 55.0646 4.74828 55.0061 4.55777 55.0153C3.9586 55.0153 3.6018 55.5606 3.6018 56.2945C3.6018 57.0283 3.94514 57.6005 4.5645 57.6005C4.75262 57.6114 4.9385 57.5552 5.08895 57.4417C5.2394 57.3282 5.34462 57.165 5.38582 56.9811H5.83015Z" fill="white"/>
<path d="M8.00484 57.0284L7.6817 57.9777H7.21045L8.36838 54.6116H8.93388L10.1457 57.9777H9.65422L9.31088 57.0284H8.00484ZM9.16951 56.5504C8.8531 55.6685 8.70499 55.204 8.63767 55.0088C8.57708 55.2309 8.40204 55.7897 8.13949 56.5504H9.16951Z" fill="white"/>
<path d="M11.7344 54.6383H13.0808C13.1982 54.6222 13.3176 54.6323 13.4306 54.6679C13.5436 54.7035 13.6473 54.7637 13.7342 54.8441C13.8212 54.9246 13.8892 55.0234 13.9333 55.1333C13.9775 55.2432 13.9967 55.3616 13.9897 55.4799C14.0012 55.6297 13.9651 55.7794 13.8865 55.9076C13.8079 56.0357 13.6909 56.1358 13.5521 56.1935C13.7274 56.2384 13.8817 56.3429 13.9885 56.489C14.0954 56.6352 14.1481 56.8139 14.1378 56.9946C14.1471 57.1278 14.1273 57.2615 14.0799 57.3863C14.0325 57.5112 13.9586 57.6242 13.8632 57.7177C13.7678 57.8112 13.6533 57.8828 13.5275 57.9276C13.4017 57.9725 13.2677 57.9895 13.1347 57.9775H11.7344V54.6383ZM13 55.9848C13.3703 55.9848 13.5386 55.8232 13.5386 55.527C13.5386 55.2308 13.3097 55.0625 13.0068 55.0625H12.1854V55.9848H13ZM12.1854 57.5332H13.027C13.3366 57.5332 13.6396 57.4187 13.6396 56.9744C13.6396 56.5301 13.404 56.4223 12.9664 56.4223H12.1854V57.5332Z" fill="white"/>
<path d="M16.3191 54.6382V58.0043H15.8613V54.6382H16.3191Z" fill="white"/>
<path d="M18.2573 57.9777V54.6116H18.8026C19.4758 55.7493 20.2029 56.9207 20.3645 57.3044C20.3645 56.887 20.3645 56.335 20.3645 55.7897V54.6385H20.7819V58.0046H20.2702C19.9 57.3785 18.87 55.6079 18.6814 55.2242C18.6814 55.6483 18.6814 56.1196 18.6814 56.712V58.0046L18.2573 57.9777Z" fill="white"/>
<path d="M24.7879 56.4562H23.1654V57.5199H24.9562L24.8956 57.9777H22.7144V54.6116H24.8686V55.0694H23.1654V55.9715H24.7879V56.4562Z" fill="white"/>
<path d="M27.4265 55.096H26.3965V54.6382H28.9076V55.096H27.8843V57.9773H27.4265V55.096Z" fill="white"/>
<path d="M30.9681 56.55V57.9503H30.5171V54.5843H31.8635C31.9885 54.5712 32.1148 54.5856 32.2336 54.6265C32.3524 54.6675 32.4608 54.7339 32.5513 54.8211C32.6417 54.9083 32.712 55.0143 32.7571 55.1315C32.8023 55.2488 32.8213 55.3745 32.8128 55.4998C32.845 55.6774 32.8125 55.8607 32.7211 56.0164C32.6296 56.172 32.4854 56.2897 32.3146 56.3481C32.4761 56.4087 32.7387 56.5702 32.7387 57.1559V57.3108C32.7297 57.5357 32.741 57.761 32.7724 57.984H32.3146C32.273 57.7622 32.2594 57.536 32.2742 57.3108V57.1963C32.2742 56.7385 32.1261 56.5904 31.6683 56.5904L30.9681 56.55ZM30.9681 56.1057H31.7625C32.1665 56.1057 32.355 55.9374 32.355 55.5671C32.355 55.1969 32.1597 55.0488 31.7693 55.0488H30.9681V56.1057Z" fill="white"/>
<path d="M35.3979 57.9773V56.7251C35.4082 56.6968 35.4082 56.6658 35.3979 56.6376L34.2534 54.6179H34.792C35.1017 55.1767 35.546 55.9644 35.6739 56.2336C35.8085 55.9442 36.2461 55.1767 36.5558 54.6179H37.0271L35.8759 56.6376C35.868 56.6639 35.868 56.692 35.8759 56.7184V57.9638L35.3979 57.9773Z" fill="white"/>
</svg>
