<svg width="56" height="56" viewBox="0 0 56 56" fill="none" xmlns="http://www.w3.org/2000/svg">
<rect width="56" height="56" rx="12" fill="#FF5C5C" fill-opacity="0.3"/>
<path d="M42.28 43C45.82 39.4 48 34.44 48 29C48 17.96 39.04 9 28 9C16.96 9 8 17.96 8 29C8 34.44 10.16 39.36 13.68 42.98" stroke="#FF2E2E" stroke-width="3" stroke-miterlimit="10" stroke-linecap="round" stroke-linejoin="round"/>
<path d="M27.9983 47.0005C31.7317 47.0005 34.7583 43.9739 34.7583 40.2405C34.7583 36.507 31.7317 33.4805 27.9983 33.4805C24.2648 33.4805 21.2383 36.507 21.2383 40.2405C21.2383 43.9739 24.2648 47.0005 27.9983 47.0005Z" stroke="#FF2E2E" stroke-width="3" stroke-miterlimit="10" stroke-linecap="round" stroke-linejoin="round"/>
<path d="M34.5 28H36C37.64 28 39 26.66 39 25C39 23.36 37.64 22 36 22C34.36 22 33 23.34 33 25V26.5C33 27.32 33.68 28 34.5 28Z" stroke="#FF2E2E" stroke-width="3" stroke-miterlimit="10" stroke-linecap="round" stroke-linejoin="round"/>
</svg>
