<svg width="64" height="64" viewBox="0 0 64 64" fill="none" xmlns="http://www.w3.org/2000/svg">
<g clip-path="url(#clip0_708_2077)">
<mask id="mask0_708_2077" style="mask-type:alpha" maskUnits="userSpaceOnUse" x="0" y="0" width="64" height="64">
<path d="M42.6673 60.6663H8.00065C5.44065 60.6663 3.33398 58.5597 3.33398 55.9997V21.333C3.33398 9.54634 9.54732 3.33301 21.334 3.33301H42.6673C54.454 3.33301 60.6673 9.54634 60.6673 21.333V42.6663C60.6673 54.453 54.454 60.6663 42.6673 60.6663ZM21.334 7.33301C11.7873 7.33301 7.33398 11.7863 7.33398 21.333V55.9997C7.33398 56.373 7.62732 56.6663 8.00065 56.6663H42.6673C52.214 56.6663 56.6673 52.213 56.6673 42.6663V21.333C56.6673 11.7863 52.214 7.33301 42.6673 7.33301H21.334Z" fill="#F5F5F5"/>
<path d="M45.3327 27.333H18.666C17.5727 27.333 16.666 26.4263 16.666 25.333C16.666 24.2397 17.5727 23.333 18.666 23.333H45.3327C46.426 23.333 47.3327 24.2397 47.3327 25.333C47.3327 26.4263 46.426 27.333 45.3327 27.333Z" fill="#F5F5F5"/>
<path d="M37.3327 40.667H18.666C17.5727 40.667 16.666 39.7603 16.666 38.667C16.666 37.5737 17.5727 36.667 18.666 36.667H37.3327C38.426 36.667 39.3327 37.5737 39.3327 38.667C39.3327 39.7603 38.426 40.667 37.3327 40.667Z" fill="#F5F5F5"/>
</mask>
<g mask="url(#mask0_708_2077)">
<rect width="64" height="64" fill="#FF5C5C"/>
</g>
</g>
<defs>
<clipPath id="clip0_708_2077">
<rect width="64" height="64" fill="white" transform="matrix(-1 0 0 1 64 0)"/>
</clipPath>
</defs>
</svg>
