<svg width="56" height="56" viewBox="0 0 56 56" fill="none" xmlns="http://www.w3.org/2000/svg">
<rect width="56" height="56" rx="12" fill="#49C7F0" fill-opacity="0.3"/>
<path d="M40.0002 18.32C39.8802 18.3 39.7402 18.3 39.6202 18.32C36.8602 18.22 34.6602 15.96 34.6602 13.16C34.6602 10.3 36.9602 8 39.8202 8C42.6802 8 44.9801 10.32 44.9801 13.16C44.9601 15.96 42.7602 18.22 40.0002 18.32Z" stroke="#1A93C7" stroke-width="3" stroke-linecap="round" stroke-linejoin="round"/>
<path d="M37.9389 32.8803C40.6789 33.3403 43.6989 32.8603 45.8189 31.4403C48.6389 29.5603 48.6389 26.4803 45.8189 24.6003C43.6789 23.1803 40.6189 22.7003 37.8789 23.1803" stroke="#1A93C7" stroke-width="3" stroke-linecap="round" stroke-linejoin="round"/>
<path d="M15.937 18.32C16.057 18.3 16.197 18.3 16.317 18.32C19.077 18.22 21.277 15.96 21.277 13.16C21.277 10.3 18.977 8 16.117 8C13.257 8 10.957 10.32 10.957 13.16C10.977 15.96 13.177 18.22 15.937 18.32Z" stroke="#1A93C7" stroke-width="3" stroke-linecap="round" stroke-linejoin="round"/>
<path d="M17.9989 32.8803C15.2589 33.3403 12.2389 32.8603 10.1189 31.4403C7.29891 29.5603 7.29891 26.4803 10.1189 24.6003C12.2589 23.1803 15.3189 22.7003 18.0589 23.1803" stroke="#1A93C7" stroke-width="3" stroke-linecap="round" stroke-linejoin="round"/>
<path d="M28.0002 33.2595C27.8802 33.2395 27.7402 33.2395 27.6202 33.2595C24.8602 33.1595 22.6602 30.8995 22.6602 28.0995C22.6602 25.2395 24.9602 22.9395 27.8202 22.9395C30.6802 22.9395 32.9802 25.2595 32.9802 28.0995C32.9602 30.8995 30.7602 33.1795 28.0002 33.2595Z" stroke="#1A93C7" stroke-width="3" stroke-linecap="round" stroke-linejoin="round"/>
<path d="M22.1814 39.5587C19.3614 41.4387 19.3614 44.5187 22.1814 46.3987C25.3814 48.5387 30.6214 48.5387 33.8214 46.3987C36.6414 44.5187 36.6414 41.4387 33.8214 39.5587C30.6414 37.4388 25.3814 37.4388 22.1814 39.5587Z" stroke="#1A93C7" stroke-width="3" stroke-linecap="round" stroke-linejoin="round"/>
</svg>
