<svg width="64" height="65" viewBox="0 0 64 65" fill="none" xmlns="http://www.w3.org/2000/svg">
<g clip-path="url(#clip0_538_243)">
<mask id="mask0_538_243" style="mask-type:alpha" maskUnits="userSpaceOnUse" x="0" y="0" width="64" height="65">
<path d="M48.0002 21.5927C47.9202 21.5927 47.8668 21.5927 47.7868 21.5927H47.6535C42.6135 21.4327 38.8535 17.5394 38.8535 12.7394C38.8535 7.83271 42.8535 3.85938 47.7335 3.85938C52.6135 3.85938 56.6135 7.85938 56.6135 12.7394C56.5869 17.566 52.8268 21.4594 48.0268 21.6194C48.0268 21.5927 48.0268 21.5927 48.0002 21.5927ZM47.7335 7.83272C45.0402 7.83272 42.8535 10.0194 42.8535 12.7127C42.8535 15.3527 44.9069 17.4861 47.5469 17.5927C47.5735 17.5661 47.7868 17.5661 48.0268 17.5927C50.6135 17.4594 52.6135 15.3261 52.6402 12.7127C52.6402 10.0194 50.4535 7.83272 47.7335 7.83272Z" fill="#F5F5F5"/>
<path d="M48.026 41.2464C46.986 41.2464 45.946 41.1664 44.906 40.9797C43.8127 40.7931 43.0927 39.7531 43.2794 38.6597C43.466 37.5664 44.506 36.8464 45.5993 37.0331C48.8793 37.5931 52.346 36.9798 54.666 35.4331C55.9194 34.6064 56.586 33.5664 56.586 32.5264C56.586 31.4864 55.8927 30.4731 54.666 29.6464C52.346 28.0997 48.826 27.4864 45.5194 28.0731C44.426 28.2864 43.386 27.5397 43.1994 26.4464C43.0127 25.3531 43.7327 24.3131 44.826 24.1264C49.1727 23.3531 53.6794 24.1797 56.8794 26.3131C59.226 27.8864 60.586 30.1264 60.586 32.5264C60.586 34.8997 59.2527 37.1664 56.8794 38.7664C54.4527 40.3664 51.306 41.2464 48.026 41.2464Z" fill="#F5F5F5"/>
<path d="M15.9193 21.594C15.8926 21.594 15.866 21.594 15.866 21.594C11.066 21.434 7.30596 17.5406 7.2793 12.7406C7.2793 7.83397 11.2793 3.83398 16.1593 3.83398C21.0393 3.83398 25.0393 7.83399 25.0393 12.714C25.0393 17.5407 21.2793 21.434 16.4793 21.594L15.9193 19.594L16.106 21.594C16.0526 21.594 15.9726 21.594 15.9193 21.594ZM16.186 17.594C16.346 17.594 16.4793 17.594 16.6393 17.6206C19.0126 17.514 21.0926 15.3806 21.0926 12.7406C21.0926 10.0473 18.906 7.86064 16.2126 7.86064C13.5193 7.86064 11.3326 10.0473 11.3326 12.7406C11.3326 15.354 13.3593 17.4606 15.946 17.6206C15.9726 17.594 16.0793 17.594 16.186 17.594Z" fill="#F5F5F5"/>
<path d="M15.894 41.2464C12.614 41.2464 9.46732 40.3664 7.04065 38.7664C4.69398 37.1931 3.33398 34.9264 3.33398 32.5264C3.33398 30.1531 4.69398 27.8864 7.04065 26.3131C10.2406 24.1797 14.7473 23.3531 19.094 24.1264C20.1873 24.3131 20.9073 25.3531 20.7207 26.4464C20.534 27.5397 19.494 28.2864 18.4007 28.0731C15.094 27.4864 11.6007 28.0997 9.25399 29.6464C8.00065 30.4731 7.33398 31.4864 7.33398 32.5264C7.33398 33.5664 8.02732 34.6064 9.25399 35.4331C11.574 36.9798 15.0406 37.5931 18.3206 37.0331C19.414 36.8464 20.454 37.5931 20.6407 38.6597C20.8273 39.7531 20.1073 40.7931 19.014 40.9797C17.974 41.1664 16.934 41.2464 15.894 41.2464Z" fill="#F5F5F5"/>
<path d="M32.0002 41.5127C31.9202 41.5127 31.8668 41.5127 31.7868 41.5127H31.6535C26.6135 41.3527 22.8535 37.4593 22.8535 32.6593C22.8535 27.7526 26.8535 23.7793 31.7335 23.7793C36.6135 23.7793 40.6135 27.7793 40.6135 32.6593C40.5868 37.486 36.8268 41.3793 32.0268 41.5393C32.0268 41.5126 32.0268 41.5127 32.0002 41.5127ZM31.7335 27.7526C29.0402 27.7526 26.8535 29.9393 26.8535 32.6327C26.8535 35.2727 28.9069 37.406 31.5469 37.5127C31.5735 37.486 31.7868 37.486 32.0268 37.5127C34.6135 37.3793 36.6135 35.246 36.6402 32.6327C36.6402 29.966 34.4535 27.7526 31.7335 27.7526Z" fill="#F5F5F5"/>
<path d="M31.9988 61.1939C28.7988 61.1939 25.5988 60.3673 23.1188 58.6873C20.7721 57.1139 19.4121 54.8739 19.4121 52.4739C19.4121 50.1006 20.7454 47.8072 23.1188 46.2339C28.1054 42.9272 35.9188 42.9272 40.8788 46.2339C43.2255 47.8072 44.5855 50.0472 44.5855 52.4472C44.5855 54.8206 43.2521 57.1139 40.8788 58.6873C38.3988 60.3406 35.1988 61.1939 31.9988 61.1939ZM25.3321 49.5939C24.0788 50.4206 23.4121 51.4606 23.4121 52.5006C23.4121 53.5406 24.1054 54.5539 25.3321 55.3806C28.9321 57.8073 35.0388 57.8073 38.6388 55.3806C39.8921 54.5539 40.5588 53.5139 40.5588 52.4739C40.5588 51.4339 39.8655 50.4206 38.6388 49.5939C35.0655 47.1673 28.9588 47.1939 25.3321 49.5939Z" fill="#F5F5F5"/>
</mask>
<g mask="url(#mask0_538_243)">
<rect y="0.5" width="64" height="64" fill="#49C7F0"/>
</g>
</g>
<defs>
<clipPath id="clip0_538_243">
<rect width="64" height="64" fill="white" transform="matrix(-1 0 0 1 64 0.5)"/>
</clipPath>
</defs>
</svg>
